<svg id="_2NDALLCAPS" data-name="2NDALLCAPS" xmlns="http://www.w3.org/2000/svg" viewBox="0 0 39.6 90.72"><title>superfunfontprojeeeect</title><path d="M12.79,39.12C14,35.33,15.08,32.4,16,29.42a3.43,3.43,0,0,0-.31-2.15c-1.47-3.26-1.65-6.69.24-9.58C17,16,19.29,15,21.2,14.06a33.34,33.34,0,0,1,5.06-1.67c2.36,3,1.93,5.55-2.25,10.05-3,3.29-3,3.29.47,5.9,3.17,2.35,2,9.24-2,11.19-1.31.65-2.76,1.58-4.08,1.48C16.66,40.88,14.94,39.89,12.79,39.12Zm3-2.57c3.76,1.55,6.67.36,7.59-2.46A2.94,2.94,0,0,0,20.94,30C15,28.83,18.47,34.73,15.8,36.55ZM18,24l6.43-6.5C18.15,17.69,16.64,19.46,18,24Z"/></svg>