<svg id="_2NDALLCAPS" data-name="2NDALLCAPS" xmlns="http://www.w3.org/2000/svg" viewBox="0 0 39.6 90.72"><title>superfunfontprojeeeect</title><path d="M20,24.9c1.68-5-.82-10.21,1.52-14.69l1.38,0c.12,2.29.32,4.57.35,6.86.07,6.47,0,12.93.11,19.4,0,2.3.17,4.35-3.28,3.47-1-.26-2.42,1.27-3.56,1.16A6.13,6.13,0,0,1,11,34.35c.24-2.89,1.58-5.73,2.74-8.47.26-.61,1.76-.82,2.72-.94A26.75,26.75,0,0,1,20,24.9Zm.19,11.51a50.06,50.06,0,0,0-.62-6.22c-.2-.84-1.07-2-1.76-2.13a3.55,3.55,0,0,0-2.94,1.06,11,11,0,0,0-1.71,4.5c-.3,2,2.76,5.21,4.57,4.74C18.8,38.07,19.67,36.81,20.15,36.41Z"/></svg>