<svg id="_2NDALLCAPS" data-name="2NDALLCAPS" xmlns="http://www.w3.org/2000/svg" viewBox="0 0 39.6 90.72"><title>superfunfontprojeeeect</title><path d="M22,37.47a16.9,16.9,0,0,1-1.94.6c-2,.4-5.38,1.61-5.79.94a10.9,10.9,0,0,1-1.36-6.79c.5-3.62,2.43-6.47,6.57-7,2.25-.3,4.44-1,7.34-1.71-.29,5.11-.65,10-.82,15-.2,5.82-.24,11.65-.36,17.48a2.76,2.76,0,0,1-.07,1c-.56,1.21-1.17,3.39-1.78,3.39-2.33,0-1.83-2-1.82-3.63C22,50.33,22,43.94,22,37.47Zm-6-.11c2.37-1.53,4.55-2.61,6.26-4.2.72-.67.7-2.49.47-3.67-.08-.39-1.94-.8-2.86-.59C15.91,29.75,14.74,32.12,15.94,37.36Z"/></svg>