<svg id="_2NDALLCAPS" data-name="2NDALLCAPS" xmlns="http://www.w3.org/2000/svg" viewBox="0 0 39.6 90.72"><title>superfunfontprojeeeect</title><path d="M26.2,31.05c-2.08,2.21-3.72,4.18-5.62,5.83-.72.62-2.6,1.05-3,.63a7,7,0,0,1-1.74-3.83,6.85,6.85,0,0,1,.89-4A40.77,40.77,0,0,1,22.31,22c.86-.86,3.15-.69,4.61-.31.69.18,1,2,1.39,3.07.78,2.49,1.54,5,2.12,7.54a14.89,14.89,0,0,1,0,3.38,12.93,12.93,0,0,1-3.17-1.82C26.64,33.24,26.55,32,26.2,31.05ZM24.8,26.77l-1.06-.71c-2.91,1.71-5,3.93-4.92,7.6l1,.66Z"/></svg>