<svg id="_2NDALLCAPS" data-name="2NDALLCAPS" xmlns="http://www.w3.org/2000/svg" viewBox="0 0 39.6 90.72"><title>superfunfontprojeeeect</title><path d="M21.36,31a42.11,42.11,0,0,1-6.46,2.92c-2.53.7-5.25-2.14-5-4.82a10,10,0,0,1,11.18-9.3c1.45.2,3.72,2.4,3.75,3.73a197.14,197.14,0,0,1-.63,20.9c-.16,2-1.68,4.07-3.09,5.61-1.76,1.93-4.3,1.27-5.69-1a17.47,17.47,0,0,1-1.24-2,26.21,26.21,0,0,1-.86-2.69,13.28,13.28,0,0,1,3.06.65,17.09,17.09,0,0,1,2.78,2,23.6,23.6,0,0,0,2.31-4.54,22.75,22.75,0,0,0,.72-6.24A32.67,32.67,0,0,0,21.36,31Zm-.55-8.53c-2.4,1-4.79,1.61-6.69,2.94-.81.57-.91,2.69-.69,4,.07.42,2.33,1,3.3.63a27.53,27.53,0,0,0,4.83-2.85Z"/></svg>