<svg id="_2NDALLCAPS" data-name="2NDALLCAPS" xmlns="http://www.w3.org/2000/svg" viewBox="0 0 39.6 90.72"><title>superfunfontprojeeeect</title><path d="M7.55,57.39c.11-1.25-.19-2.75.38-3.72,5-8.48,10.08-16.87,15.2-25.26,2.35-3.85,4.74-7.67,7.32-11.36.51-.72,2-.76,3-1.11-.12,1.11.15,2.51-.41,3.3C24.94,30.65,16.79,42,10.73,54.74a28.21,28.21,0,0,1-1.81,2.88Z"/><path d="M29.36,38c2.32-.06,5.08,3.09,4.25,5.29a40.07,40.07,0,0,1-3.78,7c-1.67,2.66-4.44,2.36-6.36,1a7,7,0,0,1-2.29-5.21C21.39,40.9,24.49,38.14,29.36,38ZM24,47.08c.41.37,1.1,1.46,2,1.73,1.6.46,4.47-2.82,4.55-5.27a2.7,2.7,0,0,0-1.68-1.9C27,41.17,24.27,43.94,24,47.08Z"/><path d="M10.07,30.6C7.85,23,9,20.35,15.34,17.72a3.73,3.73,0,0,1,5.38,3.59C20.74,27.9,16.52,31.58,10.07,30.6ZM12.9,27.4c3.63-1.12,4.69-2.81,4.15-6.28C13,21.65,12.2,22.73,12.9,27.4Z"/></svg>