<svg id="_2NDALLCAPS" data-name="2NDALLCAPS" xmlns="http://www.w3.org/2000/svg" viewBox="0 0 39.6 90.72"><title>superfunfontprojeeeect</title><path d="M16.45,36.49a24.5,24.5,0,0,1,3.89-.66c4.33-.05,6.77-5,5.09-8.49-.52-1.08-3.35-1-5.09-1.51-1-.3-2-.76-3-1.14a24.56,24.56,0,0,1,2.08-2.94c.5-.54,1.62-.57,2-1.15a32,32,0,0,0,1.88-4.12c-1.55-.33-3.19-1.15-4.63-.87-1.8.35-3.37,1.74-5.14,2.41a7.74,7.74,0,0,1-2.81,0c.37-.82.53-2.07,1.15-2.38,2.66-1.34,5.38-2.85,8.25-3.38,1.67-.31,4.58.59,5.25,1.86.88,1.65.17,4.23,0,6.39-.05.6-.67,1.14-1.25,2.06,3.55.53,4.69,2.74,4.76,5.86.1,4.6-1.63,8.47-5.6,10.39-1.81.87-4.58-.32-6.92-.58Z"/></svg>