<svg id="_2NDALLCAPS" data-name="2NDALLCAPS" xmlns="http://www.w3.org/2000/svg" viewBox="0 0 39.6 90.72"><title>superfunfontprojeeeect</title><path d="M35.09,17.69c-.87.7-1.68,1.85-2.64,2a48.77,48.77,0,0,1-7.19.37c-5,0-10.06,0-15.28,0,0-2-.06-3,2.92-2.9,6.62.28,13.28-.31,19.93-.53a15.31,15.31,0,0,1,1.66.12Z"/><path d="M16.59,31.37c-.63-.35-3.28-1.16-3.26-1.92C13.4,25.92,16,28,17.64,28c4.23-.22,8.45-.57,12.68-.61,1,0,1.95,1,2.92,1.54-1,.58-1.88,1.56-2.89,1.66C26.15,30.94,21.92,31.08,16.59,31.37Z"/></svg>