<svg id="_2NDALLCAPS" data-name="2NDALLCAPS" xmlns="http://www.w3.org/2000/svg" viewBox="0 0 39.6 90.72"><title>superfunfontprojeeeect</title><path d="M27.43,12a122.93,122.93,0,0,0-13.7-.37c-.8,0-1.59,1.09-2.39,1.67l.15,1H25l.37,1.07c-3.14,3.91-6.17,7.91-9.46,11.68a28,28,0,0,1-4.1,3.52,1.28,1.28,0,0,1-.51.54,9.87,9.87,0,0,1-.56,2c1.47-.18,2.88-.48,4.3-.74a1.41,1.41,0,0,1,.4-.53c.21-.16.45-.34.7-.52a8.84,8.84,0,0,1,1-2.18q5.28-5.6,10.66-11.11C29.29,16.63,29.13,12.18,27.43,12Z"/><path d="M12.75,33c5.18,1.07,10.42-.18,15.61.65.92.15,3.4-1.31,1.78-1.57-5.19-.83-10.45.42-15.61-.65-.92-.19-3.41,1.23-1.78,1.57Z"/><path d="M30.81,33c-.57-2.24-4.08-1.52-5.76-1.53L13,31.49c-1.09,0-3.08,1.63-1.13,1.64,1.78,0,15.66-.93,16.08.7.26,1,3.16.24,2.9-.78Z"/><path d="M29.28,32.61,24.93,32a2.55,2.55,0,0,0-2,.55c-.41.39-.37.92.27,1l4.35.65a2.55,2.55,0,0,0,2-.55c.41-.39.37-.92-.27-1Z"/></svg>