<svg id="_2NDALLCAPS" data-name="2NDALLCAPS" xmlns="http://www.w3.org/2000/svg" viewBox="0 0 39.6 90.72"><title>superfunfontprojeeeect</title><path d="M20.17,20.34l-5.87-.7c-.85-3,.28-3.87,3.07-3.58a31.5,31.5,0,0,0,5.31-.31l0-.93c.93.77,2.13,1.38,2.72,2.37a4.1,4.1,0,0,1,.16,3c-.41,1.28-1.8,2.37-1.86,3.59-.29,6-.24,12-.39,18-.09,3.91-.2,7.83-.56,11.72A3.57,3.57,0,0,1,20.86,56a19.06,19.06,0,0,1-6.28,1c-1,0-1.92-1.33-2.89-2.06L12,53.9a51.39,51.39,0,0,0,5.49-1.15c.8-.25,2-1.14,2-1.78.42-10.08.67-20.16,1-30.25C20.41,20.62,20.29,20.52,20.17,20.34Z"/></svg>