<svg id="_2NDALLCAPS" data-name="2NDALLCAPS" xmlns="http://www.w3.org/2000/svg" viewBox="0 0 39.6 90.72"><title>superfunfontprojeeeect</title><path d="M10.69,36a47.1,47.1,0,0,1,5.06-3.73c3.53-1.91,3.84-2.94,1.48-5.94a5.57,5.57,0,0,1-.57-6.79c1.92-3.28,4.15-6.15,8.29-6.88,1,1.64,1.37,2.59-1,3.54a10.57,10.57,0,0,0-4.68,4.11c-.53.84.13,3.31,1,4.05,3.06,2.48,3.29,5.82.07,8.48A34.18,34.18,0,0,1,17,34.95a11.25,11.25,0,0,1,1.68,2.55,8.89,8.89,0,0,1,.64,4.23c-.36,1.64-1.72,3-2.19,4.68-.58,2-1.29,4.31-.73,6.09.28.91,3.23,1,5,1.38.32.08.65.13,1,.2-.38,3.45-.67,3.75-3.67,3C17,56.67,14.6,56.37,14,55.22c-1.48-2.84-2.16-6.13-.07-9.21a7.78,7.78,0,0,0,.87-1.51C16.74,39.48,17.58,38.95,10.69,36Z"/></svg>