<svg id="_2NDALLCAPS" data-name="2NDALLCAPS" xmlns="http://www.w3.org/2000/svg" viewBox="0 0 39.6 90.72"><title>superfunfontprojeeeect</title><path d="M16.52,39,15.33,28.56l-7.95.7A3.18,3.18,0,0,1,9.7,24.8c1.66-.44,3.55.08,5.23.16.67-5.68,1.09-11.13,2-16.48.6-3.43,4.51-6.57,8.71-3.18.7.57.81,1.89,1.19,2.87-1.09.08-2.53.64-3.22.14-2.53-1.8-3.86-1.06-4.26,1.74-.66,4.64-1.12,9.32-1.73,14.58a47.65,47.65,0,0,1,6.11-.21,10.83,10.83,0,0,1,3.1,1.35c-.9.64-1.77,1.76-2.72,1.83-6.77.55-6.77.49-5.12,7.61C19.7,38.22,19.7,38.22,16.52,39Z"/></svg>