<svg id="_2NDALLCAPS" data-name="2NDALLCAPS" xmlns="http://www.w3.org/2000/svg" viewBox="0 0 39.6 90.72"><title>superfunfontprojeeeect</title><path d="M31.15,22.33c-1,2.72-2.23,7.21-4.27,11a8.23,8.23,0,0,0-.61,7.45c.5,1.54.53,4.81-.07,5.22-2.06,1.4-2.55-1-3.28-3.07-.37-1.06-2-2.23-2.87-2-5.16,1.13-11.26-6.26-11-13,.33-8.69,4.81-13.16,9.86-16.91C25.41,6.13,31.1,10.74,31.15,22.33ZM23.23,32.5c3.6-4.06,4.62-8.54,4.19-13.64-.31-3.72-2-5.78-4.87-4.55-2.21.95-4.21,2.73-6.25,4.26a10,10,0,0,0-3.17,11.3c.93,2.72,4.14,4.14,6.34,6.15-1.23-8.32-1.23-8.32,2.26-9Z"/></svg>