<svg id="_2NDALLCAPS" data-name="2NDALLCAPS" xmlns="http://www.w3.org/2000/svg" viewBox="0 0 39.6 90.72"><title>superfunfontprojeeeect</title><path d="M27.67,39.45c0-8.21,0-16.42-.09-24.63,0-1.37-.84-2.72-1.29-4.08-.55,1.48-1.53,2.93-1.57,4.43-.09,3.23.3,6.49.51,9.93L15.66,27c.41-5.47.83-10.25,1.08-15,0-.87-.64-1.8-1-2.71-.6.69-1.62,1.27-1.73,2.07-.46,3.25-.6,6.57-.92,9.85-.29,3-.67,5.92-.87,7.68L13.68,42.1l1.49-.26.39-10.91,8.54-1.07c1.82,3.25.71,6.94.48,10.58a4.94,4.94,0,0,1,.47.9,5.49,5.49,0,0,1,1.86,0A5.2,5.2,0,0,1,27.67,39.45Z"/></svg>