<svg id="_2NDALLCAPS" data-name="2NDALLCAPS" xmlns="http://www.w3.org/2000/svg" viewBox="0 0 39.6 90.72"><title>superfunfontprojeeeect</title><path d="M32.73,20.56c-2.85-8.42-16-9.8-18.26-.13a10,10,0,0,0,4.08,10.63c2.59,1.62,5.75,1.31,8.42,2.59,4.12,2,3.75,6.48.15,8.59s-8.08.19-11.36-1.37C14,40,12.5,42.63,14.24,43.46c4.69,2.23,10.81,4.24,15.41.66,2.69-2.09,4.48-6,3-9.36-2-4.7-7.32-3.94-11.27-5.63-3.79-1.62-5.63-6.56-3.18-10.14,3.13-4.57,10.06-2.18,11.6,2.37.62,1.82,3.51,1,2.89-.8Z"/><path d="M22.74,7.88A143.72,143.72,0,0,0,17.9,50.25c.07,1.93,3.07,1.93,3,0A140.89,140.89,0,0,1,25.63,8.68a1.5,1.5,0,0,0-2.89-.8Z"/></svg>