<svg id="_2NDALLCAPS" data-name="2NDALLCAPS" xmlns="http://www.w3.org/2000/svg" viewBox="0 0 39.6 90.72"><title>superfunfontprojeeeect</title><path d="M16.57,39.88c-.15,2.57-.15,4.92-.52,7.22-.1.64-1.3,1.1-2,1.65-.59-.87-1.88-2.08-1.65-2.56,3.49-7.46.81-15.65,2.88-23.25a17.26,17.26,0,0,1,1.84-5.08c3.16,4.89-1,9.8.38,15.84,3-3.32,5.59-6.1,8.06-9,1-1.14,1.53-2.65,2.54-3.75a16.67,16.67,0,0,1,3.06-2.17c-.17,1.24.07,2.83-.59,3.66-3.25,4-6.75,7.88-10.17,11.78-.38.43-.86.77-1.24,1.19-.13.15-.11.44-.26,1.13,2.94,1.66,5.94,3.52,9.1,5,1.4.67,2.9,1.16,1.67,2.81-.47.63-2.55.56-3.57.08-2.77-1.31-5.35-3-8-4.51C17.63,39.74,17,39.89,16.57,39.88Z"/></svg>