<svg id="_2NDALLCAPS" data-name="2NDALLCAPS" xmlns="http://www.w3.org/2000/svg" viewBox="0 0 39.6 90.72"><title>superfunfontprojeeeect</title><path d="M25.69,47.21c-2.15,4-5.52,5-9.25,5.74a4.82,4.82,0,0,1-5.73-2.66c-4.27-7.58-4-10.31,1.73-17.22a10.24,10.24,0,0,0,1-12.16c-2-3.14-1.81-8.46.88-10.83,2.18-1.93,4.29-3.91,7.91-4s6.09,1.54,7.25,4c.88,1.89.27,5.16-.81,7.18A40.82,40.82,0,0,1,21.93,26c-2.1,2.19-2.7,4.11-.65,6.76,2.19-2.91,4.06.17,6.12.23s4.26-1,6.6-1.59c1.79,6-3,9.25-5.11,14,1.2,3,4,1.29,6.29,1.48.79.07,1.58.2,2.37.31a10.48,10.48,0,0,1-1.37,2c-3.67,3.3-5.55,3.18-8.8-.42C27,48.32,26.55,48,25.69,47.21ZM17.62,32.08c-2.3,2.84-4.28,4.92-5.82,7.29s-.13,7.8,2.1,9.12c2,1.21,8.5-.69,9.54-2.92a2.89,2.89,0,0,0-.09-2.18C21.6,39.77,19.73,36.22,17.62,32.08Zm.1-7.38,1,.48C21.26,22,24,18.93,26.2,15.52a3.71,3.71,0,0,0-2.11-5.6A7.64,7.64,0,0,0,16,13.76C13.48,18.07,17,21.09,17.72,24.71Zm13,12.07H23.55l3,6.29Z"/></svg>