<svg id="_2NDALLCAPS" data-name="2NDALLCAPS" xmlns="http://www.w3.org/2000/svg" viewBox="0 0 39.6 90.72"><defs><style>.cls-1{fill:none;}</style></defs><title>superfunfontprojeeeect</title><path class="cls-1" d="M23.63,20.21,19.31,30.7l6.29.43L24.39,20.23Z"/><path d="M27.55,18.72a3.15,3.15,0,0,0-.48-1.62c-.93-1.18-2-2.25-3-3.37a30.27,30.27,0,0,0-2.51,4c-2.15,4.88-4.2,9.81-6.22,14.75-1.66,4.07-3.23,8.18-5.1,12.92,3.73-1,3.73-1,4.37-4.63,1-5.61,1.88-6.19,7.27-5.48,1.41.19,2.93-.47,4.65-.79v9.42l1.35.62c.52-.85,1.53-1.73,1.48-2.54C28.86,34.21,28.19,26.47,27.55,18.72Zm-8.24,12,4.32-10.5.76,0L25.6,31.13Z"/></svg>