<svg id="_2NDALLCAPS" data-name="2NDALLCAPS" xmlns="http://www.w3.org/2000/svg" viewBox="0 0 39.6 90.72"><title>superfunfontprojeeeect</title><path d="M18.5,28.84c.29-.26,1-1.42,1.94-1.64,1.94-.45,5.36-1.16,5.75-.43a12.83,12.83,0,0,1,1.47,7.56c-.72,4.48-6.19,7.23-10.51,6-3.21-.91-1.92-3.81-2-5.51-.14-7.42.23-14.86.59-22.28.05-1.1,1.06-2.14,1.63-3.21a12.21,12.21,0,0,1,1,3.29C18.55,18.16,18.5,23.69,18.5,28.84Zm6.82.23c-5.7.43-5.24,4.78-6.84,7.78,2.09,0,4.48-.13,5.4-1.37C25,34,24.84,31.53,25.31,29.07Z"/></svg>