<svg id="_2NDALLCAPS" data-name="2NDALLCAPS" xmlns="http://www.w3.org/2000/svg" viewBox="0 0 39.6 90.72"><title>superfunfontprojeeeect</title><path d="M13.56,31.13c1-2.31,2-4.66,3.13-6.92a11.17,11.17,0,0,1,1.88-2.15,17.75,17.75,0,0,1,1.58,2.74c.88,2.39,1.6,4.83,2.39,7.25l.93-.2A11.68,11.68,0,0,0,24,29.28c-.1-5.71-.38-11.42-.34-17.13,0-1,1.24-2.08,1.9-3.13.58.7,1.69,1.44,1.65,2.1-.56,9.32-1.27,18.62-2,27.93,0,.42-.42.81-1,1.88l-6.5-13.24c-1.29,3.31-2.23,5.89-3.3,8.41a13.27,13.27,0,0,1-1.57,2.28c-.62-.71-1.62-1.33-1.81-2.15C9.56,29.78,8.13,23.31,7,16.8c-.23-1.26.8-2.76,2-3.78l3.25,18.36Z"/></svg>