<svg id="_2NDALLCAPS" data-name="2NDALLCAPS" xmlns="http://www.w3.org/2000/svg" viewBox="0 0 39.6 90.72"><title>superfunfontprojeeeect</title><path d="M11.47,12.18c.71,4,1.4,8.1,2.13,12.14.6,3.32,1.19,6.64,1.91,9.93a8.18,8.18,0,0,0,1.31,2.2c.82-.71,2.09-1.27,2.38-2.16,1.76-5.42,3.26-10.92,4.92-16.38a29.72,29.72,0,0,1,1.55-3.48l1.08.06a17.42,17.42,0,0,1,1.15,3.23c1,6.58,1.94,13.16,2.74,19.77.12,1-.66,2-1,3.06-.74-.87-2-1.67-2.12-2.63-.58-4.38-.85-8.8-1.85-13.33-1,2.86-1.92,5.73-2.89,8.59-.41,1.2-.57,2.69-1.38,3.5-1.37,1.37-3.22,3.22-4.76,3.13-1.29-.08-3.08-2.5-3.5-4.17C11.44,29,10.15,22.29,9,15.55c-.18-1,1-2.29,1.52-3.44Z"/></svg>