<svg id="_2NDALLCAPS" data-name="2NDALLCAPS" xmlns="http://www.w3.org/2000/svg" viewBox="0 0 39.6 90.72"><title>superfunfontprojeeeect</title><path d="M23.66,26.47c-1.65-1.21-3.63-2-5.27-3.19-1.1-.82-2.45-2-2.6-3.19-.1-.75,1.7-1.93,2.81-2.65s2.61-1,3.7-1.8a13.1,13.1,0,0,0,2.19-2.75c-1.12-.14-2.41-.7-3.32-.32a24,24,0,0,0-4.94,3.08c-.71.53-1.68,1.23-2.49,1.88a4.67,4.67,0,0,1-.35.5,5.36,5.36,0,0,1-.67,2.08,19.42,19.42,0,0,0,3.54,4.08c1,1,2.26,1.9,3.4,2.83a4.53,4.53,0,0,1,3,3.11l0,.05a.49.49,0,0,1,.05.28,5.75,5.75,0,0,1-.12,3.08c0,.07,0,.14,0,.21v0a5.33,5.33,0,0,1-.35,1l0,0q-.1.21-.22.42l0,.06q-.12.2-.26.38l0,.05a4.5,4.5,0,0,1-.33.38h0a4.3,4.3,0,0,1-1,.73A4.68,4.68,0,0,1,17,38a5.61,5.61,0,0,1-.9-.08,6.26,6.26,0,0,1-2.19-.58L11,36.11a4.71,4.71,0,0,1-.75.22,6.87,6.87,0,0,0,10.87,2c1-.93,1.94-2,2.93-2.93C27,32.67,26.86,28.82,23.66,26.47Z"/></svg>