<svg id="_2NDALLCAPS" data-name="2NDALLCAPS" xmlns="http://www.w3.org/2000/svg" viewBox="0 0 39.6 90.72"><title>superfunfontprojeeeect</title><path d="M18.58,47.63a48.62,48.62,0,0,1-6.33.39c-2.8-.17-4.39-1.71-4.16-4.82.31-4.11.3-8.26.8-12.34,1-7.8,9-16.74,16.28-18.52a7.73,7.73,0,0,1,9.55,9.18c-.93,4-3.19,7.73-3.86,11.75C30,38.75,26.21,42.06,23,45.83c-1,1.15-2.72,1.64-4.11,2.43ZM21,33.86c-.48.89-.66,1.78-1.17,2.06-1.49.82-3.11,1.39-4.68,2.05-.46-1.48-1.66-3.26-1.23-4.39a19.74,19.74,0,0,1,4.24-6.68c1-1,3.2-1.31,4.71-1,.67.12,1,2.42,1.43,3.74s.89,2.67,1.5,4.5c4.49-3.34,5.85-7.51,6.08-12.11.27-5.53-2.57-7.9-7.67-6.14C18,18,13.9,23.06,11.91,28.94c-1.49,4.39-.88,9.53-1,14.35,0,.57,1.34,1.49,2.19,1.69C18.19,46.14,24,42.83,26,37.73Z"/></svg>