<svg id="_2NDALLCAPS" data-name="2NDALLCAPS" xmlns="http://www.w3.org/2000/svg" viewBox="0 0 39.6 90.72"><title>superfunfontprojeeeect</title><path d="M20.55,47.7c-3.64-3.11-5.38-30.34-3.61-34,2.77-.87,4.91-1.82,7.13-2.16a21.8,21.8,0,0,1,6.49.16c.59.09,1.45,1.59,1.38,2.37-.58,6.79-2.22,12.9-9.79,15.2-.94.29-2,2.19-2,3.35,0,3.62.49,7.24.68,10.87A32.85,32.85,0,0,1,20.55,47.7ZM19.42,22.39c-.16,3.65.55,4.56,3,3.78,3.44-1.12,7.06-6.83,6.8-10.54-.15-2.18-1.36-2.35-3.07-2.09A8.37,8.37,0,0,0,19.42,22.39Z"/></svg>