<svg id="_2NDALLCAPS" data-name="2NDALLCAPS" xmlns="http://www.w3.org/2000/svg" viewBox="0 0 39.6 90.72"><title>superfunfontprojeeeect</title><path d="M13.17,53.4c.56.13.7.12.76.18l4.9,4.68c.81-2.07,2.1-4.09,2.33-6.23.71-6.68,1-13.41,1.53-20.1.08-.92,1-1.78,1.47-2.66.48.8,1.43,1.64,1.37,2.4-.65,8.56-1.31,17.12-2.31,25.65-.38,3.23-3.64,5.89-5.8,4.92C15,61.15,12.86,59.22,13,56,13,55.19,13.09,54.39,13.17,53.4Z"/><path d="M25.3,17.44c.69,2.32,0,3.71-2.17,4-.45.06-1.53-1-1.5-1.4C21.81,18,22.88,16.82,25.3,17.44Z"/></svg>