<svg id="_2NDALLCAPS" data-name="2NDALLCAPS" xmlns="http://www.w3.org/2000/svg" viewBox="0 0 39.6 90.72"><title>superfunfontprojeeeect</title><path d="M14.19,30.1V41.91L11,40.14c.44-6.65,1-13.05,1.22-19.47.08-2.22-2.1-4.21.14-6.76,2.53-2.88,9.33-4.34,12.33-2,2.32,1.83,2.48,5.38.16,8.09-1.5,1.76-3.38,3.18-4.87,4.95a4.72,4.72,0,0,0-1.22,3.26c.12.73,1.6,1.32,2.57,1.79,2.24,1.08,4.63,1.89,6.74,3.17.58.35.42,2,.6,3-1,0-2.07.37-2.84,0C22.17,34.42,18.63,32.46,14.19,30.1Zm1-5c3.17-2.79,7.25-4.64,8.17-9.33C16.55,12,14.54,16.68,15.23,25.14Z"/></svg>