<svg id="_2NDALLCAPS" data-name="2NDALLCAPS" xmlns="http://www.w3.org/2000/svg" viewBox="0 0 39.6 90.72"><title>superfunfontprojeeeect</title><path d="M31.22,35.9l-7,5.85c2.31,2.29,5.19,3.83,5.76,7.59s-1.16,9.59-4.47,11.45c-2.43,1.37-3.73.72-4-2,4.76-1.52,8.3-7.25,2.89-12.31-.17-.16-.31-.35-.48-.51C20,42.14,20,42.14,23,37.68c-4-5.64-4-7.27.19-12.91,1.45-2,1.63-3.59-1-4.64a5.27,5.27,0,0,1-2.07-1.21c-.42-.49-.78-1.56-.53-2s1.49-1.09,1.94-.88a32.79,32.79,0,0,1,5.94,3.48,3.18,3.18,0,0,1,.44,2.89c-.93,2.2-2.29,4.21-3.35,6.37C24,30,23,31.57,23.32,32.61c.27.85,2.16,1.32,3.41,1.67a27.83,27.83,0,0,0,4,.56Z"/></svg>