<svg id="_2NDALLCAPS" data-name="2NDALLCAPS" xmlns="http://www.w3.org/2000/svg" viewBox="0 0 39.6 90.72"><title>superfunfontprojeeeect</title><path d="M13.8,27,10.93,37.69,9.7,37.54c-.22-4.77-.48-9.53-.6-14.3,0-.4.83-.81,1.28-1.22l1.94,2.44,4-3.05L18.36,26l1,.06a31.31,31.31,0,0,1,1.75-4.2,3.55,3.55,0,0,1,2.18-1.77c1-.07,2.6.43,2.9,1.14a35,35,0,0,1,2.41,17.62c0,.3-.36.57-.87,1.35C24,35.1,27.25,28.57,23.3,22.62c-1.44,4.13-2.59,7.5-3.8,10.85-.38,1-.92,2-1.39,3a19.31,19.31,0,0,1-1.49-3.23c-.55-2.1-.87-4.26-1.29-6.4Z"/></svg>