<svg id="_2NDALLCAPS" data-name="2NDALLCAPS" xmlns="http://www.w3.org/2000/svg" viewBox="0 0 39.6 90.72"><title>superfunfontprojeeeect</title><path d="M21.82,28l-7.4,15.4-1.27-.29a29.55,29.55,0,0,1-.74-4.5c-.09-6.3-.23-12.6,0-18.89A101.16,101.16,0,0,1,14,7.29c.11-.65,1.37-1.1,2.1-1.64.32.9,1.09,1.92.88,2.67-2.32,8.48-1.26,17.12-1.3,25.7a7,7,0,0,0,.38,1.37c2.44-3.75,2-9.27,8.16-10.61a31.44,31.44,0,0,1,2,5.54A105.28,105.28,0,0,1,27.5,41.77c.05.81-1,1.7-1.51,2.55-.62-.85-1.71-1.66-1.78-2.56-.24-3,0-6.09-.19-9.12a29.85,29.85,0,0,0-1-4.74Z"/></svg>