<svg id="_2NDALLCAPS" data-name="2NDALLCAPS" xmlns="http://www.w3.org/2000/svg" viewBox="0 0 39.6 90.72"><title>superfunfontprojeeeect</title><path d="M23,10.17a16.29,16.29,0,0,0-3.73,1.76c-5.2,4.41-7.45,9.87-6.78,16.14a19.06,19.06,0,0,0,1.63,5.42,2.87,2.87,0,0,0,2.14,1.4c.93,0,2.39-.65,2.64-1.31,1.47-3.73,2.65-7.55,4-11.7l-5.23.9V20c2.49-.39,4.71-.83,7-1.05a4.07,4.07,0,0,1,2.38.62c.3.19.15,1.12,0,1.63-1.5,3.91-3.26,7.74-4.56,11.7-1.08,3.3-2.72,4.94-5.85,4.91a6.09,6.09,0,0,1-6.18-5.1,23.26,23.26,0,0,1,3.16-18.24,24.22,24.22,0,0,1,5.64-5.5c.7-.54,2.4-.08,3.64-.08Z"/></svg>