<svg id="_2NDALLCAPS" data-name="2NDALLCAPS" xmlns="http://www.w3.org/2000/svg" viewBox="0 0 39.6 90.72"><title>superfunfontprojeeeect</title><path d="M20.88,27.89l-6.23,8.6-1.42-.69a22.5,22.5,0,0,1,1.62-4.57c2.23-3.62,6.4-6.21,5.74-11.31-.21-1.67-.66-3.3-.93-5A13.39,13.39,0,0,1,19.5,12c0-.13,1.34-.42,1.44-.26a7.91,7.91,0,0,1,.89,2.4c.32,1.58.53,3.19.8,4.87l3.44-2.7,1,.3c-.16,1.36.17,3.29-.58,4-3.2,2.86-3.45,6-2,9.77.5,1.29,1.5,3.12-.82,3.57-.44.08-1.34-1.93-1.9-3A21.06,21.06,0,0,1,20.88,27.89Z"/></svg>