<svg id="_2NDALLCAPS" data-name="2NDALLCAPS" xmlns="http://www.w3.org/2000/svg" viewBox="0 0 39.6 90.72"><title>superfunfontprojeeeect</title><path d="M25.89,15.07C23.64,12,21.19,11.6,17,13.74c-1.39.71-3.2.58-4.81.83a21.17,21.17,0,0,1,3.29-3.19,13.21,13.21,0,0,1,5.16-2.23c5.18-.6,7.43,1,8.72,5.94a4.1,4.1,0,0,1-1.17,3.29c-2.92,2.7-6.13,5.07-9.07,7.75a5.41,5.41,0,0,0-1.52,3.17c-.4,3.65-.55,7.34-.81,11.22-2.44-.32-3.26-.9-3-3.15A72.34,72.34,0,0,0,13.91,27c-.08-2.15.46-3.23,2.74-3.44a6,6,0,0,0,3.57-1.51C22.2,20,23.86,17.61,25.89,15.07Z"/><path d="M18.56,47.58c-1.38.92-2.63,2.12-3,1.9-.9-.6-1.4-1.8-2.06-2.76.75-.53,1.6-1.59,2.24-1.47C16.61,45.38,17.3,46.45,18.56,47.58Z"/></svg>