<svg id="_2NDALLCAPS" data-name="2NDALLCAPS" xmlns="http://www.w3.org/2000/svg" viewBox="0 0 39.6 90.72"><title>superfunfontprojeeeect</title><path d="M15.18,25.71c3.63,1.07,6.4,1.32,8.51,2.65,3.13,2,4.33,7.51,2.77,9.87S18.74,42,15.71,40.46a34.78,34.78,0,0,1-3.24-2.22,17.09,17.09,0,0,1,2.48-.42c1.82,0,3.65.34,5.45.2s4.13-1,3.47-3.28c-.48-1.65-2.22-3.23-3.79-4.16-1.35-.8-3.3-.47-4.9-.93-2.49-.71-2.59-6.24,0-8.39a22.07,22.07,0,0,1,5.28-3.15c.65-.29,1.73.44,2.62.7-.39.84-.56,2-1.2,2.46-1,.73-2.39.85-3.45,1.51A26.31,26.31,0,0,0,15.18,25.71Z"/></svg>