<svg id="_2NDALLCAPS" data-name="2NDALLCAPS" xmlns="http://www.w3.org/2000/svg" viewBox="0 0 39.6 90.72"><title>superfunfontprojeeeect</title><path d="M11.08,31.81c1.11.7,2.65,1.14,3.23,2.14a58.32,58.32,0,0,1,3,6.94c4.08,0,4.62-2.58,4.7-5.22.15-5.19,0-10.4,0-16-2.5.79-4.91,1.69-7.39,2.25-.84.19-1.86-.5-2.8-.78.46-1.12.76-3.11,1.41-3.23,7-1.33,14.1-2.37,21.33-3.51-.27,3.62-1,4-8.85,4.74-.27,5.58-.54,11.23-.81,16.88-.22,4.73-2.13,7.8-5.25,8.85-2.43.82-4-.09-5.08-2.18C13,39.56,11.56,36.34,10,33.14Z"/></svg>