<svg id="_2NDALLCAPS" data-name="2NDALLCAPS" xmlns="http://www.w3.org/2000/svg" viewBox="0 0 39.6 90.72"><title>superfunfontprojeeeect</title><path d="M32.75,9.66c-.74.31-1.76.42-2.17,1A16.92,16.92,0,0,0,29,14.1q-2.71,6.54-5.4,13.08A2.22,2.22,0,0,1,23,28.83a2.48,2.48,0,0,1-.48,1.9,2.46,2.46,0,0,1-.38,1.39c0,.9-.45,1.73-1.25,1.73-1.18,0-1.62-1.71-1.29-2.89a2.72,2.72,0,0,1-.11-.36,2.89,2.89,0,0,1-.41-1.85c-.2-.51-.36-1-.5-1.52-.48-1.71-1-3.32-1.38-5A2.81,2.81,0,0,1,16.91,21c0-1.57-.47-3.09-.5-4.67,0,0,0-.1,0-.15A7.15,7.15,0,0,1,16.25,14c-.28-.44-.61-.94-1-1.58-.87,1.93-1.93,3.14-1.77,4.13.5,3,1.57,6,2.25,9,1,4.29,4.43,8,3,12.87-.08.28.48.75,1.24,1.87,3.63-7.5,7.07-14.55,10.45-21.62A66.42,66.42,0,0,0,33.35,12C33.57,11.35,33,10.44,32.75,9.66Z"/></svg>