<svg id="_2NDALLCAPS" data-name="2NDALLCAPS" xmlns="http://www.w3.org/2000/svg" viewBox="0 0 39.6 90.72"><title>superfunfontprojeeeect</title><path d="M14.68,18.66c0,2.8-.11,6.16,0,9.5s.54,6.65.82,10l-1.19.53c-.57-.94-1.6-1.86-1.65-2.83-.25-5.19-.29-10.4-.33-15.6a22.42,22.42,0,0,1,.33-5.55c.26-1,1.5-1.81,2.3-2.7a14.45,14.45,0,0,1,2.39,2.48c3,5,5.79,10.12,8.67,15.19l1-.34L25.51,12.06l1-.58c.66.76,1.82,1.47,1.9,2.28.84,8.49,1.5,17,2.2,25.46-2.48,1.23-3.44.68-4.39-2.07a98.09,98.09,0,0,0-6.64-14.78C18.71,20.71,16.35,19.87,14.68,18.66Z"/></svg>