<svg id="_2NDALLCAPS" data-name="2NDALLCAPS" xmlns="http://www.w3.org/2000/svg" viewBox="0 0 39.6 90.72"><title>superfunfontprojeeeect</title><path d="M28.31,30.16c0-.18-.05-.37-.08-.55L24,25.67c.66-2,5.16-.81,4.39-4.44-.95-4.49-5.51-4.46-8.77-6-.68-.32-2.07.48-3.54.88l9.86,5.17-.48,1.28L13.62,26l.91-9.39c-4.65,1.92-5.68,22.87-2,27.45l15-9.54a15.67,15.67,0,0,1,1-2.17l.32-.63A3.8,3.8,0,0,1,28.31,30.16ZM25.7,34.61A7.66,7.66,0,0,1,21.1,38c-.35.1-.71.19-1.06.28A5.11,5.11,0,0,1,13.26,38c-2-1.88-1.77-5.14,0-7.07l.13-.15c.06-.53.11-1.08.16-1.66l1.59.08a5.09,5.09,0,0,1,1.15-.55,4.13,4.13,0,0,1,1.58-.17l.08,0a5.14,5.14,0,0,1,5.94-.72A5.06,5.06,0,0,1,25.7,34.61Z"/><path d="M15.34,18.13c.43-.88,1.09-1.56,2.1-1.18a2.43,2.43,0,0,0,2.05-.27c.34-.21.93-.88.26-1.13-2.47-.91-5.91,0-7.11,2.52-.6,1.24,2.28.91,2.7.06Z"/><path d="M25.87,32.7a18.86,18.86,0,0,1-10.78,7.1c-1.75.42-1.36,1.86.39,1.44a23,23,0,0,0,13.09-8.48c.78-1-2.12-.81-2.7-.06Z"/><path d="M14.12,30.06a4.17,4.17,0,0,1,2.4-1.33c.52-.07,1.54-.35,1.65-1s-.85-.67-1.25-.62a8.87,8.87,0,0,0-5.12,2.46c-.42.43-.33.87.27,1a2.48,2.48,0,0,0,2-.55Z"/><path d="M12.88,17.57c-1.52,2.89-.13,6.24-1.55,9.1-.61,1.23,2.27.91,2.7.06,1.44-2.9.07-6.28,1.55-9.1.64-1.21-2.25-.9-2.7-.06Z"/></svg>