<svg id="_2NDALLCAPS" data-name="2NDALLCAPS" xmlns="http://www.w3.org/2000/svg" viewBox="0 0 39.6 90.72"><title>superfunfontprojeeeect</title><path d="M18.84,22.28a43.85,43.85,0,0,1,1.35-5A8.8,8.8,0,0,1,22,15.16a12.79,12.79,0,0,1,1.22,2.53,5.38,5.38,0,0,1-.06,1.89L27,21.27c-.93,1.14-1.91,2.24-2.79,3.42-.65.87-1.62,1.82-1.68,2.78C22.14,33.66,22,39.86,21.73,46a9,9,0,0,1-.87,2.46c-.69-.3-1.76-.42-2-.93a4.28,4.28,0,0,1-.17-2.87c1.26-3.55,2.39-6.91.51-10.76C18.44,32.33,19.1,30,19,28c-.17-2.51-1.44-3.45-3.6-2-1.73,1.2-3,.9-3.95-.77a2.87,2.87,0,0,1-.2-2.18c.16-.44,1.06-.8,1.65-.83C14.88,22.22,16.9,22.28,18.84,22.28Z"/></svg>