<svg id="_2NDALLCAPS" data-name="2NDALLCAPS" xmlns="http://www.w3.org/2000/svg" viewBox="0 0 39.6 90.72"><title>superfunfontprojeeeect</title><path d="M13.93,58.46c-2.67-4-4.7-7.85-3.93-12.49l.95-.32,3.1,7.93c4.39-4.31,6.24-17.71,3.78-26.45-1,1.23-1.74,2.28-2.6,3.24-1.7,1.92-3.35,1.81-4.73-.36C8.1,26.26,8,20.81,10.4,16.31c3.25,3.51-1.72,8.82,2.75,11.72a11.15,11.15,0,0,0,5-8.21c.06-.67,1.25-1.22,1.92-1.82.48.66,1.37,1.31,1.37,2,0,9.18,1.64,18.45-.79,27.51C19.48,51.61,18.17,55.85,13.93,58.46Z"/></svg>