<svg id="_2NDALLCAPS" data-name="2NDALLCAPS" xmlns="http://www.w3.org/2000/svg" viewBox="0 0 39.6 90.72"><title>superfunfontprojeeeect</title><path d="M21,50.11c1.39-1.67,3-6.06-.16-6.86a3.56,3.56,0,0,0-3.54,1.14c-.79,1.11.06,2.15,1.1,2.64a2.34,2.34,0,0,0,2.05-.27c.38-.24.88-.83.26-1.13a3.16,3.16,0,0,1-.66-.46l-.16-.45-.51.37a5.9,5.9,0,0,0,.29.74,3.57,3.57,0,0,1,0,1.08A5.62,5.62,0,0,1,18.28,50c-.45.54.39.83.78.85A2.43,2.43,0,0,0,21,50.11Z"/><path d="M15.5,32.58,21,34.9c1.32.56,2.47-1.38,1.14-1.94l-5.47-2.32c-1.32-.56-2.47,1.38-1.14,1.94Z"/></svg>