<svg id="_2NDALLCAPS" data-name="2NDALLCAPS" xmlns="http://www.w3.org/2000/svg" viewBox="0 0 39.6 90.72"><title>superfunfontprojeeeect</title><path d="M15.66,25.41c1.6-2.28,2.55-4.12,3.94-5.48a7.89,7.89,0,0,1,4.29-2.3c1-.1,3,1.23,3.21,2.18A64.61,64.61,0,0,1,27.9,30c0,1.85-.51,3.7-.59,5.55s.12,3.44.24,6c-3.27-2.18-2.45-4.89-2.51-7.26-.12-4.46-.2-8.93-.29-13.39l-1.6-.58a36.61,36.61,0,0,0-3.86,4.87C17.52,28.34,15,31.24,15.7,35.42c.14.84-1,1.89-1.48,2.85a11.4,11.4,0,0,1-1.13-2.89c-.36-3.46-.52-6.93-.77-10.4a8.47,8.47,0,0,1-.2-2.76A8.11,8.11,0,0,1,13.78,20a8.49,8.49,0,0,1,1.61,2C15.69,22.74,15.55,23.69,15.66,25.41Z"/></svg>