<svg id="_2NDALLCAPS" data-name="2NDALLCAPS" xmlns="http://www.w3.org/2000/svg" viewBox="0 0 39.6 90.72"><title>superfunfontprojeeeect</title><path d="M24.73,33.47C26.52,36,28.1,38,29.43,40.23c.33.54-.16,1.58-.27,2.39-.8-.17-1.6-.33-2.4-.51-.09,0-.14-.18-.22-.26-1.49-1.46-2.93-4-4.5-4.09-1.73-.1-3.58,2.05-5.37,3.25-1.53,1-3.25,2.61-4.82.69a8,8,0,0,1-1.78-5.08c.14-2.31,1.29-4.59,4.2-4.68a11.77,11.77,0,0,1,3.77.33c3.07.94,4.46-.84,5.44-3.24.7-1.72,1.6-3.52,1.63-5.3s-.64-5-1.47-5.18c-2.11-.42-4.51.41-6.73,1-.61.16-1,1.14-1.56,1.78-1.85-3-.83-5.3,2.71-6a20.17,20.17,0,0,1,5.83-.14c2.63.29,3.87,2.1,4.19,4.73A19.74,19.74,0,0,1,25.7,31.67C25.27,32.48,24.84,33.28,24.73,33.47Zm-6.81,2.41-.41-1c-1.45.26-3.14.15-4.26.91-.69.47-.49,2.27-.68,3.48l1,.44Z"/></svg>