<svg id="_2NDALLCAPS" data-name="2NDALLCAPS" xmlns="http://www.w3.org/2000/svg" viewBox="0 0 39.6 90.72"><title>superfunfontprojeeeect</title><path d="M14.13,15,15.62,17c1.28-.78,2.55-2,4-2.32,1-.24,2.28.59,3.29,1.2.32.19.3,1.74.16,1.79a7.23,7.23,0,0,1-2.7.39c-5.08-.36-6,1.11-5.23,8.39a15.81,15.81,0,0,0,2.74-1.38c2.37-1.84,4.49-2,6.69.35,1.82,1.94,3.42,7,1.87,8.45a22,22,0,0,1-7.8,4.69,2.44,2.44,0,0,1-3-2.65,44.83,44.83,0,0,0,6.27-2.42,3.6,3.6,0,0,0,1.58-2.83c-.15-1.21-1-2.85-2-3.26-.72-.3-2.11,1.09-3.22,1.69-1.74.94-3.49,1.86-5.74,3.06V15.48Z"/></svg>