<?xml version="1.0" standalone="no"?>
<!DOCTYPE svg PUBLIC "-//W3C//DTD SVG 1.1//EN" "http://www.w3.org/Graphics/SVG/1.1/DTD/svg11.dtd" >
<svg>
<font id="Typeface" horiz-adv-x="73" >
<font-face units-per-em="100" ascent="80" descent="-20" />
<glyph unicode=" " horiz-adv-x="73" d="" />
<glyph unicode="!" horiz-adv-x="12" d="M-15.499662083000000 44.863675268800002 C-15.499662082999976 40.251419865000003 -15.381399123999984 36.348742215599998 -15.499662082999976 32.327801607200001 C-15.736188001199992 26.769442530800006 -16.090976878399999 21.092820495399991 -16.564028714699987 15.534461418999996 C-16.682291673800023 14.351831828299993 -17.864921264500026 13.405728155699990 -18.574499018899985 12.341361524099995 C-19.165813814300009 13.523991114799998 -20.348443405000012 14.588357746399993 -20.348443405000012 15.770987337099996 C-19.993654527800004 23.339816717699989 -19.165813814300009 31.026909057399990 -18.811024937100001 38.595738438000012 C-18.811024937100001 40.724471701299990 -20.821495241299999 43.444519759900004 -15.499662082999976 44.863675268799994 zM-15.026610246800001 7.256054284000000 C-16.682291673800023 6.191687652300004 -18.101447182599998 4.772532143500001 -18.574499018899985 5.009058061600001 C-19.638865650599996 5.718635815999988 -20.230180445899975 7.137791324900007 -21.058021159400027 8.320420915600010 C-20.111917486799996 8.911735711000006 -19.165813814300009 10.212628260799988 -18.456236059800005 10.094365301700009 C-17.273606469100002 9.857839383499993 -16.445765755600007 8.556946833799998 -15.026610246799976 7.256054283999987 z" />
<glyph unicode="&#x22;" horiz-adv-x="52" d="M16.194320486799999 41.814046359999999 C15.994320486800007 46.114046360000003 15.694320486799995 50.514046360000009 15.594320486799973 54.814046359999992 C15.594320486799973 55.214046359999998 16.794320486800018 56.114046360000003 17.294320486800018 56.014046360000009 C17.994320486800007 55.814046359999992 18.994320486800007 54.914046359999986 18.994320486800007 54.414046359999986 C18.994320486800007 51.014046360000009 18.894320486799984 47.614046360000003 18.694320486799995 44.214046359999998 C18.594320486799973 43.314046359999992 18.194320486799995 42.514046360000009 17.894320486799984 41.714046359999998 C17.294320486800018 41.614046360000003 16.794320486800018 41.714046359999998 16.194320486799995 41.814046359999992 zM22.194320486799999 41.414046360000000 C21.794320486800018 42.414046359999986 20.994320486800007 43.414046359999986 20.994320486800007 44.414046359999986 C21.294320486800018 47.014046360000009 21.894320486799984 49.614046360000003 22.494320486800007 52.214046359999998 C22.594320486799973 52.714046359999998 23.894320486799984 53.614046360000003 24.094320486799973 53.414046359999986 C24.794320486800018 53.014046360000009 25.694320486799995 52.114046360000003 25.594320486799973 51.514046360000009 C25.094320486799973 48.114046360000003 24.394320486799984 44.814046359999992 23.794320486800018 41.414046359999986 C23.294320486800018 41.414046359999986 22.694320486799995 41.414046359999986 22.194320486799995 41.414046359999986 z" />
<glyph unicode="#" horiz-adv-x="56" d="M20.838354692100001 17.091324399000001 C20.538354692100029 19.091324399000001 20.338354692099983 21.091324399000001 20.038354692100029 22.691324398999996 C18.638354692099995 23.491324399000007 17.238354692100017 24.391324398999984 15.738354692100017 25.291324398999990 C17.538354692100029 26.091324399000001 19.338354692099983 26.891324398999984 21.038354692100029 27.691324398999996 C21.238354692100017 27.491324399000007 21.438354692100006 27.191324398999996 21.638354692099995 26.991324399000007 C21.838354692099983 28.191324398999996 22.038354692100029 29.391324398999984 22.138354692099995 30.391324398999984 C19.638354692099995 30.791324398999990 17.438354692100006 31.091324399000001 15.138354692099995 31.491324399000007 C15.038354692100029 32.091324399000001 15.038354692100029 32.691324398999996 14.938354692100006 33.391324398999984 C16.538354692100029 33.991324399000007 18.138354692099995 35.091324399000001 19.638354692099995 35.091324399000001 C22.338354692099983 34.891324398999984 23.938354692100006 35.691324398999996 23.738354692100017 39.391324398999984 C25.038354692099972 38.491324399000007 26.238354692100017 38.091324399000001 26.438354692100006 37.491324399000007 C27.338354692099983 33.191324398999996 27.338354692099983 33.191324398999996 31.438354692100006 34.091324399000001 C32.538354692100029 38.191324398999996 32.538354692100029 38.191324398999996 34.638354692099995 37.991324399000007 C35.738354692100017 34.991324399000007 36.738354692100017 32.391324398999984 37.638354692099995 29.691324398999996 C36.438354692100006 29.191324398999996 35.338354692099983 28.591324399000001 34.538354692100029 28.291324398999990 C35.738354692100017 26.691324398999996 36.638354692099995 25.491324399000007 37.538354692100029 24.291324398999990 C36.438354692100006 23.791324398999990 35.238354692100017 23.291324398999990 34.538354692100029 22.991324399000007 C33.338354692099983 21.591324399000001 32.338354692099983 20.391324398999984 31.338354692099983 19.191324398999996 C31.038354692099972 19.391324398999984 30.738354692100017 19.591324399000001 30.438354692100006 19.791324398999990 C30.638354692099995 20.891324398999984 30.838354692099983 21.991324399000007 31.038354692099972 23.591324399000001 C28.638354692099995 23.791324399000018 26.338354692099983 23.891324398999984 24.138354692099995 24.091324399000001 C23.638354692099995 21.491324399000007 23.138354692099995 19.291324398999990 22.738354692100017 17.091324399000001 C22.138354692099995 16.991324399000007 21.438354692100006 16.991324399000007 20.838354692099983 17.091324399000001 zM30.738354692100000 26.791324399000001 C30.938354692100006 30.591324399000001 30.538354692099972 30.791324398999990 25.238354692100017 30.391324398999984 C24.938354692100006 29.391324398999984 24.638354692099995 28.291324398999990 24.238354692100017 26.691324398999996 C26.638354692099995 26.791324398999990 28.638354692099995 26.791324398999990 30.738354692100017 26.791324398999990 zM20.838354692100001 17.091324399000001 C20.538354692100029 19.091324399000001 20.338354692099983 21.091324399000001 20.038354692100029 22.691324398999996 C18.638354692099995 23.491324399000007 17.238354692100017 24.391324398999984 15.738354692100017 25.291324398999990 C17.538354692100029 26.091324399000001 19.338354692099983 26.891324398999984 21.038354692100029 27.691324398999996 C21.238354692100017 27.491324399000007 21.438354692100006 27.191324398999996 21.638354692099995 26.991324399000007 C21.838354692099983 28.191324398999996 22.038354692100029 29.391324398999984 22.138354692099995 30.391324398999984 C19.638354692099995 30.791324398999990 17.438354692100006 31.091324399000001 15.138354692099995 31.491324399000007 C15.038354692100029 32.091324399000001 15.038354692100029 32.691324398999996 14.938354692100006 33.391324398999984 C16.538354692100029 33.991324399000007 18.138354692099995 35.091324399000001 19.638354692099995 35.091324399000001 C22.338354692099983 34.891324398999984 23.938354692100006 35.691324398999996 23.738354692100017 39.391324398999984 C25.038354692099972 38.491324399000007 26.238354692100017 38.091324399000001 26.438354692100006 37.491324399000007 C27.338354692099983 33.191324398999996 27.338354692099983 33.191324398999996 31.438354692100006 34.091324399000001 C32.538354692100029 38.191324398999996 32.538354692100029 38.191324398999996 34.638354692099995 37.991324399000007 C35.738354692100017 34.991324399000007 36.738354692100017 32.391324398999984 37.638354692099995 29.691324398999996 C36.438354692100006 29.191324398999996 35.338354692099983 28.591324399000001 34.538354692100029 28.291324398999990 C35.738354692100017 26.691324398999996 36.638354692099995 25.491324399000007 37.538354692100029 24.291324398999990 C36.438354692100006 23.791324398999990 35.238354692100017 23.291324398999990 34.538354692100029 22.991324399000007 C33.338354692099983 21.591324399000001 32.338354692099983 20.391324398999984 31.338354692099983 19.191324398999996 C31.038354692099972 19.391324398999984 30.738354692100017 19.591324399000001 30.438354692100006 19.791324398999990 C30.638354692099995 20.891324398999984 30.838354692099983 21.991324399000007 31.038354692099972 23.591324399000001 C28.638354692099995 23.791324399000018 26.338354692099983 23.891324398999984 24.138354692099995 24.091324399000001 C23.638354692099995 21.491324399000007 23.138354692099995 19.291324398999990 22.738354692100017 17.091324399000001 C22.138354692099995 16.991324399000007 21.438354692100006 16.991324399000007 20.838354692099983 17.091324399000001 zM30.738354692100000 26.791324399000001 C30.938354692100006 30.591324399000001 30.538354692099972 30.791324398999990 25.238354692100017 30.391324398999984 C24.938354692100006 29.391324398999984 24.638354692099995 28.291324398999990 24.238354692100017 26.691324398999996 C26.638354692099995 26.791324398999990 28.638354692099995 26.791324398999990 30.738354692100017 26.791324398999990 z" />
<glyph unicode="$" horiz-adv-x="56" d="M32.621906693699998 41.408113590299997 C31.121906693699998 46.008113590300013 24.121906693699998 48.408113590299990 21.021906693699975 43.808113590299996 C18.621906693699998 40.308113590299996 20.421906693700009 35.308113590299996 24.221906693700021 33.708113590300002 C28.221906693700021 32.008113590300013 33.521906693699975 32.808113590299996 35.521906693699975 28.108113590300007 C37.021906693699975 24.708113590300002 35.221906693700021 20.808113590299996 32.521906693699975 18.708113590300002 C27.921906693700009 15.208113590300002 21.821906693699987 17.208113590300002 17.121906693699998 19.408113590299990 C15.321906693699987 20.208113590300002 16.921906693700009 22.808113590299996 18.621906693699998 22.008113590300013 C21.921906693700009 20.408113590299990 26.421906693700009 18.508113590300013 30.021906693699975 20.608113590300007 C33.721906693700021 22.708113590300002 34.021906693699975 27.208113590300002 29.921906693700009 29.208113590300002 C27.221906693700021 30.508113590300013 24.121906693699998 30.208113590300002 21.521906693699975 31.808113590299996 C18.021906693699975 34.008113590300013 16.521906693699975 38.508113590300013 17.421906693700009 42.408113590299990 C19.621906693699998 52.108113590300007 32.821906693699987 50.708113590300002 35.721906693700021 42.308113590299996 C36.321906693699987 40.408113590299990 33.421906693700009 39.608113590300007 32.621906693699998 41.408113590299990 zM28.621906693700002 54.108113590300000 C25.021906693699975 40.508113590300013 23.421906693700009 26.608113590300007 23.921906693700009 12.508113590300013 C24.021906693699975 10.608113590300007 21.021906693699975 10.608113590300007 20.921906693700009 12.508113590300013 C20.421906693700009 26.908113590299990 22.021906693699975 41.108113590300007 25.721906693700021 54.908113590299990 C26.221906693700021 56.808113590299996 29.121906693699998 56.008113590300013 28.621906693699998 54.108113590300007 z" />
<glyph unicode="%" horiz-adv-x="56" d="M12.129817444200000 11.249087221100000 C12.229817444200023 12.549087221099995 11.929817444200012 14.049087221099995 12.529817444199978 14.949087221100001 C17.529817444199978 23.449087221100001 22.629817444200000 31.849087221100007 27.729817444200023 40.249087221100012 C30.029817444199978 44.049087221099995 32.429817444200012 47.949087221100001 35.029817444199978 51.649087221099990 C35.529817444199978 52.349087221100007 37.029817444199978 52.449087221100001 38.029817444199978 52.749087221100012 C37.929817444200012 51.649087221099990 38.229817444200023 50.249087221100012 37.629817444200000 49.449087221100001 C29.529817444199978 37.949087221100001 21.329817444199989 26.549087221099995 15.329817444199989 13.849087221100007 C14.829817444199989 12.849087221100007 14.129817444200000 11.949087221100001 13.529817444199978 10.949087221100001 C13.029817444199978 11.049087221099995 12.629817444200000 11.149087221099990 12.129817444200000 11.249087221100012 zM33.929817444199998 30.549087221099999 C36.229817444200023 30.649087221099990 39.029817444199978 27.449087221100001 38.129817444200000 25.249087221100012 C37.229817444200023 22.849087221100007 35.729817444200023 20.549087221099995 34.329817444199989 18.249087221100012 C32.629817444200000 15.549087221099995 29.929817444200012 15.849087221100007 27.929817444200012 17.249087221100012 C26.629817444200000 18.149087221099990 25.529817444199978 20.749087221100012 25.629817444200000 22.449087221100001 C25.929817444200012 27.649087221099990 29.029817444199978 30.449087221099973 33.929817444200012 30.549087221099995 zM28.529817444199999 21.549087221099999 C28.929817444200012 21.149087221099990 29.629817444200000 20.049087221099995 30.529817444199978 19.849087221100007 C32.129817444200000 19.349087221100007 35.029817444199978 22.649087221099990 35.029817444199978 25.149087221099990 C35.029817444199978 25.749087221100012 34.029817444199978 26.849087221100007 33.329817444199989 27.049087221099995 C31.629817444200000 27.449087221100001 28.829817444199989 24.649087221099990 28.529817444199978 21.549087221099995 zM14.629817444200000 37.949087221100001 C12.429817444200012 45.549087221099995 13.629817444200000 48.249087221100012 19.929817444200012 50.849087221100007 C22.729817444200023 52.049087221099995 25.329817444199989 50.249087221100012 25.329817444199989 47.249087221100012 C25.329817444199989 40.649087221099990 21.129817444200000 37.049087221099995 14.629817444200000 37.949087221100001 zM16.165821501000000 43.097722210999997 C16.565821501000016 42.697722210999984 17.265821501000005 41.597722210999990 18.165821500999982 41.397722211000001 C19.765821501000005 40.897722211000001 22.665821500999982 44.197722210999984 22.665821500999982 46.697722210999984 C22.665821500999982 47.297722211000007 21.665821500999982 48.397722211000001 20.965821500999994 48.597722210999990 C19.265821501000005 48.997722210999996 16.465821500999994 46.197722210999984 16.165821500999982 43.097722210999990 z" />
<glyph unicode="&#x26;" horiz-adv-x="56" d="M34.695131845799999 11.549087221100001 C32.595131845799983 7.549087221099995 29.195131845800006 6.549087221099995 25.495131845800017 5.849087221100007 C22.695131845800006 5.249087221100012 20.995131845800017 6.349087221100007 19.795131845800029 8.549087221099995 C15.395131845799995 16.049087221099995 15.795131845799972 18.749087221100012 21.395131845799995 25.649087221099990 C24.395131845799995 29.249087221100012 24.795131845799972 33.949087221100001 22.395131845799995 37.849087221100007 C20.495131845800017 40.949087221100001 20.595131845799983 46.249087221100012 23.295131845800029 48.649087221099990 C25.495131845800017 50.549087221099995 27.595131845799983 52.549087221099995 31.195131845800006 52.649087221099990 C34.895131845799995 52.749087221100012 37.295131845800029 51.149087221099990 38.395131845799995 48.649087221099990 C39.295131845800029 46.749087221100012 38.695131845800006 43.449087221100001 37.595131845799983 41.449087221100001 C35.895131845799995 38.249087221100012 33.395131845799995 35.349087221100007 30.895131845799995 32.749087221100012 C28.795131845799972 30.549087221099995 28.195131845800006 28.649087221099990 30.195131845800006 25.949087221100001 C32.395131845799995 28.849087221100007 34.295131845800029 25.749087221100012 36.295131845800029 25.749087221100012 C38.395131845799995 25.649087221099990 40.595131845799983 26.749087221100012 42.895131845799995 27.349087221100007 C44.695131845800006 21.349087221100007 39.895131845799995 18.049087221099995 37.795131845800029 13.349087221100007 C38.995131845800017 10.349087221100007 41.795131845800029 12.049087221099995 44.095131845799983 11.849087221100007 C44.895131845799995 11.749087221100012 45.695131845800006 11.649087221099990 46.495131845800017 11.549087221099995 C45.995131845800017 10.849087221100007 45.695131845800006 10.149087221099990 45.095131845799983 9.549087221099995 C41.395131845799995 6.249087221100012 39.595131845799983 6.349087221100007 36.295131845800029 9.949087221100001 C35.995131845800017 10.349087221100007 35.495131845800017 10.749087221100012 34.695131845800006 11.549087221099995 zM26.695131845799999 34.049087221100002 C26.995131845800017 33.849087221100007 27.395131845799995 33.749087221100012 27.695131845800006 33.549087221099995 C30.195131845800006 36.749087221100012 32.995131845800017 39.849087221100007 35.195131845800006 43.249087221100012 C36.695131845800006 45.449087221100001 35.295131845800029 48.349087221100007 33.095131845799983 48.849087221100007 C29.995131845800017 49.549087221099995 26.695131845800006 47.949087221100001 24.995131845800017 45.049087221099995 C22.495131845800017 40.649087221099990 25.995131845800017 37.649087221099990 26.695131845800006 34.049087221099995 zM39.695131845799999 21.949087221100001 C36.695131845800006 21.949087221100001 34.595131845799983 21.949087221100001 32.495131845800017 21.949087221100001 C33.395131845799995 20.049087221099995 34.195131845800006 18.249087221100012 35.495131845800017 15.649087221099990 C36.995131845800017 17.849087221100007 38.195131845800006 19.649087221099990 39.695131845800006 21.949087221100001 zM25.947261663300001 25.769776876300000 C25.947261663300026 25.769776876300000 20.348884381300024 20.066244586399989 20.348884381300024 16.439148073000013 C20.348884381300024 16.439148073000013 23.559775761699996 10.094320486800001 26.507099391499992 10.094320486800001 C30.108421813300026 10.094320486800001 32.478701825600012 10.633423596200004 32.478701825600012 14.386409736300010 C32.478701825600012 15.135447397700005 32.665314401599971 16.625750649099984 32.665314401599971 16.625760649099988 C32.665314401599971 20.234139989499994 26.320486815399988 25.396551724099993 26.320486815399988 25.396551724099993 C26.196078431399997 25.520960108200001 26.040567951299977 25.676470588200004 25.947261663300026 25.769776876300000 z" />
<glyph unicode="'" horiz-adv-x="56" d="M24.974147709099999 45.838682674399998 C24.870404771100027 43.556338039600007 24.766661833199976 41.377736342800006 24.662918895199994 39.095391708100010 C24.559175957299999 37.642990576899990 22.173088384600021 37.642990576899990 22.276831322500016 39.095391708100010 C22.380574260499998 41.377736342800006 22.484317198399992 43.556338039600007 22.588060136399974 45.838682674399990 C22.588060136399974 47.394826743599992 24.974147709100009 47.394826743599992 24.974147709100009 45.838682674399990 z" />
<glyph unicode="(" horiz-adv-x="56" d="M29.408519269799999 6.927003482300000 C28.708519269799979 6.927003482299995 27.808519269800001 6.627003482300012 27.208519269799979 6.927003482299995 C23.208519269799979 8.327003482300000 17.208519269799979 12.927003482299995 16.708519269799979 18.927003482299995 C16.008519269799990 29.627003482300012 18.908519269800024 39.027003482300017 24.908519269800024 47.627003482299983 C26.108519269800013 49.327003482300000 28.008519269799990 50.627003482299983 29.508519269799990 52.127003482299983 C29.808519269800001 52.027003482300017 30.108519269800013 51.927003482299995 30.408519269800024 51.827003482300000 C30.108519269800013 50.927003482299995 30.108519269800013 49.727003482300006 29.508519269799990 49.027003482300017 C23.408519269800024 42.727003482300006 20.708519269799979 34.627003482299983 19.708519269799979 26.227003482300006 C19.008519269799990 19.927003482299995 20.608519269800013 13.927003482299995 26.808519269800001 10.527003482299989 C28.008519269799990 9.927003482299995 28.808519269800001 8.727003482300006 29.808519269800001 7.727003482300006 C29.708519269799979 7.427003482299995 29.508519269799990 7.227003482300006 29.408519269800024 6.927003482299995 z" />
<glyph unicode=")" horiz-adv-x="56" d="M22.332400426800000 50.819055603099997 C23.032400426799995 50.819055603099997 23.932400426799973 51.119055603100009 24.532400426799995 50.819055603099997 C28.532400426799995 49.419055603099991 34.632400426800018 44.919055603099991 35.032400426799995 38.919055603099991 C35.832400426800007 28.119055603100009 32.932400426800029 18.719055603100003 26.932400426799973 10.119055603100009 C25.732400426799984 8.419055603099991 23.832400426800007 7.119055603100009 22.332400426800007 5.619055603100009 C22.032400426799995 5.719055603100003 21.732400426799984 5.819055603099997 21.432400426799973 5.919055603099991 C21.732400426799984 6.819055603099997 21.732400426799984 8.019055603100014 22.332400426800007 8.719055603100003 C28.532400426799995 15.019055603100014 31.132400426800018 23.119055603100009 32.032400426799995 31.619055603100009 C32.732400426799984 37.919055603099991 31.132400426800018 43.819055603099997 24.832400426800007 47.319055603099997 C23.632400426800018 47.919055603099991 22.832400426800007 49.119055603100009 21.832400426800007 50.119055603100009 C22.032400426799995 50.219055603100003 22.132400426800018 50.519055603100014 22.332400426800007 50.819055603099997 z" />
<glyph unicode="*" horiz-adv-x="56" d="M18.474645030399998 57.852129817399998 C20.174645030399972 58.752129817400004 22.374645030400018 60.452129817399992 23.474645030399984 56.652129817400009 C24.374645030400018 56.952129817399992 25.874645030400018 57.052129817399987 26.074645030400006 57.652129817400009 C26.774645030399995 59.952129817399992 27.074645030400006 62.352129817399998 27.474645030399984 65.152129817400009 C31.174645030399972 63.252129817400004 28.574645030400006 60.652129817400009 28.774645030399995 59.352129817399998 C30.874645030400018 58.652129817400009 33.974645030399984 58.252129817400004 34.074645030400006 57.452129817399992 C34.574645030400006 53.752129817400004 30.574645030400006 55.852129817399998 29.274645030399995 54.352129817399998 C30.474645030399984 53.452129817399992 31.674645030399972 52.452129817399992 32.874645030400018 51.552129817399987 C31.274645030399995 51.252129817400004 29.774645030399995 50.952129817399992 27.974645030399984 50.652129817400009 C27.574645030400006 49.752129817400004 27.074645030400006 48.552129817399987 26.474645030399984 47.252129817400004 C26.174645030399972 47.352129817399998 25.974645030399984 47.352129817399998 25.674645030399972 47.452129817399992 C25.574645030400006 47.952129817399992 25.174645030399972 48.452129817399992 25.274645030399995 48.852129817399998 C25.574645030400006 51.852129817399998 24.874645030400018 53.352129817399998 21.474645030399984 52.052129817399987 C21.074645030400006 51.852129817399998 19.774645030399995 52.852129817399998 19.474645030399984 53.652129817400009 C19.074645030400006 54.852129817399998 18.874645030400018 56.252129817400004 18.474645030399984 57.852129817399998 z" />
<glyph unicode="+" horiz-adv-x="56" d="M28.247870182600000 33.497971602400000 C28.647870182600002 30.897971602399991 29.047870182599979 28.797971602399997 29.247870182600025 26.697971602400003 C29.347870182599991 25.897971602399991 29.047870182599979 24.997971602400014 28.447870182600013 24.397971602399991 C28.047870182599979 23.997971602400014 26.747870182600025 23.697971602400003 26.347870182599991 23.897971602399991 C25.747870182600025 24.297971602399997 25.147870182600002 25.297971602399997 25.147870182600002 25.997971602400014 C25.247870182600025 28.197971602400003 25.647870182600002 30.397971602399991 26.047870182599979 32.997971602400014 C23.547870182599979 33.097971602400008 21.347870182599991 33.197971602400003 18.747870182600025 33.297971602399997 C19.447870182600013 37.997971602400014 23.547870182599979 34.697971602400003 25.847870182599991 36.797971602399997 C27.447870182600013 38.797971602399997 23.647870182600002 43.497971602400014 29.547870182599979 44.997971602400014 C29.547870182599979 42.197971602400003 29.547870182599979 39.597971602400008 29.547870182599979 36.897971602399991 C31.147870182600002 36.797971602399997 32.747870182600025 36.897971602399991 34.247870182600025 36.597971602400008 C35.047870182599979 36.397971602399991 35.647870182600002 35.497971602400014 36.247870182600025 34.797971602399997 C35.447870182600013 34.397971602399991 34.747870182600025 33.597971602400008 33.947870182600013 33.497971602400014 C32.447870182600013 33.297971602399997 30.847870182599991 33.497971602400014 28.247870182600025 33.497971602400014 z" />
<glyph unicode="," horiz-adv-x="56" d="M25.580975226200000 3.502757682700000 C25.063826598700018 3.502757682700008 24.029529343799993 3.890619153300008 24.546677971199983 4.537054937600004 C25.580975226199996 5.700639349400006 26.227411010500020 6.993510918100014 26.356698167399998 8.674243957399995 C26.485985324199987 9.191392584800013 26.485985324199987 9.708541212299991 26.356698167399998 10.096402682899992 C26.356698167399998 10.225689839799998 25.968836696799997 10.872125624099994 25.968836696799997 11.001412780999999 C26.227411010500020 11.130699937799989 26.356698167399998 11.259987094699994 26.615272481100021 11.389274251600000 C26.744559637999998 11.259987094699994 26.744559637999998 11.001412780999999 26.873846794799988 10.872125624099994 C27.132421108599999 10.613551310399998 27.261708265499976 10.484264153499993 27.778856892900023 10.225689839799998 C28.554579834100025 9.837828369199997 27.908144049800001 9.062105427999995 27.390995422300023 8.803531114200013 C26.615272481100021 8.415669643600012 25.451688069300019 8.027808173000011 24.675965128100017 8.544956800499989 C23.383093559399981 9.191392584800013 22.219509147599979 10.484264153499993 23.253806402599992 11.906422878999990 C24.158816500599983 13.199294447699998 26.356698167399998 13.716443075200004 27.778856892900023 13.328581604600004 C31.916045912699985 12.294284349599991 29.847451402800004 6.605649447500014 28.037431206699978 4.407767780799986 C27.520282579200000 3.761331996400003 26.485985324199987 3.373470525800002 25.580975226199996 3.502757682700008 z" />
<glyph unicode="-" horiz-adv-x="56" d="M15.675456389500001 27.042190669400000 C15.775456389499993 27.442190669399992 15.875456389500016 28.542190669399986 16.075456389500005 29.542190669399986 C21.775456389499993 29.842190669399997 27.175456389500027 30.342190669400026 32.675456389500027 30.442190669399992 C33.675456389500027 30.442190669399992 34.775456389499993 29.342190669399997 35.875456389500016 28.742190669400003 C34.675456389500027 28.142190669400009 33.575456389500005 27.142190669400009 32.375456389500016 27.042190669399986 C26.975456389499982 26.942190669399963 21.575456389500005 27.042190669399986 15.675456389500027 27.042190669399986 z" />
<glyph unicode="." horiz-adv-x="56" d="M30.676701276799999 10.891669522700001 C29.488704471300025 11.452719473099990 28.183469397900012 11.754416144599986 28.150123976399982 12.105866302200013 C28.217344111899990 12.892394817600007 28.878694973300014 13.770755565499996 29.188595677100011 14.615770891799997 C29.924841413900026 14.331011577299989 30.928909108200003 14.213508663200003 31.112838219399976 13.769961626899999 C31.355254141300009 13.083734022399995 30.978397948199984 12.196904595999996 30.676701276799974 10.891669522699999 z" />
<glyph unicode="/" horiz-adv-x="56" d="M13.809330628800000 16.503448275899999 C14.709330628799989 18.403448275899990 15.409330628799978 20.503448275899984 16.709330628799989 22.203448275900001 C20.909330628799978 28.203448275900001 25.409330628799978 34.103448275900007 29.709330628799989 40.103448275900007 C31.209330628799989 42.103448275900007 32.409330628799978 44.403448275899990 33.909330628799978 46.403448275899990 C34.709330628799989 47.503448275899984 35.909330628799978 48.203448275900001 36.909330628799978 49.203448275900001 C37.309330628800012 49.103448275900007 37.609330628800024 48.903448275899990 38.009330628800001 48.803448275899996 C37.709330628799989 47.603448275900007 37.609330628800024 46.203448275900001 37.009330628800001 45.303448275899996 C33.809330628800012 41.003448275899984 30.209330628799989 36.903448275899990 27.109330628800024 32.503448275899984 C23.709330628799989 27.603448275900007 20.809330628800012 22.503448275899984 17.509330628800001 17.603448275900007 C16.909330628799978 16.703448275900001 15.809330628800012 16.203448275900001 15.009330628800001 15.503448275900013 C14.609330628800024 15.803448275899996 14.209330628799989 16.203448275900001 13.809330628800012 16.503448275899984 z" />
<glyph unicode="0" horiz-adv-x="56" d="M19.594320486800001 26.864277848200000 C21.002869006900028 31.976331338400001 22.027267930599976 37.977437609499987 24.460215374299992 43.534017490099984 C26.124863625300009 47.534755004200008 29.966359589100023 48.312676187400001 34.960304341999972 46.534570625599997 C38.545700574900025 45.312123051900016 38.801800305799986 42.200438318799996 38.161550978499974 39.199885183199996 C37.009102189299995 33.198778912100011 36.240802996599996 27.197672641099985 34.576154745599979 21.307697967600006 C33.935905418300024 19.085066015300015 31.759057705500027 16.862434063100011 29.710259858100017 15.195460098900014 C26.893162818000008 12.861696548999987 23.563866316100018 13.750749329900003 22.283367661499994 17.084697258299997 C21.258968737799989 19.974118796200003 20.746769276000009 22.863540334199996 19.594320486799973 26.864277848200004 zM33.586040978599996 43.185745039200000 C28.464046360199973 43.852534624800001 25.006699992800009 42.074429062999997 24.494500530999971 37.851428353800003 C23.726201338199985 31.850322082699989 23.726201338199985 25.849215811600004 23.598151472700010 19.848109540499991 C23.598151472700010 19.070188357200010 25.134749858299983 18.070003978700015 26.287198647399975 17.736609185899994 C26.927447974699987 17.514345990700008 28.335996494799986 18.292267173999988 28.848195956600023 18.959056759600003 C30.000644745700015 20.292635931000007 31.281143400299982 21.737346699999989 31.537243131200000 23.293189066499991 C32.689691920399980 28.960900544800012 33.714090844099985 34.739743620599995 34.482390036799984 40.518586696499995 C34.738489767700003 41.407639477399982 33.842140709499972 42.518955453499984 33.586040978600010 43.185745039200015 z" />
<glyph unicode="1" horiz-adv-x="56" d="M27.854671414799999 38.061881843800002 C26.037725034199980 36.971714015400011 24.947557205800024 36.366065221899987 23.978519136099976 35.760416428300005 C22.767221549099986 39.273179430799985 27.006763103799983 45.814186401100017 30.035007071499990 45.329667366199999 C31.004045141199981 45.208537607500006 32.336472486999980 43.270461468199983 32.336472486999980 42.180293639799999 C32.215342728300016 36.366065221899987 31.851953452100020 30.672966562600010 31.125174899900003 24.858738144600011 C30.640655865099973 21.224845383400009 30.156136830200012 17.954341898300015 34.395678384999997 15.895136000299999 C32.094212969500006 12.745762273899999 29.308228519299973 11.655594445500014 25.916595275500015 12.382372997700003 C24.826427447100002 12.624632515200005 23.978519136099976 14.199319378399991 23.130610825199994 15.168357447999995 C23.857389377400011 15.895136000299999 24.705297688399980 16.500784793799994 25.310946481899975 17.348693104799992 C26.279984551600023 18.802250209199997 27.733541656099987 20.255807313699989 27.854671414800009 21.830494176900004 C28.096930932199996 27.039073801400008 27.854671414800009 32.368783184499989 27.854671414800009 38.061881843799995 z" />
<glyph unicode="2" horiz-adv-x="56" d="M33.923290192400003 23.200491154400002 C36.168462695599999 20.082196011099995 38.164171587300018 17.462828090800002 39.785685061799995 14.718728364700013 C40.159880478999980 14.095069335999995 39.536221450299990 12.723019472999994 39.411489644600010 11.725165027099990 C38.413635198699978 11.974628638599995 37.415780752899991 12.099360444300004 36.417926307000016 12.348824055800009 C36.293194501299979 12.348824055800009 36.293194501299979 12.598287667199997 36.168462695599999 12.723019472999994 C34.297485609600017 14.593996558899988 32.551240329400002 17.712291702199991 30.555531437699983 17.837023507900000 C28.435090740199996 17.961755313699996 26.065186431299992 15.217655587600007 23.820013928100025 13.845605724499990 C21.949036842199973 12.598287667199997 19.703864339000006 10.602578775500007 17.832887253000024 12.972483084400011 C16.460837389999995 14.593996558899988 15.462982944100020 17.213364479299997 15.587714749899988 19.333805176699997 C15.712446555600025 22.202636708600011 17.209228224400022 25.071468240400009 20.826450590600018 25.196200046099989 C22.447964065099995 25.196200046099989 24.069477539599973 25.196200046099989 25.566259208400027 24.822004628900004 C29.432945186100028 23.699418377299992 31.179190466299985 25.819859074800007 32.301776717899997 28.813422412299985 C33.174899358000005 30.933863109800001 34.297485609600017 33.179035612900009 34.297485609600017 35.424208116100004 C34.297485609600017 37.669380619300000 33.549094775199990 41.660798402700010 32.426508523599978 41.910262014099999 C29.807140603300013 42.409189237100009 26.813577265700019 41.411334791200005 24.069477539599973 40.662943956800007 C23.321086705200003 40.413480345399989 22.822159482299980 39.290894093800006 22.073768647900010 38.417771453699999 C19.828596144699986 42.159725625600004 21.075914201999979 45.028557157400002 25.441527402699990 45.901679797599996 C27.811431711599994 46.400607020499990 30.306067826199978 46.275875214800010 32.675972135099983 46.026411603300005 C35.918999084099994 45.652216186099992 37.540512558599971 43.407043682899996 37.914707975800013 40.164016733899985 C38.538367004500003 34.925280893200011 37.291048947200011 30.060740469600006 34.921144638300007 25.570395463300002 C34.546949221100022 24.447809211699990 34.048021998100012 23.449954765900003 33.923290192399975 23.200491154399998 zM25.530159387299999 20.915983693499999 C25.405427581500021 21.290179110699995 25.155963970100004 21.789106333700005 25.031232164299979 22.163301750899990 C23.160255078399985 21.789106333700005 21.039814380899998 21.913838139400013 19.667764517900025 21.040715499300006 C18.794641877699974 20.417056470599988 19.044105489199978 18.171883967500008 18.794641877699974 16.675102298700011 C19.168837294900015 16.550370492900015 19.667764517900025 16.300906881499998 20.041959935100010 16.176175075700002 C21.912937021000005 17.672956744499999 23.659182301300007 19.294470219000004 25.530159387299989 20.915983693500010 z" />
<glyph unicode="3" horiz-adv-x="56" d="M23.342368689099999 17.349341607900001 C24.920719670499977 17.592164835799991 26.499070651900013 18.077811291600000 28.077421633299991 18.199222905600010 C33.298121033299992 18.320634519500004 36.333411382099996 24.269803603199989 34.269413944900009 28.519210091600002 C33.662355875099990 29.854737845100004 30.262830684400001 29.733326231200010 28.077421633299991 30.340384300899984 C26.863305493700011 30.704619142799999 25.649189354200018 31.311677212599989 24.435073214700026 31.675912054399987 C25.284954512299976 32.890028193999996 26.013424196100004 34.225555947499998 26.984717107700021 35.196848859099987 C27.591775177499983 35.803906928799989 28.927302930899998 35.925318542799999 29.412949386799994 36.532376612599990 C30.384242298400011 38.110727593999997 30.991300368199973 39.810490189299998 31.719770051900014 41.510252784700015 C29.777184228599992 41.995899240499995 27.834598405400016 42.967192152099983 26.134835810000027 42.602957310299985 C23.949426758799973 42.238722468399999 22.006840935599996 40.538959873000010 19.821431884399999 39.689078575400004 C18.850138972799982 39.324843733500018 17.514611219299979 39.689078575400004 16.421906693700009 39.810490189299998 C16.907553149500018 40.781783101000002 17.028964763499971 42.238722468399999 17.757434447200012 42.724368924200007 C21.035548023999979 44.302719905599986 24.313661600700016 46.123894114899997 27.713186791400005 46.852363798600010 C29.777184228599992 47.216598640499996 33.298121033299992 46.123894114899997 34.148002330999986 44.545543133499990 C35.240706856500026 42.481545696300003 34.390825558900019 39.446255347499999 34.148002330999986 36.775199840499994 C34.026590716999976 36.046730156800010 33.298121033299992 35.439672086999991 32.691062963499974 34.225555947499998 C37.061881065799980 33.618497877700008 38.397408819299983 30.947442370700003 38.518820433299993 27.062270724200005 C38.640232047200016 21.477336482299989 36.576234610000029 16.742283538099997 31.719770051900014 14.435462873000006 C29.412949386799994 13.464169961399989 26.134835810000027 14.921109328800014 23.220957075099989 15.285344170700000 C23.342368689099999 15.892402240400003 23.342368689099999 16.620871924200003 23.342368689099999 17.349341607899987 z" />
<glyph unicode="4" horiz-adv-x="56" d="M23.344391675200001 26.968465663900002 C25.421856127599995 27.228148720500002 27.759003636600028 27.487831776999997 30.355834202200015 27.877356361900013 C30.355834202200015 33.071017492999999 30.355834202200015 38.134837095899996 30.355834202200015 43.328498227000011 C30.355834202200015 45.925328792599998 31.264724900100020 46.964061018800010 34.121238522300018 45.795487264299993 C34.121238522300018 37.745312511000009 34.121238522300018 29.824979286000001 34.121238522300018 21.774804532800005 C34.121238522300018 19.307815495499995 34.251080050600024 16.710984929900008 34.121238522300018 14.243995892599997 C33.991396994000013 13.464946722900009 32.952664767800002 12.815739081599986 32.173615598100014 12.166531440200004 C31.524407956699974 12.815739081599986 30.615517258800026 13.335105194699992 30.355834202200015 14.114154364299992 C29.706626560799975 16.710984929900008 29.446943504200021 19.437657023800000 28.927577391099987 22.424012174200016 C25.941222240699972 22.034487589299999 22.954867090300013 21.774804532800005 19.449145826800020 21.385279947899988 C19.059621241999992 29.175771644700006 17.241839846099992 36.446897228300003 19.189462770200009 43.718022811899999 C23.733916260000001 39.043727793800002 19.449145826800020 32.421809851600017 23.344391675199972 26.968465663899991 z" />
<glyph unicode="5" horiz-adv-x="56" d="M20.294230358900002 45.645213072399997 C20.979483634199994 44.685858487199994 21.664736909400006 43.726503901900003 22.349990184600017 42.767149316600012 C24.131648700100016 43.863554556899999 25.913307215600014 45.508162417400001 27.832016386199996 45.919314382500005 C29.202522936600019 46.193415692600013 30.984181452100017 45.097010452299997 32.354688002499984 44.274706522000002 C32.765839967700003 44.137655867000007 32.765839967700003 41.944845386300017 32.628789312600020 41.944845386300017 C31.395333417199993 41.533693421199985 30.161877521900010 41.259592111100005 28.928421626499983 41.396642766199989 C21.938838219399997 41.944845386300017 20.705382324100015 39.889085560700011 21.801787564400001 29.884387742800016 C23.172294114800025 30.569641017999999 24.542800665199991 30.980792983100002 25.502155250499982 31.803096913300010 C28.791370971499987 34.270008704100007 31.669434727300029 34.544110014099999 34.684549138199998 31.391944948200006 C37.151460928999995 28.787982502399984 39.344271409600026 21.798399095399986 37.288511583999991 19.742639269800009 C34.273397173100022 17.001626168900003 30.435978831999989 14.534714378199993 26.598560490800025 13.301258482799994 C24.268699355100011 12.478954552599987 22.075888874499981 14.945866343299997 22.487040839600013 17.001626168900003 C25.913307215600014 18.235082064300002 28.654320316400003 18.920335339500014 31.121232107200001 20.290841889900008 C32.217637347499988 20.976095165099991 33.451093242900015 22.894804335700002 33.314042587799975 24.128260231100001 C33.039941277699995 25.772868091500015 31.943536037400008 28.102729227200001 30.573029486999985 28.650931847399988 C29.613674901699994 29.062083812499992 27.694965731100012 27.143374641999998 26.187408525699993 26.321070711700003 C23.583446079900000 24.950564161300008 21.253584944199986 23.717108265900009 18.101419878300021 22.072500405400007 C18.101419878300021 30.295539707899991 18.101419878300021 37.696275080100008 18.101419878300021 44.959959797199986 C18.786673153499976 45.234061107299993 19.608977083699983 45.508162417400001 20.294230358899995 45.645213072399997 z" />
<glyph unicode="6" horiz-adv-x="56" d="M32.009464964599999 27.689620217700000 C29.730639319799991 25.170918189300011 27.691690058699976 22.772154352699999 25.292926222099993 20.253452324299985 C24.333420687400007 25.290856381100014 28.171442825999975 31.407704164500018 32.489217731899998 31.167827780799996 C34.408228801199982 31.047889588999993 36.447178062299997 28.649125752400010 38.006374556100013 26.969991066799992 C38.726003707100006 26.010485532100006 39.085818282599973 23.851598079199988 38.486127323400012 22.772154352699999 C36.327239870500023 18.454379446800004 33.088908691100016 14.976171883700005 28.531257401500000 13.177099006300011 C25.292926222099993 11.977717087999991 22.894162385500010 12.697346238899996 20.735274932499976 16.055615610199993 C15.457994492000012 23.971536270999991 19.056140246899986 34.166282576599997 23.134038769100016 40.403068551800004 C23.733729728299977 41.242635894599999 25.412864413900024 41.242635894599999 26.612246332200016 41.602450470099996 C26.492308140399984 40.403068551800004 26.492308140399984 39.083748441599994 26.132493564900017 38.004304715199993 C24.573297071100001 33.806468001100001 22.054595042699987 29.608631287000009 21.574842275300000 25.290856381100014 C21.334965891699994 22.772154352699999 23.613791536500003 18.694255830499998 25.772678989399992 17.614812104000009 C27.571751866900001 16.775244761199986 31.289835813600007 19.174008597799997 33.448723266499996 20.973081475199990 C35.487672527699999 22.772154352699999 35.247796144000006 25.530732764800007 32.009464964599999 27.689620217699996 z" />
<glyph unicode="7" horiz-adv-x="56" d="M20.970543290000002 38.250336224999998 C20.970543290000023 39.212714084200002 20.970543290000023 40.295389175799983 20.970543290000023 41.137469802600009 C24.940351959199972 41.738955964599995 28.669566163500008 42.340442126499994 32.519077600199978 42.701333823699997 C36.488886269299996 43.062225520900000 38.293344755299984 40.776578105400006 37.090372431300011 37.047363900999983 C34.684427783399997 28.867152097999991 32.158185903000003 20.686940294999999 29.511646790300006 12.627025724300012 C29.150755093099974 11.424053400300011 27.827485536700010 10.581972773500013 26.985404909900012 9.499297681999991 C26.865107677500021 10.942864470699988 26.263621515500006 12.506728491899992 26.504215980299989 13.829998048300013 C27.947782769100002 19.965156900599993 29.631944022699997 25.980018520500010 31.195808043800014 32.115177372700003 C31.797294205799972 34.039933091100011 32.158185903000003 35.844391577099998 32.759672065000018 38.250336225000012 C28.789863395899999 38.250336225000012 24.940351959199972 38.250336225000012 20.970543290000023 38.250336225000012 z" />
<glyph unicode="8" horiz-adv-x="56" d="M19.221095334699999 12.004097453200000 C20.796811417599997 16.610036772600012 22.008900712199988 20.125095726799998 23.099781077300008 23.761363610499984 C23.342198936200020 24.488617187199992 23.099781077300008 25.579497552300012 22.736154288900025 26.306751129100007 C20.918020347100025 30.306645801099990 20.675602488200013 34.427749402699988 22.978572147799980 37.942808356900002 C24.311870371900000 40.003360157700001 27.099675749399978 41.094240522799993 29.402645409000002 42.306329817299996 C31.220779350899988 43.276001253000004 33.281331151600000 43.639628041399988 35.584300811300011 44.366881618099995 C38.493315118300018 40.730613734400009 37.887270471000022 37.700390497999990 32.917704363300004 32.124779743000005 C29.281436479600018 28.124885070900007 29.281436479600018 28.124885070900007 33.523749010500012 24.973452905100004 C37.402434753199998 22.064438598099997 35.947927599699995 13.822231395100005 31.099570421400017 11.398052805899994 C29.523854338499973 10.670799229199986 27.705720396599986 9.458709934599995 26.130004313699999 9.579918864099994 C23.948243583500016 9.822336723000006 21.766482853299976 11.034426017599998 19.221095334700010 12.004097453199989 zM23.037492178600001 15.168891093499999 C27.198475941900028 13.416897930000005 30.373963550799999 14.730892802600010 31.359459705300026 17.906380411500010 C32.235456287100021 20.534370156800009 30.702462269000023 22.067364174900007 28.621970387299996 22.395862893000015 C22.161495596800023 23.709857765700008 25.993980641999997 17.249382975200007 23.037492178600019 15.168891093500008 zM27.973806233900000 30.824459086299999 C27.973806233900007 30.824459086300010 31.965846037500000 38.428325023300005 31.965835850799976 38.428325023300005 C29.916831817300022 38.428325023300005 22.298805118600001 35.358880311099995 25.312453155900016 32.345232273699992 C25.312453155900016 31.464929926800011 28.473915283999986 31.014555734699996 27.593612936999989 31.014555734699996 C27.720344035999972 30.951190185200005 27.878757909700028 30.871983248399999 27.973806233900007 30.824459086300010 z" />
<glyph unicode="9" horiz-adv-x="56" d="M32.033736650000002 11.460243407700000 C31.534069543600026 19.080166779299987 31.034402437300002 25.950589491399995 30.409818554399976 33.820346416099994 C28.286233352500005 31.322010884500003 26.912148810000019 29.448259235699993 25.163313937900000 28.074174693299994 C24.039062948600019 27.199757257199991 21.665644193499986 26.200423044499985 20.916143534000014 26.825006927499999 C19.542058991600015 27.949257916699992 18.043057672600014 30.197759895199994 18.292891225800020 31.696761214199995 C19.042391885299992 36.568515500899991 21.665644193499986 40.940602681400009 26.162648150499990 42.939271106700005 C28.660983682200026 44.063522095899998 31.908819873399977 43.438938213000000 34.781905734799977 43.189104659900011 C35.156656064499998 43.189104659900011 35.781239947500012 41.065519457899995 35.781239947500012 39.941268468700002 C35.781239947500012 34.070179969300000 35.531406394300006 28.074174693299994 35.531406394300006 22.203086193899992 C35.406489617700004 18.705416449500007 36.280907053799979 14.957913152000003 32.033736649999980 11.460243407700005 zM29.104737880199998 35.336266808399998 C29.104737880199991 35.336266808400012 29.339552212499996 35.101452476100008 29.339552212499996 35.101452476100008 C29.339539629499995 35.101452476100008 28.869923547899987 36.334524271500015 28.869923547899987 36.979967134399999 C28.869923547899987 41.597961331199997 26.441419371599977 38.388853128199997 23.938822569699994 38.388853128199997 C23.938809986799981 38.388853128199997 22.529936576000011 30.405165830300007 22.529936576000011 30.405165830300007 C25.578506333099995 30.405165830300007 29.339552212499996 36.510338469900006 29.339552212499996 36.510338469900006 C29.280848629399998 36.216820554500003 29.183009324299974 35.727624028900010 29.104737880199991 35.336266808400012 z" />
<glyph unicode=":" horiz-adv-x="67.435294117647061" d="M43.899019369447061 30.301515882200000 C41.902496693247087 29.018037018999991 40.191191542347042 27.306731868100002 39.620756492047065 27.591949393199997 C38.479886391447053 28.447601968699985 37.766842578547084 30.301515882199993 36.768581240447077 31.584994745399996 C37.909451341047088 32.440647320899984 39.050321441747087 33.866734946700007 39.905974017147059 33.724126184099987 C41.189452880447050 33.438908658999992 42.187714218447070 32.012821033199998 43.899019369447046 30.301515882199993 zM43.899019369447061 17.609336012699998 C41.902496693247087 16.325857149499996 40.191191542347042 14.614551998600007 39.620756492047065 14.899769523700002 C38.337277628847062 15.755422099199990 37.624233815947036 17.466727250100007 36.625972477847085 18.892814875900001 C37.909451341047088 19.605858688799998 39.050321441747087 21.031946314599992 39.905974017147059 20.889337552000001 C41.189452880447050 20.746728789400009 42.187714218447070 19.178032401100012 43.899019369447046 17.609336012699998 z" />
<glyph unicode=";" horiz-adv-x="56" d="M30.836127112900002 32.520892494899996 C29.131799864799973 31.340973630799994 27.427472616600028 29.767748478700014 27.034166328600008 30.161054766700005 C25.854247464500020 30.816565246799996 25.198736984400000 32.520892494900011 24.281022312400012 33.700811358999999 C25.329839080499994 34.487423935099997 26.378655848499989 35.798444895199992 27.296370520600021 35.667342799200014 C28.345187288700004 35.405138607200001 29.262901960799979 34.094117647100006 30.836127112899987 32.520892494900011 zM26.640860040600000 16.002028397600000 C26.116451656499976 16.002028397599986 25.067634888399994 16.395334685600005 25.592043272500007 17.181947261700003 C26.640860040599989 18.361866125799992 27.296370520600021 19.672887085900015 27.427472616600028 21.246112237999995 C27.558574712599977 21.770520621999992 27.558574712599977 22.294929006100006 27.427472616600028 22.688235294099997 C27.427472616600028 22.819337390100003 27.034166328600008 23.474847870199994 27.034166328600008 23.605949966200001 C27.296370520600021 23.737052062200007 27.427472616600028 23.999256254199992 27.689676808700028 24.130358350199998 C27.820778904699978 23.868154158200014 27.820778904699978 23.737052062200007 27.951881000699984 23.474847870199994 C28.214085192699997 23.212643678200010 28.345187288700004 23.081541582200003 28.869595672800017 22.950439486100009 C29.656208248799999 22.557133198099990 29.000697768800023 21.770520621999992 28.476289384700010 21.508316430000008 C27.689676808700028 20.983908046000010 26.509757944599983 20.721703853999998 25.723145368500013 21.115010141999988 C24.412124408400018 21.770520621999992 23.232205544299973 23.081541582200003 24.281022312400012 24.523664638300005 C25.198736984400000 25.834685598400000 27.427472616600028 26.359093982399997 28.869595672800017 26.096889790399985 C33.064862745100015 25.048073022300002 30.967229208899994 19.279580797800008 29.131799864799973 17.050845165699997 C28.607391480700016 16.264232589599999 27.558574712599977 16.002028397599986 26.640860040599989 16.002028397599986 z" />
<glyph unicode="&#x3c;" horiz-adv-x="56" d="M20.262068965499999 27.770385395500000 C27.262068965500021 22.670385395500006 32.962068965500009 16.170385395500006 33.862068965499986 11.270385395500000 C32.062068965499975 12.070385395500011 30.762068965500021 12.370385395499994 29.862068965499986 13.170385395500006 C25.862068965499986 16.670385395500006 22.262068965500021 20.470385395499989 18.162068965499998 23.770385395500000 C15.162068965499998 26.170385395500006 15.162068965499998 27.270385395500000 17.862068965499986 29.970385395499989 C21.462068965500009 33.470385395499989 24.562068965499975 37.570385395500011 27.762068965500021 41.470385395499989 C29.462068965500009 43.370385395499994 30.962068965500009 45.470385395499989 32.762068965500021 47.270385395500000 C33.462068965500009 47.870385395499994 34.662068965499998 47.870385395499994 35.762068965500021 48.170385395500006 C35.562068965499975 47.070385395500011 35.762068965500021 45.570385395500011 35.062068965499975 44.870385395499994 C30.962068965500009 40.070385395500011 26.662068965499998 35.370385395499994 22.462068965500009 30.570385395500011 C21.762068965500021 29.770385395500000 21.062068965499975 28.770385395500000 20.262068965500021 27.770385395500000 z" />
<glyph unicode="=" horiz-adv-x="56" d="M38.046202519200001 32.890568146699998 C37.146202519200017 32.190568146700002 36.346202519200006 30.990568146700014 35.446202519200028 30.890568146699991 C33.046202519199994 30.490568146700014 30.646202519200017 30.490568146700014 28.246202519199983 30.490568146700014 C23.246202519199983 30.490568146700014 18.146202519200017 30.490568146700014 12.946202519200028 30.490568146700014 C12.946202519200028 32.490568146700014 12.846202519200006 33.490568146699985 15.846202519200006 33.390568146699991 C22.446202519200028 33.090568146700008 29.146202519200017 33.690568146700002 35.846202519200006 33.890568146699991 C36.446202519200028 33.890568146699991 36.946202519200028 33.790568146699997 37.546202519199994 33.790568146699997 C37.646202519200017 33.490568146700014 37.846202519200006 33.190568146700002 38.046202519199994 32.890568146699991 zM19.546202519200001 19.190568146699999 C18.946202519200028 19.590568146700008 16.246202519199983 20.390568146699991 16.246202519199983 21.090568146700008 C16.346202519200006 24.590568146700008 18.946202519200028 22.490568146700014 20.546202519199994 22.590568146700008 C24.746202519199983 22.790568146699997 29.046202519199994 23.190568146700002 33.246202519199983 23.190568146700002 C34.246202519199983 23.190568146700002 35.146202519200017 22.190568146700002 36.146202519200017 21.690568146700002 C35.146202519200017 21.090568146700008 34.246202519199983 20.090568146700008 33.246202519199983 19.990568146700014 C29.146202519200017 19.590568146700008 24.846202519200006 19.490568146699985 19.546202519199994 19.190568146700002 z" />
<glyph unicode="&#x3e;" horiz-adv-x="56" d="M34.694320486800002 39.937322515200002 C29.094320486799973 41.737322515199992 24.394320486799984 43.237322515199992 19.594320486799973 44.737322515199992 C21.094320486800029 47.837322515200015 23.294320486800018 47.437322515200009 25.394320486799984 46.637322515199997 C29.294320486800018 45.237322515199992 33.094320486800029 43.737322515199992 36.994320486800007 42.237322515199992 C38.094320486799973 39.537322515200003 36.794320486800018 37.437322515200009 35.094320486799973 35.237322515199992 C31.094320486799973 30.137322515199997 27.494320486800007 24.737322515199992 23.594320486799973 19.537322515200003 C22.994320486800007 18.737322515199992 21.994320486800007 18.137322515199997 21.194320486799995 17.537322515200003 C20.794320486800018 17.737322515199992 20.494320486800007 17.937322515200009 20.094320486799973 18.137322515199997 C20.494320486800007 19.537322515200003 20.594320486799973 21.137322515199997 21.294320486800018 22.237322515199992 C25.594320486800029 27.937322515200009 29.894320486799984 33.537322515200003 34.694320486799995 39.937322515200009 z" />
<glyph unicode="?" horiz-adv-x="56" d="M34.973833671400001 44.036511156200000 C32.773833671399984 47.036511156199992 30.373833671400007 47.436511156199998 26.073833671399996 45.336511156200004 C24.673833671400018 44.636511156200015 22.873833671400007 44.736511156200010 21.273833671399984 44.536511156199992 C22.373833671400007 45.636511156200015 23.273833671399984 46.936511156199998 24.573833671399996 47.736511156200010 C26.173833671400018 48.736511156200010 27.973833671399973 49.736511156200010 29.773833671399984 49.936511156199998 C34.973833671399973 50.536511156199992 37.173833671400018 48.936511156199998 38.473833671399973 44.036511156199992 C38.673833671400018 43.036511156199992 38.073833671399996 41.436511156199998 37.273833671399984 40.736511156200010 C34.373833671400007 38.036511156199992 31.173833671400018 35.636511156200015 28.173833671400018 33.036511156199992 C27.373833671400007 32.336511156200004 26.773833671399984 30.936511156199998 26.673833671400018 29.836511156200004 C26.273833671399984 26.136511156200015 26.173833671400018 22.436511156199998 25.873833671400007 18.536511156199992 C23.473833671399973 18.836511156200004 22.573833671399996 19.436511156199998 22.873833671400007 21.636511156200015 C23.273833671399984 25.136511156200015 23.173833671400018 28.636511156200015 23.073833671399996 32.036511156199992 C22.973833671399973 34.136511156200015 23.573833671399996 35.236511156200010 25.773833671399984 35.436511156199998 C26.973833671399973 35.536511156199992 28.473833671399973 36.036511156199992 29.373833671400007 36.936511156199998 C31.373833671400007 39.036511156199992 32.973833671399973 41.436511156199998 34.973833671399973 44.036511156199992 zM27.673833671400001 11.536511156200000 C26.273833671399984 10.636511156199987 25.073833671399996 9.436511156199998 24.673833671400018 9.636511156199987 C23.773833671399984 10.236511156200010 23.273833671399984 11.436511156199998 22.573833671399996 12.436511156199998 C23.373833671400007 12.936511156199998 24.173833671400018 14.036511156199992 24.773833671399984 13.936511156199998 C25.773833671399984 13.636511156199987 26.473833671399973 12.636511156199987 27.673833671400018 11.536511156199992 z" />
<glyph unicode="A" horiz-adv-x="56" d="M37.437313526200001 15.505167137600001 C37.437313526200001 14.705167137600000 36.437313526200001 13.805167137599994 35.937313526200001 13.005167137600012 C35.437313526200001 13.205167137600000 35.037313526200023 13.405167137599989 34.537313526200023 13.605167137600006 C34.537313526200023 16.805167137599994 34.537313526200023 20.005167137600012 34.537313526200023 23.005167137600012 C32.737313526200012 22.705167137600000 31.237313526200012 22.005167137600012 29.837313526199978 22.205167137600000 C24.437313526200001 22.905167137599989 23.537313526200023 22.305167137599994 22.537313526200023 16.705167137600000 C21.837313526199978 13.105167137600006 21.837313526199978 13.105167137600006 18.137313526199989 12.105167137600006 C20.037313526200023 16.805167137599994 21.537313526200023 20.905167137599989 23.237313526200012 24.905167137599989 C25.237313526200012 29.905167137599989 27.237313526200012 34.805167137599994 29.437313526200001 39.705167137600000 C30.037313526200023 41.205167137600000 31.137313526199989 42.405167137600017 31.937313526200001 43.705167137600000 C32.937313526200001 42.605167137600006 34.037313526200023 41.505167137599983 34.937313526200001 40.305167137599994 C35.237313526200012 39.905167137600017 35.437313526200001 39.305167137599994 35.437313526200001 38.705167137600000 C36.137313526199989 31.005167137600012 36.737313526200012 23.205167137600000 37.437313526200001 15.505167137600012 zM33.634270929800003 26.529710748199999 C33.634270929799982 26.529710748199989 32.701208049499996 30.448574845499991 32.701208049499996 30.448574845499991 C32.701198049500022 30.448574845499991 30.275244560700003 37.726465312100004 30.275244560700003 37.726465312100004 C30.275234560700028 37.726465312100004 26.729605615399976 31.466387338499999 26.729605615399976 28.022611356699997 C26.729605615399976 28.022601356699994 30.201389623900013 25.746332975499996 31.768145169200011 26.529710748199989 C32.216705976900016 26.753991152100014 33.261045777700019 26.716323324200005 33.261045777700019 26.716323324200005 C33.354352065700027 26.669670180200001 33.509862545799990 26.591914940200013 33.634270929799982 26.529710748199989 z" />
<glyph unicode="B" horiz-adv-x="57.270588235294113" d="M25.858823529394115 25.699482543700000 L25.858823529394119 25.886095119700002 L25.858823529394119 25.886095119700002 L25.858823529394119 25.886095119700002 L25.858823529394119 25.886095119700002 L25.858823529394119 25.886095119700002 L25.858823529394119 25.886095119700002 L25.858823529394119 25.699482543700015 L25.858823529394119 25.699482543700015 L25.858823529394119 25.512869967600011 L25.858823529394119 25.326257391500008 L25.858823529394119 25.139644815499992 L25.858823529394119 25.139644815499992 L25.858823529394119 25.139644815499992 L25.858823529394119 24.953032239399988 L25.858823529394119 24.953032239399988 L25.858823529394119 24.766419663299985 L25.858823529394119 24.766419663299985 L25.858823529394119 24.579807087299997 L25.858823529394119 24.393194511199994 L25.858823529394119 24.019969359100003 L26.045436105494122 23.833356782999999 L26.045436105494122 23.833356782999999 L26.045436105494122 23.646744207000012 L26.045436105494122 23.460131630900008 L26.045436105494122 23.086906478799989 L26.045436105494122 22.527068750599994 L26.045436105494122 21.780618446299997 L26.045436105494122 21.780618446299997 L26.045436105494122 21.034168141999999 L26.045436105494122 20.847555566000011 L26.045436105494122 20.474330413800004 L26.045436105494122 20.287717837799988 L26.045436105494122 20.101105261700013 L26.045436105494122 19.914492685699997 L26.045436105494122 19.727880109599994 L26.045436105494122 19.727880109599994 L26.045436105494122 19.541267533499990 L26.045436105494122 19.354654957500003 L26.045436105494122 19.168042381399999 L26.045436105494122 18.794817229300008 L26.045436105494122 18.794817229300008 L26.045436105494122 18.421592077100001 L26.045436105494122 18.048366925000010 L26.045436105494122 17.675141772899991 L26.045436105494122 17.488529196799988 L26.045436105494122 17.488529196799988 L26.045436105494122 17.301916620700013 L26.045436105494122 17.301916620700013 L26.045436105494122 17.301916620700013 L26.045436105494122 17.115304044699997 L26.045436105494122 17.115304044699997 L26.045436105494122 17.115304044699997 L26.045436105494122 17.115304044699997 L26.045436105494122 16.742078892499990 L26.045436105494122 16.742078892499990 L26.232048681494138 16.742078892499990 L26.232048681494138 16.742078892499990 L26.232048681494138 16.742078892499990 L26.232048681494138 16.742078892499990 L26.418661257594142 16.742078892499990 L26.418661257594142 16.928691468599993 L26.605273833694145 16.928691468599993 L26.791886409694104 17.115304044699997 L26.791886409694104 17.115304044699997 L26.978498985794108 17.115304044699997 L26.978498985794108 17.115304044699997 L27.165111561894111 17.301916620700013 L27.165111561894111 17.301916620700013 L27.351724137894127 17.488529196799988 L27.538336713994131 17.675141772899991 L27.724949290094134 17.675141772899991 L28.098174442194097 17.861754348900007 L28.284787018294100 18.048366925000010 L28.471399594294116 18.048366925000010 L28.844624746494123 18.234979501099986 L29.031237322494139 18.421592077100001 L29.404462474694089 18.421592077100001 L29.777687626794108 18.608204653200005 L29.964300202794124 18.794817229300008 L30.337525354994131 18.981429805299996 L30.337525354994131 18.981429805299996 L30.710750507094094 19.168042381399999 L31.083975659194113 19.354654957500003 L31.457200811394120 19.727880109599994 L31.830425963494140 19.914492685699997 L32.017038539594139 19.914492685699997 L32.017038539594139 20.101105261700013 L32.203651115594099 20.101105261700013 L32.203651115594099 20.101105261700013 L32.203651115594099 20.101105261700013 L32.203651115594099 20.101105261700013 L32.390263691694102 20.287717837799988 L32.390263691694102 20.287717837799988 L32.390263691694102 20.287717837799988 L32.576876267794106 20.474330413800004 L32.950101419894125 20.660942989900008 L33.136713995894141 20.847555566000011 L33.509939148094091 21.034168141999999 L33.696551724094107 21.220780718100002 L33.883164300194110 21.407393294200006 L34.069776876294114 21.407393294200006 L34.069776876294114 21.407393294200006 L34.069776876294114 21.407393294200006 L34.069776876294114 21.407393294200006 L34.256389452294130 21.407393294200006 L34.256389452294130 21.594005870199993 L34.256389452294130 21.780618446299997 L34.256389452294130 21.780618446299997 L34.443002028394133 22.153843598399988 L34.816227180494096 22.527068750599994 L35.002839756594099 23.273519054800005 L35.189452332694103 23.646744207000012 L35.376064908694119 24.019969359100003 L35.562677484794122 24.393194511199994 L35.935902636894085 24.579807087299997 L35.935902636894085 24.766419663299985 L35.935902636894085 24.766419663299985 L35.935902636894085 24.953032239399988 L35.935902636894085 24.953032239399988 L35.935902636894085 24.953032239399988 L35.935902636894085 24.953032239399988 L35.935902636894085 25.139644815499992 L35.935902636894085 25.139644815499992 L35.935902636894085 25.139644815499992 L35.935902636894085 25.139644815499992 L35.935902636894085 25.326257391500008 L35.935902636894085 25.326257391500008 L35.749290060894126 25.326257391500008 L35.749290060894126 25.512869967600011 L35.749290060894126 25.512869967600011 L35.749290060894126 25.699482543700015 L35.749290060894126 25.699482543700015 L35.562677484794122 25.886095119700002 L35.562677484794122 25.886095119700002 L35.562677484794122 25.886095119700002 L35.562677484794122 26.072707695800005 L35.376064908694119 26.072707695800005 L35.376064908694119 26.072707695800005 L35.376064908694119 26.259320271900009 L35.376064908694119 26.259320271900009 L35.376064908694119 26.259320271900009 L35.376064908694119 26.259320271900009 L35.189452332694103 26.259320271900009 L35.189452332694103 26.445932847899996 L35.002839756594099 26.445932847899996 L35.002839756594099 26.445932847899996 L34.816227180494096 26.632545424000000 L34.629614604494137 26.632545424000000 L34.629614604494137 26.632545424000000 L34.443002028394133 26.632545424000000 L34.443002028394133 26.819158000100003 L34.256389452294130 26.819158000100003 L34.256389452294130 26.819158000100003 L34.069776876294114 26.819158000100003 L34.069776876294114 26.819158000100003 L34.069776876294114 26.819158000100003 L33.883164300194110 26.819158000100003 L33.883164300194110 26.819158000100003 L33.883164300194110 26.819158000100003 L33.883164300194110 26.819158000100003 L33.883164300194110 26.819158000100003 L33.696551724094107 26.819158000100003 L33.696551724094107 26.819158000100003 L33.696551724094107 26.819158000100003 L33.509939148094091 26.819158000100003 L33.509939148094091 26.819158000100003 L32.950101419894125 27.005770576099991 L32.950101419894125 27.005770576099991 L32.950101419894125 27.005770576099991 L32.763488843794121 27.005770576099991 L32.576876267794106 27.005770576099991 L32.576876267794106 27.005770576099991 L32.576876267794106 26.819158000100003 L32.390263691694102 26.819158000100003 L32.390263691694102 26.819158000100003 L32.390263691694102 26.819158000100003 L32.390263691694102 26.819158000100003 L32.203651115594099 26.819158000100003 L32.203651115594099 26.819158000100003 L32.203651115594099 26.819158000100003 L32.017038539594139 26.819158000100003 L32.017038539594139 26.632545424000000 L31.830425963494140 26.632545424000000 L31.643813387394136 26.632545424000000 L31.457200811394120 26.632545424000000 L30.897363083194097 26.445932847899996 L30.524137930994090 26.259320271900009 L29.777687626794108 26.259320271900009 L29.777687626794108 26.259320271900009 L29.404462474694089 26.072707695800005 L29.031237322494139 25.886095119700002 L28.844624746494123 25.886095119700002 L28.844624746494123 25.886095119700002 L28.844624746494123 25.886095119700002 L28.844624746494123 25.886095119700002 L28.658012170394120 25.886095119700002 L28.658012170394120 25.886095119700002 L28.471399594294116 25.886095119700002 L28.471399594294116 25.886095119700002 L28.284787018294100 25.886095119700002 L28.284787018294100 25.699482543700015 L28.098174442194097 25.699482543700015 L27.724949290094134 25.699482543700015 L27.724949290094134 25.699482543700015 L27.538336713994131 25.699482543700015 L27.351724137894127 25.699482543700015 L27.351724137894127 25.699482543700015 L27.351724137894127 25.699482543700015 L27.165111561894111 25.699482543700015 L27.165111561894111 25.699482543700015 L27.165111561894111 25.699482543700015 L27.165111561894111 25.699482543700015 L26.978498985794108 25.699482543700015 L26.978498985794108 25.699482543700015 L26.791886409694104 25.699482543700015 L26.791886409694104 25.699482543700015 L26.605273833694145 25.699482543700015 L26.605273833694145 25.699482543700015 L26.418661257594142 25.699482543700015 L26.045436105494122 25.699482543700015 L26.045436105494122 25.699482543700015 L26.045436105494122 25.699482543700015 L25.672210953394103 25.699482543700015 L25.485598377294099 25.699482543700015 C25.485598377294099 25.699482543700015 25.485598377294099 25.699482543700015 25.485598377294099 25.699482543700015 M41.178296146094112 23.015912563899999 C41.078296146094104 22.815912563899985 40.878296146094115 22.515912563900002 40.878296146094115 22.415912563900008 C40.478296146094138 21.615912563899997 40.178296146094127 20.915912563900008 39.878296146094115 20.215912563899991 C34.778296146094092 17.015912563900002 29.878296146094119 13.815912563899985 24.878296146094119 10.715912563899991 C21.178296146094130 15.215912563899991 22.278296146094096 36.215912563899991 26.878296146094119 38.115912563899997 C26.578296146094107 35.115912563899997 26.378296146094119 32.515912563900002 25.978296146094142 28.615912563899997 C30.278296146094096 29.815912563899985 34.078296146094104 30.915912563900008 37.778296146094092 32.015912563900002 C37.978296146094138 32.415912563900008 38.078296146094104 32.915912563900008 38.278296146094092 33.315912563899985 C35.178296146094127 34.915912563900008 32.178296146094127 36.515912563900002 28.378296146094119 38.515912563900002 C29.878296146094119 38.915912563900008 31.278296146094096 39.715912563899991 31.878296146094119 39.415912563900008 C35.178296146094127 37.915912563900008 39.778296146094092 37.915912563900008 40.678296146094127 33.415912563900008 C41.478296146094138 29.815912563899985 36.978296146094138 31.015912563900002 36.278296146094092 29.015912563900002 C37.778296146094092 27.715912563899991 39.078296146094104 26.515912563900002 40.578296146094104 25.115912563899997 C40.578296146094104 24.915912563900008 40.678296146094127 24.715912563899991 40.678296146094127 24.515912563900002 C40.778296146094092 23.915912563900008 40.978296146094138 23.415912563900008 41.178296146094127 23.015912563900002 zM25.164908722094118 36.429299987900002 C26.364908722094146 38.829299987900015 29.864908722094089 39.829299987900015 32.364908722094086 38.929299987900009 C32.964908722094108 38.729299987899992 32.364908722094086 38.029299987900004 32.064908722094131 37.829299987900015 C31.464908722094112 37.429299987900009 30.664908722094101 37.329299987900015 29.964908722094112 37.529299987900004 C28.964908722094112 37.929299987900009 28.264908722094123 37.229299987899992 27.864908722094089 36.329299987900015 C27.464908722094112 35.529299987900004 24.564908722094135 35.129299987899998 25.164908722094101 36.429299987900009 z" />
<glyph unicode="C" horiz-adv-x="57.716781658909568" d="M35.168044060800000 38.228400720600000 C34.098310215200001 36.802088926400017 33.385154318099978 34.900339867500008 31.958842523899989 34.068324654200012 C27.561047825000003 31.215701065800005 24.232986971900004 27.531062264000013 22.450097229099981 22.657830300499995 C21.736941332000015 20.874940557700000 22.093519280599992 17.665739020699988 23.282112442399978 16.596005175100004 C24.827283552799997 15.288552697000000 27.679907141199976 15.050834064700013 29.938234148700019 14.931974748500011 C32.434279788600008 14.813115432300009 35.049184744700028 15.288552697000000 37.664089700700004 15.526271329400004 C37.664089700700004 14.337678167599989 37.782949016899977 13.862240902800011 37.664089700700004 13.743381586600009 C32.671998421000012 10.890757998200002 27.323329192699987 10.177602101100007 21.855800648199988 11.960491843900002 C19.240895692100025 12.792507057199998 16.982568684599983 20.399503293000009 18.527739795000002 23.014408248999985 C21.380363383500026 27.768780896399988 24.470705604200020 32.404294227599991 27.798766457400006 36.683229610199987 C29.106218935400022 38.228400720600007 31.721123891499985 38.703837985400014 33.741732266600025 39.654712514799996 C34.336028847600005 39.179275250100005 34.692606796099994 38.703837985400014 35.168044060800014 38.228400720600007 z" />
<glyph unicode="D" horiz-adv-x="56" d="M23.164769538100000 9.147851313700000 C22.515548391600021 10.965670523900002 21.217106098600027 12.653645504899998 21.346950327900004 14.211776256500002 C21.866327245100024 22.391962702600011 22.645392620899997 30.701993377900010 23.294613767399994 39.012024053299996 C23.554302226000004 41.868597097899993 24.463211831100011 43.037195161600010 27.189940646500020 40.959687492800015 C27.969006022299993 40.440310575599995 29.137604086000010 40.440310575599995 30.176357920499981 40.440310575599995 C36.798413614900028 40.180622117000013 43.939846226499981 31.481058753699983 40.563896264599975 24.469470371400007 C36.798413614899971 16.548972383900008 33.811996340900009 13.043178192799985 23.164769538100018 9.147851313699988 zM24.955801625700001 16.964052516599999 C25.475178542899982 16.704364058000010 26.124399689399979 16.444675599400000 26.643776606599999 16.184987140700002 C29.630193880600018 19.041560185399987 32.876299613100002 21.508600542099998 35.343339969900001 24.754706274699998 C36.641782262899994 26.312837026300002 37.420847638700025 29.429098529599997 36.771626492200028 30.987229281200001 C35.862716887100021 33.064736950099984 33.395676530400010 34.882556160299998 31.318168861499998 36.051154224000015 C30.279415027100015 36.570531141200007 27.033309294499986 35.401933077499990 26.903465065200010 34.493023472400012 C25.994555460100003 28.779877383100001 25.475178542899982 22.807042835200008 24.955801625700019 16.964052516599992 z" />
<glyph unicode="E" horiz-adv-x="56" d="M35.805851006399998 26.541322677000000 C32.141071810600010 21.576137960200015 27.294105777500022 24.413386369800008 23.629326581700013 22.521887429999992 C21.619608958199990 16.729171927000010 23.511107897999977 14.246579568599998 28.949167349800007 14.719454303499987 C31.904634443199996 14.955891670999989 34.860101536599984 14.719454303499987 37.815568629899985 14.719454303499987 C38.761318099800008 11.172893791399986 36.515163108900026 11.054675107700007 34.741882852800018 11.054675107700007 C30.486010238400013 10.936456423999999 26.111918940099997 11.054675107700035 21.856046325699992 10.936456423999999 C19.609891334700023 10.818237740200004 18.664141864800001 11.172893791399986 18.900579232300004 13.891923517399988 C19.728110018400002 21.930794011399996 20.437422120800022 29.969664505400004 20.910296855800027 38.008534999400013 C21.028515539500006 41.082220776500009 22.092483693100007 42.619063665099986 25.284388153999998 42.382626297599984 C28.712729982300004 42.146188930100010 32.022853126899975 42.027970246400002 35.451194955199981 41.555095511399998 C36.160507057699988 41.436876827699990 36.751600476299984 40.018252622900008 37.460912578700004 39.190721836699993 C36.633381792600005 38.717847101800004 35.924069690199985 37.890316315700005 35.096538903999999 37.772097631900010 C31.668197075699993 37.653878948200003 28.358073931100023 37.772097631900010 24.575076051599979 37.772097631900010 C24.338638684099976 34.107318436100002 24.102201316599974 30.442539240299993 23.747545265399992 26.541322677000011 C27.648761828700003 26.541322677000011 31.195322340799976 26.541322677000011 35.805851006400019 26.541322677000011 z" />
<glyph unicode="F" horiz-adv-x="58" d="M29.104021480299998 28.114350717200001 C33.619107160900001 28.577436428099986 37.902649986000029 28.924750711200005 42.070421383400003 29.387836421999992 C42.301964238799997 29.040522138900002 42.533507094199990 28.693207855800011 42.880821377400025 28.345893572600005 C41.954649955700006 27.535493578699999 41.144249961800028 26.377779301600015 40.218078540100009 26.146236446199993 C36.281849998100029 25.335836452299986 32.345621456099991 24.988522169199996 27.946307203300023 24.409665030599996 C27.598992920199976 19.547265067000012 27.251678637099985 14.800636531000009 26.788592926200010 9.706693712000003 C22.736592956499976 12.022122266100013 23.894307233599989 15.611036525000003 24.125850088999982 18.621093645299993 C24.473164372099973 25.451607880000012 24.936250082900017 32.513664970099995 25.630878649199985 39.459950632399995 C25.746650076899982 40.501893481800010 27.135907209300001 42.122693469700010 28.062078631000020 42.122693469700010 C32.692935739199982 42.470007752800001 37.439564275199984 42.354236325100004 42.070421383400003 42.354236325100004 C42.533507094199990 38.881093493900011 41.723107100300012 37.723379216799998 39.176135690799981 38.186464927700001 C39.060364263099984 38.186464927700001 38.944592835399988 38.186464927700001 38.828821407699991 38.302236355399998 C28.409392914100010 40.038807770999995 27.830535775600026 39.459950632399995 29.104021480299991 28.114350717200011 z" />
<glyph unicode="G" horiz-adv-x="56" d="M34.986054617999997 43.524077451399997 C33.446635017099993 42.813576097099997 31.670381631499993 42.458325419999994 30.604629600199985 41.392573388599999 C24.446951196800001 36.182230124200004 21.723362672199983 29.787717936099995 22.552280918800022 22.327453716500003 C22.789114703499990 20.195949653800000 23.618032950200018 17.946028698699990 24.446951196800001 15.932941528399994 C24.802201873900003 15.222440174100001 26.104787690000023 14.275105035100012 26.933705936600006 14.275105035100012 C27.999457968000002 14.275105035100012 29.775711353600002 15.104023281800011 30.012545138300027 15.814524635999987 C31.788798523900027 20.195949653800000 33.091384339999991 24.695791563999990 34.749220833300001 29.669301043699988 C32.262466093400008 29.195633474200008 30.604629600199985 28.958799689399996 28.591542429799972 28.603549012299993 C28.591542429799972 29.787717936099995 28.591542429799972 30.971886859800009 28.591542429799972 31.919221998799998 C31.551964739200002 32.392889568300006 34.157136371399986 32.866557137799987 36.880724896000004 33.221807814899989 C37.828060035000021 33.340224707299996 38.893812066300029 32.984974030100005 39.722730312900012 32.511306460599997 C40.077980990100002 32.274472675900000 39.959564097700024 31.208720644500005 39.722730312900012 30.616636182700006 C37.946476927300012 25.998377380100010 35.814972864600009 21.498535469899991 34.275553263800020 16.761859775000005 C32.972967447700000 12.854102326700001 31.078297169700022 10.959432048699995 27.407373506099987 10.959432048699995 C23.618032950200018 10.959432048699995 20.894444425600000 13.209353003800004 20.065526179000017 16.998693559700001 C18.526106578099984 24.577374671600012 19.355024824699967 31.919221998799998 23.854866734899986 38.550567971699991 C25.512703228100008 41.037322711499996 27.999457968000002 43.168826774199999 30.486212707800007 45.063497052200006 C31.315130954399990 45.655581514099993 33.328218124800003 45.181913944600012 34.749220833300001 45.181913944600012 C34.867637725599991 44.589829482699997 34.867637725599991 43.997745020899998 34.986054618000026 43.524077451399990 z" />
<glyph unicode="H" horiz-adv-x="53.164705882352955" d="M34.917807245652952 12.235056079400000 C34.144714312052933 12.345497926999997 33.482063226152938 12.345497926999997 32.819412140252943 12.235056079400010 C32.598528444952926 12.566381622300014 32.488086597252952 12.897707165300005 32.267202901952935 13.229032708299997 C32.488086597252952 17.315381071399997 33.702946921452956 21.401729434499998 31.714993663752971 24.935868559400006 C29.064389320052946 24.604543016399987 25.751133890452927 24.162775625800009 22.327436613252978 23.721008235200003 C22.216994765652935 19.413776176800013 21.996111070352974 15.548311509000001 21.885669222652943 11.682846841100002 C21.333459984452979 11.572404993499987 20.781250746152971 11.461963145800013 20.229041507852962 11.351521298199998 C19.676832269652941 15.879637051900005 19.235064879052963 20.407752805699999 18.572413793152968 26.040287035900008 C18.793297488452929 28.028240293599993 19.235064879052963 31.231053875599997 19.566390421952967 34.544309305100001 C19.897715964952958 38.078448430000009 20.008157812552945 41.833471250200006 20.560367050852953 45.367610374999998 C20.670808898452940 46.251145156299998 21.775227375052957 46.913796242199993 22.327436613252978 47.686889175700003 C22.769204003852956 46.692912546900004 23.431855089752951 45.698935917999989 23.431855089752951 44.704959289100003 C23.100529546852947 39.403750601799999 22.658762156252969 34.212983762199997 22.216994765652935 28.138682141299995 C25.861575738152958 28.911775074899992 29.064389320052946 29.463984313100013 32.819412140252943 30.237077246700011 C32.598528444952983 33.992100066900008 32.156761054352948 37.636681039400003 32.267202901952935 41.170820164299982 C32.377644749652966 42.827447879000005 33.371621378452964 44.373633746199999 34.034272464452947 46.030261461000009 C34.586481702652968 44.484075593800014 35.470016483852980 43.048331574299993 35.470016483852980 41.502145707199986 C35.580458331552954 32.445914199699985 35.580458331552954 23.389682692299999 35.580458331552954 14.333451184799998 C35.249132788552963 13.670800098900003 34.917807245652959 13.008149013000008 34.917807245652959 12.235056079400010 z" />
<glyph unicode="I" horiz-adv-x="58.896012580100006" d="M24.999999999970136 12.579042325900000 C24.999999999970118 21.631542144200012 24.999999999970118 29.423567304300008 24.999999999970118 37.101003859000002 C24.999999999970118 38.934421543700012 25.229177210570146 40.882427833799994 25.572943026470131 42.601256913199990 C25.687531631770145 43.174199939700003 26.718829079470158 43.632554360799986 27.406360711170141 44.205497387299999 C27.864715132370140 43.517965755500001 28.781423974770139 42.830434123799989 28.781423974770139 42.257491097300004 C28.781423974770139 39.851130386100010 28.093892342970111 37.444769674899987 28.208480948270125 35.038408963699993 C28.323069553570139 27.933915435399996 28.781423974770139 20.944010512399984 28.896012580070153 13.839516984099987 C28.896012580070153 12.235276510000006 28.093892342970111 10.631036035899996 27.635537921770112 9.026795561799986 C26.604240474170144 10.516447430600010 25.572943026470131 11.891510694099992 24.999999999970118 12.579042325899991 z" />
<glyph unicode="J" horiz-adv-x="56" d="M18.589708792499998 23.247548680500000 C19.769998427500013 22.496455276400013 21.379484293500013 22.067259045399993 22.023278639900013 20.994268468099989 C23.418166390500005 18.633689197899997 24.276558852400001 15.951212754599993 25.242250372000001 13.590633484400001 C29.641511739099997 13.590633484400001 30.178007027700005 16.380408985499997 30.285306085499997 19.170184486599993 C30.392605143200001 24.749735488800013 30.285306085499997 30.329286490899989 30.285306085499997 36.338033724000013 C27.710128699800009 35.372342204400013 25.134951314200009 34.406650684800013 22.452474870900005 33.870155396200005 C21.594082409000009 33.655557280700009 20.521091831700005 34.406650684800013 19.448101254300013 34.728547858000013 C19.984596543000009 35.908837493100009 20.306493716200009 38.054818647800005 20.950288062600009 38.162117705500009 C28.461222104000001 39.557005456100001 36.079455203099997 40.737295091100009 43.804987359899997 41.917584726200005 C43.483090186699997 38.054818647800005 42.731996782599992 37.625622416900001 34.255371221600001 36.874529012700009 C33.933474048400001 30.865781779600013 33.718875932999993 24.857034546499989 33.396978759700005 18.740988255699989 C33.182380644299997 13.697932542199993 31.143698547300005 10.371661752400001 27.817427757600001 9.298671175099997 C25.242250372000001 8.440278713200001 23.525465448200009 9.405970232800001 22.345175813200001 11.659250445200001 C20.735689947100013 14.985521234999993 19.126204081100013 18.419091082499989 17.516718215100013 21.852660930000013 C17.838615388300013 22.281857160899989 18.267811619300005 22.818352449600013 18.589708792500005 23.247548680499989 z" />
<glyph unicode="K" horiz-adv-x="53.917647058823533" d="M27.674645030400001 18.966924222500001 C27.474645030399984 16.366924222499989 27.574645030400006 13.966924222500012 27.174645030399972 11.766924222499995 C27.074645030400006 11.166924222500000 25.874645030400018 10.666924222500000 25.174645030399972 10.166924222500000 C24.574645030400006 10.966924222500012 23.274645030399995 12.166924222500000 23.474645030399984 12.666924222500000 C26.974645030399984 20.166924222500000 24.274645030399995 28.366924222499989 26.374645030400018 35.866924222500018 C26.874645030400018 37.566924222500006 27.174645030399972 39.366924222500018 28.174645030399972 40.966924222499983 C31.374645030400018 36.066924222500006 27.174645030399972 31.166924222500000 28.574645030400006 25.166924222500000 C31.574645030400006 28.466924222500012 34.174645030399972 31.266924222499995 36.674645030399972 34.166924222500000 C37.674645030399972 35.266924222499995 38.174645030399972 36.866924222500018 39.174645030399972 37.966924222499983 C39.974645030399984 38.866924222500018 41.174645030400029 39.466924222499983 42.274645030399995 40.166924222500000 C42.074645030400006 38.966924222499983 42.374645030400018 37.366924222500018 41.674645030400029 36.466924222499983 C38.374645030400018 32.466924222499983 34.974645030399984 28.566924222500006 31.474645030399984 24.666924222500000 C31.074645030400006 24.266924222499995 30.574645030400006 23.866924222499989 30.274645030399995 23.466924222500012 C30.174645030399972 23.366924222499989 30.174645030399972 23.066924222500006 29.974645030399984 22.366924222499989 C32.874645030400018 20.666924222500000 35.874645030400018 18.866924222499989 39.074645030400006 17.366924222499989 C40.474645030399984 16.666924222500000 41.974645030399984 16.166924222500000 40.774645030399995 14.566924222500006 C40.274645030399995 13.966924222500012 38.174645030399972 13.966924222500012 37.174645030399972 14.466924222500012 C34.374645030400018 15.766924222499995 31.774645030399995 17.466924222500012 29.174645030399972 18.966924222500012 C28.774645030399995 19.066924222500006 28.174645030399972 18.966924222500012 27.674645030399972 18.966924222500012 z" />
<glyph unicode="L" horiz-adv-x="63.811764705882354" d="M27.545109119199999 11.294811076000000 C27.219977680400007 12.703713977200010 26.352960510499997 14.546125463199985 26.352960510499997 16.496914095600005 C25.919451925600015 25.058708648499987 25.702697633100001 33.728880347799986 25.594320486799973 42.290674900699997 C25.594320486799973 43.049314924399994 26.678091949199995 43.807954948099990 27.219977680400007 44.566594971799987 C27.653486265399977 43.699577801900006 28.520503435299986 42.832560631900009 28.628880581600015 41.965543461999999 C28.845634873999984 34.812651810200009 28.954012020300013 27.551383012099990 29.279143459000011 20.398491360200012 C29.387520605199995 18.881211312900007 29.821029190200022 17.472308411699998 30.146160628900020 15.413142633200010 C32.422080699999981 16.280159803099991 34.156115039800000 17.255554119300001 36.106903672099975 17.580685557999999 C37.515806573299983 17.797439850500012 39.900103790499998 17.472308411699998 40.333612375500024 16.605291241799989 C41.309006691700006 14.329371170799988 39.358218059299986 13.787485439600005 37.407429427000011 13.353976854600006 C34.372869332300013 12.812091123399995 31.338309237600015 12.161828245999999 27.545109119199992 11.294811076000002 z" />
<glyph unicode="M" horiz-adv-x="56" d="M31.350262476099999 26.803725169300002 C34.182690115800028 33.231157120900008 37.015117755400013 39.767528596999995 39.738605870500010 46.303900073100010 C40.283303493500000 46.194960548500006 40.828001116499991 46.086021023900003 41.481638264100013 45.868141974699995 C42.244214936300011 33.993733793100006 42.897852083899977 22.119325611499988 43.660428756200020 10.353856954500003 C43.115731133099985 10.244917429899999 42.462093985500019 10.027038380699992 41.917396362499971 9.918098856099988 C41.263759214900006 11.552191725099988 40.174363968900025 13.077345069500012 40.065424444299993 14.711437938500012 C39.847545395099985 21.138869889999995 39.956484919700017 27.457362316999991 39.956484919700017 33.884794268500002 C39.411787296700027 33.993733793100006 38.867089673699979 34.102673317700010 38.431331575300021 34.211612842299985 C35.598903935599992 29.091455185999990 32.875415820599983 23.971297529699996 30.151927705499986 19.069018922600009 C27.537379115100009 24.733874201899994 25.358588623000003 29.636152809000009 23.070858606400009 34.538431416099996 C22.526160983400018 34.429491891499993 21.872523835799996 34.211612842299985 21.327826212800005 34.102673317700010 C21.327826212800005 26.476906595499997 21.327826212800005 18.742200348799997 21.327826212800005 11.116433626700001 C20.892068114399990 11.007494102099997 20.347370491300012 10.898554577499993 19.911612392899997 10.789615052899990 C19.257975245299974 11.987949823500003 18.168579999299993 13.295224118699991 18.059640474700018 14.493558889300004 C17.950700950099986 21.901446562300009 17.841761425500010 29.309334235199998 18.168579999299993 36.717221908099987 C18.168579999299993 38.569193826400010 19.040096196100023 41.728440039800006 20.238430966699980 42.055258613600017 C23.288737655600016 43.035714334999994 23.615556229399999 39.549649547800016 24.596011950800005 37.588738104900017 C26.447983868999984 33.993733793100006 28.191016262699975 30.398729481200007 29.934048656299979 26.803725169300009 C30.478746279300026 26.803725169300009 30.914504377699984 26.803725169300009 31.350262476099999 26.803725169300009 z" />
<glyph unicode="N" horiz-adv-x="61.332888850399996" d="M26.186215938600000 36.146187680600001 C26.186215938600014 32.620519921000010 26.060299232899979 28.339351927300015 26.186215938600014 24.184100639200011 C26.312132644299993 20.028849351100007 26.815799467100021 15.873598063099990 27.193549584200014 11.592430069300008 C26.815799467100021 11.466513363600001 26.312132644299993 11.214679952199987 25.808465821500022 10.962846540800001 C25.052965587299980 12.096096892100007 23.793798530400011 13.355263949099992 23.793798530400011 14.488514300399999 C23.416048413300018 21.036182996700006 23.416048413300018 27.583851693100002 23.290131707599983 34.131520389400009 C23.290131707599983 36.523937797700000 23.164215001900004 38.916355205900004 23.793798530400011 41.182855908500017 C24.171548647500003 42.442022965500001 25.682549115799986 43.449356611100001 26.689882761399986 44.582606962400007 C27.697216406999985 43.575273316800008 28.956383463999998 42.693856376899987 29.585966992500005 41.434689319900002 C33.363468163499988 35.138854035000008 36.889135923000026 28.717102044400008 40.540720388299974 22.295350053699991 C40.918470505400023 22.421266759399998 41.296220622500016 22.547183465100005 41.799887445299987 22.673100170800012 C41.170303916799980 29.976269101300005 40.540720388299974 37.153521326200007 39.911136859800024 44.456690256700000 C40.288886976900017 44.708523668099986 40.792553799699988 44.960357079500000 41.170303916799980 45.212190490900014 C42.051720856700001 44.204856845300014 43.436804619300005 43.323439905399994 43.562721324999984 42.316106259799994 C44.570054970599983 31.613186275400011 45.451471910500004 20.910266290999999 46.332888850400025 10.207346306700003 C43.184971207999979 8.696345838300005 42.051720856700001 9.325929366800011 40.792553799699988 12.851597126299993 C38.526053097099975 19.273349117000009 35.629968866000013 25.569184401900003 32.482051223600024 31.487269569700004 C31.348800872299989 33.627853566600010 28.326799935499992 34.635187212200009 26.186215938600014 36.146187680600008 z" />
<glyph unicode="O" horiz-adv-x="54.604981182483812" d="M30.906106051387159 10.112619801999999 C27.377347314687142 8.152198281599993 24.763451954187133 9.459145961800004 23.195114737887138 14.817631450899995 C21.234693217487177 21.613759388200009 21.757472289587156 28.409887325499994 24.240672882087154 35.075320494700009 C24.894146722187145 37.035742015099999 27.115957778687175 38.865468767399989 29.076379298987149 40.172416447700016 C29.599158371087185 40.433805983699983 31.690274659487159 38.342689695300010 32.997222339787186 37.297131551200010 C37.048760148587178 33.768372814499998 39.009181668887152 29.455445469700010 39.531960740987131 23.835570444599995 C40.054739813087167 17.692916347400001 37.832928756687181 13.510683770599996 30.906106051387155 10.112619802000012 zM35.132551028087157 31.872794575000000 C32.829799020987139 33.168092579000017 30.670969014387140 34.463390583000006 28.368217007387159 35.902610587400005 C26.928997002987160 33.455936579899998 24.482322995487152 31.153184572800001 24.194478994587143 28.706510565400009 C23.762712993287153 24.820616553500003 24.770166996387161 20.790800541199985 25.058010997287170 16.760984528800009 C25.489776998587161 12.299402515200001 28.080373006487150 13.594700519100002 30.383125013487131 15.033920523500001 C35.276473028487146 17.912360532399987 37.003537033787154 25.108460554400011 35.132551028087164 31.872794575000000 z" />
<glyph unicode="P" horiz-adv-x="58" d="M29.387221095299999 5.712170385400000 C25.787221095300026 8.812170385400009 23.987221095300015 36.012170385399997 25.787221095300026 39.712170385399986 C28.587221095299981 40.612170385399992 30.687221095300004 41.512170385399997 32.887221095299992 41.912170385400003 C34.987221095300015 42.212170385399986 37.287221095300026 42.112170385399992 39.387221095299992 41.712170385399986 C39.987221095300015 41.612170385399992 40.787221095300026 40.112170385399992 40.787221095300026 39.312170385400009 C40.187221095300004 32.512170385399997 38.587221095299981 26.412170385400003 30.987221095300015 24.112170385399992 C30.087221095299981 23.812170385400009 28.987221095300015 21.912170385400003 28.987221095300015 20.712170385399986 C28.987221095300015 17.112170385399992 29.487221095300015 13.512170385399997 29.687221095300004 9.812170385400009 C29.787221095300026 8.512170385399997 29.487221095300015 7.112170385399992 29.387221095299992 5.712170385399986 zM27.540770791100002 31.012170385400001 C27.340770791099999 27.412170385400003 28.140770791100010 26.412170385400003 30.540770791099987 27.212170385399986 C33.940770791100022 28.312170385400009 37.640770791100010 34.012170385399997 37.340770791099999 37.712170385399986 C37.140770791100010 39.912170385400003 35.940770791100022 40.112170385399992 34.240770791099976 39.812170385400009 C30.340770791099999 39.212170385399986 27.040770791099987 35.112170385399992 27.540770791099987 31.012170385399997 z" />
<glyph unicode="Q" horiz-adv-x="56" d="M42.491287446900003 29.380364332199999 C41.385764658299991 26.395452803199987 40.059137312100006 21.420600254800007 37.737539456200011 17.219613658399993 C36.079255273400008 14.234702129400006 36.079255273400008 12.134208831199999 37.074225783100019 9.038745023300010 C37.626987177300009 7.380460840500007 37.626987177300009 3.732235638399999 36.963673504200017 3.290026522999995 C34.642075648300022 1.742294619099994 34.089314254099975 4.395549311499991 33.315448302099981 6.717147167400014 C32.873239186700005 7.933222234800013 31.104402725000000 9.149297302200011 30.109432215399977 8.928192744499995 C24.360713714999974 7.712117677099997 17.617024705000006 15.892986312200009 17.948681541600024 23.299988995299998 C18.390890657000000 32.918037255499996 23.365743205400008 37.782337525000003 29.003909426800021 41.983324121400017 C36.189807552300010 47.289833506299999 42.491287446900003 42.204428679100005 42.491287446900003 29.380364332200003 zM35.038539553800000 19.611561866100001 C35.038539553799978 19.611561866100004 38.584178499000018 25.999761136100005 38.584178499000018 29.502028397599986 C38.584178499000018 32.829225906900007 35.038549553800010 38.832657200799986 35.038539553799978 38.832657200799986 C30.965924247899977 38.832657200799986 28.055532192399994 37.074801969299983 25.521298174399988 34.540567951300005 C23.075800160799986 34.540567951300005 21.415821500999982 26.988588389900002 21.415821500999982 24.650101419900011 C21.415821500999982 21.783892360999999 22.594325822600013 14.573022312399985 25.521298174399988 14.573022312399985 C25.521298174399988 12.513697129299999 31.119665456400014 11.960446247499988 31.119675456399989 11.960446247499988 C31.119675456399989 11.960446247499988 28.693711967500008 18.834685662299989 28.693711967500008 22.410750507100005 C26.778112690599983 24.326349784099989 31.306288032499992 26.914455638699991 31.306288032499992 23.903651115599985 C31.306288032499992 23.903651115599985 33.918854097400015 18.678498985799990 33.918864097399990 18.678498985799990 C33.918864097399990 18.678498985799990 34.851926977699975 20.358012170400002 34.851926977699975 20.358012170400002 C34.914131169699999 20.109195402300003 34.991886409699987 19.798174442200008 35.038539553799978 19.611561866100004 z" />
<glyph unicode="R" horiz-adv-x="56" d="M26.712394496999998 21.389592327999999 C26.712394496999991 16.624859855799997 26.712394496999991 12.217482319099986 26.712394496999991 7.333631535100011 C24.687383196300004 8.405696341400017 23.496200078299978 9.120406212200010 22.900608519300022 9.477761147600006 C23.377081766499998 17.339569726599990 24.091791637299991 25.082259993900010 24.330028260900008 32.705831949300006 C24.449146572699988 35.326434809000006 21.828543712999988 37.708801045100017 24.449146572699988 40.805877151999994 C27.427104367799984 44.260308194299995 35.527149570500001 45.927964559499998 39.100698924600010 43.188243387999989 C41.959538407900027 40.805877151999994 42.197775031499987 36.517617927000003 39.458053860000007 33.301423508299990 C37.671279182899980 31.157293895900011 35.408031258700021 29.489637530599992 33.621256581599994 27.464626229900006 C32.787428399000021 26.392561423699988 31.953600216300003 24.724905058499985 32.191836840000008 23.533721940400000 C32.310955151799988 22.699893757799998 34.097729828800027 21.985183887000005 35.288912946899984 21.389592327999992 C37.909515806499996 20.079290898099998 40.768355289800013 19.126344403699989 43.269839837699976 17.577806350200007 C43.984549708500026 17.220451414800010 43.746313084900009 15.195440114200011 43.984549708500026 14.004256996099997 C42.793366590500000 14.004256996099997 41.483065160600006 13.527783748899992 40.649236977999976 14.004256996099997 C36.241859441299994 16.148386608599992 32.072718528199971 18.530752844700004 26.712394496999991 21.389592327999992 zM6.113590263700001 71.489858012200003 C6.310297190500023 71.489858012199988 6.300202839800022 72.049695740400011 6.300202839800022 72.049695740400011 M30.523648978000001 29.234600535500000 C30.523648977999983 29.234600535499993 40.811277439899982 37.991678638899998 37.150627002199997 37.991678638899998 C37.150627002199997 37.991678638899998 27.920180642800005 40.358456504700001 27.920193325599996 40.358456504700001 C27.920193325599996 40.358456504700001 27.210159965900004 32.950098393500014 27.210159965900004 29.234600535499993 C28.317470311199997 29.234600535499993 30.523648977999983 28.997922748900010 30.523648977999983 28.997922748900010 C30.523648977999983 29.076815344500005 30.523648977999983 29.175431088900012 30.523648977999983 29.234600535499993 z" />
<glyph unicode="S" horiz-adv-x="51" d="M32.392223922800000 14.156237219799999 C31.167282511999986 13.053789950099997 30.064835242299978 11.706354398299993 28.839893831600023 10.603907128599985 C24.675093034999975 6.806588755200011 18.305397699100013 7.786541883799998 15.488032454400013 13.053789950099997 C15.733020736500009 13.053789950099997 16.100503159699997 13.176284091199989 16.345491441899981 13.298778232199993 C17.692926993699984 12.686307526900009 18.795374263399992 12.196330962600001 19.897821533100000 11.706354398299993 C20.877774661700016 11.216377834000014 21.735233649199984 10.971389551800002 22.592692636700008 10.971389551800002 C22.960175059999983 10.848895410700010 23.327657483200028 10.848895410700010 23.695139906400016 10.848895410700010 C25.287563740400003 10.848895410700010 26.634999292200007 11.461366116100010 27.614952420800023 12.318825103600005 C28.104928985100003 12.563813385799989 28.472411408399978 12.808801667900013 28.839893831600023 13.176284091199989 C28.962387972700014 13.298778232199993 29.084882113700019 13.543766514400005 29.207376254800010 13.666260655499997 C29.207376254800010 13.788754796500001 29.207376254800010 13.788754796500001 29.207376254800010 13.788754796500001 C29.329870395900002 13.911248937599993 29.452364536999994 14.156237219800005 29.574858677999998 14.278731360899997 C29.574858677999998 14.401225501900001 29.574858677999998 14.401225501900001 29.574858677999998 14.401225501900001 C29.697352819099990 14.523719642999993 29.697352819099990 14.768707925200005 29.819846960199982 14.891202066200009 C30.064835242299978 15.258684489500013 30.187329383400026 15.748661053799992 30.309823524500018 16.116143477000008 C30.309823524500018 16.238637618100000 30.309823524500018 16.238637618100000 30.309823524500018 16.361131759100005 C30.677305947700006 17.586073169900004 30.677305947700006 18.933508721700008 30.432317665600010 20.158450132500008 C30.432317665600010 20.280944273599999 30.309823524500018 20.403438414600004 30.309823524500018 20.525932555699995 C30.309823524500018 20.648426696800016 30.309823524500018 20.648426696800016 30.309823524500018 20.648426696800016 C29.697352819099990 22.363344671800007 28.472411408399978 23.833274364700003 26.634999292200007 24.445745070100003 C25.287563740400003 25.548192339800011 23.695139906400016 26.650639609499990 22.470198495700004 27.875581020200002 C20.877774661700016 29.468004854199989 19.285350827699972 31.060428688200005 18.182903558000021 32.897840804300017 C18.672880122300000 33.755299791900001 18.917868404499984 34.612758779399996 19.040362545599976 35.470217766899992 C19.162856686599980 35.715206049100004 19.285350827699972 35.837700190100009 19.407844968800021 36.082688472299992 C20.387798097399980 36.940147459800016 21.612739508099992 37.797606447400000 22.470198495700004 38.410077152700012 C24.430104752899979 39.880006845600008 26.390011010100011 41.227442397499999 28.594905549399982 42.084901384999995 C29.697352819099990 42.574877949300003 31.289776653099977 41.839913102799983 32.637212204899981 41.717418961800007 C31.779753217400014 40.614971692099999 31.044788370999981 39.267536140299995 29.942341101299974 38.410077152700012 C28.594905549399982 37.430124024099996 26.757493433299999 37.062641600900008 25.410057881499995 36.205182613399984 C24.062622329600003 35.347723625800000 21.857727790299975 33.877793932900005 21.980221931400024 33.020334945400009 C22.102716072399971 31.550405252500013 23.817634047500007 30.080475559599989 25.165069599300011 29.100522431000002 C27.247469997599978 27.630592738100006 29.574858677999998 26.650639609499990 31.657259076300022 25.180709916599994 C35.577071590700029 22.240850530800003 35.699565731800021 17.586073169900004 32.392223922799985 14.156237219800005 z" />
<glyph unicode="T" horiz-adv-x="61.127946877299998" d="M34.210896855400001 33.606378063800001 C34.210896855399994 27.250618051999993 34.210896855399994 18.965430893899992 34.210896855399994 10.339756592300006 C28.309119701600025 12.836662311200001 31.260008278499981 17.376490891000003 31.033016849499973 20.667866611299985 C30.692529706000016 25.207695191100015 30.919521135000025 29.747523770899988 30.919521135000025 34.627839494200003 C29.444076846600012 34.514343779699999 27.855136843699995 34.627839494200003 26.493188269699999 34.173856636200014 C24.223273979800013 33.379386634799999 23.315308263900022 34.173856636200014 23.088316834900013 36.330275211599997 C22.747829691400000 38.827180930499992 23.996282550800004 39.281163788500010 26.039205411699982 39.054172359500001 C27.401153985699978 38.940676644999996 28.876598274099990 39.054172359500001 30.011555419099977 39.054172359500001 C30.806025420500021 40.302625218999992 31.600495421999995 41.551078078399996 32.394965423399981 42.686035223299996 C33.416426853900020 41.891565221900009 34.437888284400003 40.983599505900003 35.345854000299994 40.302625218999992 C38.523734006200016 40.302625218999992 42.042101155500006 40.302625218999992 46.127946877300019 40.302625218999992 C43.971528301899980 33.152395205799991 37.729264004699985 39.167668074000005 34.210896855399994 33.606378063800008 z" />
<glyph unicode="U" horiz-adv-x="56" d="M19.438354692099999 40.605522791100000 C20.138354692099995 36.605522791099986 20.838354692099983 32.505522791099992 21.538354692100029 28.505522791099992 C22.138354692099995 25.205522791100009 22.738354692100017 21.905522791099997 23.438354692100006 18.605522791099986 C23.638354692099995 17.805522791100003 24.338354692099983 17.105522791099986 24.738354692100017 16.405522791099997 C25.538354692100029 17.105522791099986 26.838354692099983 17.705522791100009 27.138354692099995 18.605522791099986 C28.938354692100006 24.005522791099992 30.438354692100006 29.505522791099992 32.038354692099972 35.005522791099992 C32.438354692100006 36.205522791100009 33.038354692099972 37.305522791100003 33.538354692099972 38.505522791099992 C33.938354692100006 38.505522791099992 34.238354692100017 38.505522791099992 34.638354692099995 38.405522791099997 C35.038354692100029 37.305522791100003 35.638354692099995 36.305522791100003 35.838354692099983 35.205522791100009 C36.838354692099983 28.605522791099986 37.738354692100017 22.005522791099992 38.538354692100029 15.405522791099997 C38.638354692099995 14.405522791099997 37.838354692099983 13.405522791099997 37.538354692100029 12.305522791100003 C36.838354692099983 13.205522791100009 35.538354692100029 14.005522791099992 35.438354692100006 14.905522791099997 C34.838354692099983 19.305522791100003 34.638354692099995 23.705522791100009 33.538354692099972 28.205522791100009 C32.538354692099972 25.305522791100003 31.638354692099995 22.505522791099992 30.638354692099995 19.605522791099986 C30.238354692100017 18.405522791099997 30.038354692099972 16.905522791099997 29.238354692100017 16.105522791099986 C27.838354692099983 14.705522791100009 26.038354692099972 12.905522791099997 24.438354692100006 13.005522791099992 C23.138354692099995 13.105522791099986 21.338354692099983 15.505522791099992 20.938354692100006 17.205522791100009 C19.438354692100006 23.805522791100003 18.138354692099995 30.505522791099992 16.938354692100006 37.305522791100003 C16.738354692100017 38.305522791100003 17.938354692100006 39.605522791099986 18.438354692100006 40.705522791100009 C18.838354692099983 40.705522791100009 19.138354692099995 40.705522791100009 19.438354692100006 40.605522791099986 z" />
<glyph unicode="V" horiz-adv-x="56" d="M40.771455322300000 43.851548943099999 C39.830002830900014 41.144873030500008 38.653187216700019 38.555878679300008 37.476371602500024 35.966884328100008 C33.475198514300018 27.611493467400010 29.474025426100013 19.373784168100002 25.119807653599992 10.429985500300006 C24.296036723700013 11.842164237300011 23.589947355200025 12.312890482999990 23.707628916600015 12.665935167199990 C25.355170776399973 18.432331676699988 21.353997688200025 22.786549449200010 20.177182073999973 27.846856590199991 C19.353411144099994 31.377303432800005 18.058913968500008 34.907750275300003 17.470506161400010 38.438197117900017 C17.352824600000019 39.615012732100013 18.529640214200015 41.027191469099989 19.471092705499984 43.263141136000002 C19.941818951199991 42.439370206099994 20.294863635400020 41.850962398999997 20.647908319699980 41.380236153299990 C20.647908319699980 40.556465223399982 20.765589881100027 39.732694293500003 20.647908319699980 38.791241802099989 C20.647908319699980 38.791241802099989 20.647908319699980 38.673560240699999 20.647908319699980 38.673560240699999 C20.647908319699980 36.790655258000015 21.236316126799977 35.025431836699994 21.236316126799977 33.142526854099998 C21.236316126799977 32.789482169800010 21.353997688200025 32.201074362700012 21.589360811000006 31.730348117000005 C22.060087056700013 29.729761572900003 22.648494863800011 27.846856590199991 23.236902670900008 25.846270046099988 C23.354584232299999 25.257862238999991 23.589947355200025 24.669454431899993 23.825310478000006 24.081046624799995 C23.707628916600015 23.374957256300007 23.942992039399996 22.551186326400000 24.296036723700013 21.962778519300002 C24.296036723700013 21.727415396499993 24.413718285100003 21.609733834999986 24.413718285100003 21.492052273599995 C24.060673600799987 20.079873536599990 24.531399846499994 18.079286992499988 25.943578583500027 18.079286992499988 C27.002712636299975 18.079286992499988 27.473438881999982 19.020739483800014 27.473438881999982 20.079873536599990 C27.826483566200011 20.550599782299997 27.944165127600002 21.139007589399995 27.944165127600002 21.727415396499993 C28.414891373300009 22.198141642100012 28.650254496099990 23.139594133499997 28.532572934699999 23.963365063400005 C29.003299180400006 24.316409747699993 29.238662303199987 25.022499116200009 29.238662303199987 25.846270046099988 C31.356930408799997 31.024258748499989 33.475198514300018 36.084565889499999 35.593466619799983 41.262554591899999 C36.181874426899981 42.674733328999991 36.652600672599988 44.204593627400016 37.476371602500024 45.381409241600011 C37.947097848199974 46.087498610099999 39.241595023800016 46.205180171499990 40.065365953699995 46.558224855800006 C40.418410638000012 45.616772364399992 41.124500006500000 44.557638311599987 40.771455322299971 43.851548943099999 z" />
<glyph unicode="W" horiz-adv-x="56" d="M24.345503325500001 19.425938057800000 C25.609642145500004 22.333457343800006 26.873780965399988 25.367390511800011 28.264333667400024 28.148495915700011 C28.769989195400001 29.159806971699993 29.781300251400012 29.918290263699987 30.666197425400014 30.929601319699998 C31.298266835400000 29.791876381700007 32.183164009400002 28.654151443699988 32.688819537399979 27.516426505699997 C33.826544475399999 24.482493337800008 34.711441649400001 21.448560169800004 35.722752705400012 18.288213119799991 C36.101994351399981 18.414627001800000 36.481235997400006 18.414627001800000 36.860477643399975 18.541040883800008 C37.113305407300004 19.678765821799999 37.492547053299973 20.690076877800010 37.492547053299973 21.827801815800001 C37.492547053299973 29.033393089699985 37.113305407300004 36.238984363700013 37.113305407300004 43.444575637599996 C37.113305407300004 44.708714457599996 38.630271991299992 46.099267159600004 39.515169165299994 47.363405979600003 C40.273652457299988 46.478508805600001 41.664205159300025 45.593611631599998 41.664205159300025 44.708714457599996 C40.905721867299974 32.952223431699991 40.020824693300028 21.195732405800015 39.135927519300026 9.439241379900011 C39.135927519300026 8.933585851900006 38.630271991299992 8.427930323900000 37.871788699299998 7.037377621899992 C35.090683295400027 12.599588429899995 32.688819537399979 17.656143709800006 29.654886369400003 23.724010045800014 C28.011505903400007 19.552351939800019 26.873780965399988 16.265591007799998 25.483228263499996 13.105243957900001 C24.977572735500019 12.093932901899990 24.219089443500025 11.209035727899987 23.460606151499974 10.197724671900005 C22.702122859499980 11.082621845900007 21.437984039500009 11.841105137900001 21.185156275499992 12.852416193900012 C19.288948045499978 21.069318523800007 17.519153697499974 29.286220853700001 16.002187113499986 37.503123183699984 C15.749359349500025 39.146503649599993 17.013498169499996 41.042711879600006 18.530464753499984 42.306850699600005 C19.921017455500021 34.595603897700016 21.311570157500000 26.884357095700011 22.702122859499980 19.046696411799985 C23.207778387500014 19.173110293799994 23.839847797499999 19.299524175800002 24.345503325499976 19.425938057800010 z" />
<glyph unicode="X" horiz-adv-x="56" d="M40.119407740200003 7.357634630500000 C34.294989275500029 9.992490602600014 35.820432206699991 17.064998738399993 31.937486563499988 20.947944381599996 C29.025277331100028 17.064998738399993 25.974391468699991 13.182053095300006 22.923505606200024 9.160430821999995 C19.872619743700000 11.795286794100008 20.288649634000024 14.291466136200000 23.200858866399983 16.510292217999989 C33.185576234499990 24.137506874200000 31.937486563499988 27.049716106599988 25.003655057900005 38.282523145799985 C24.032918647100018 39.669289446899995 22.923505606200024 41.056055748000006 21.814092565199985 42.581498679300012 C22.923505606200024 43.690911720200006 23.894242016900023 44.939001391200009 25.419684948199972 46.603120952599994 C26.806451249299982 43.552235090099998 27.915864290199977 40.778702487799990 29.163953961300024 38.143846515700005 C30.550720262399977 35.508990543500005 31.937486563499988 32.874134571399992 33.324252864699986 30.516631859400007 C36.097785466900007 34.122224242399994 38.871318069200015 37.450463365100006 41.644850671500024 40.778702487799990 C45.111766424300015 39.114582926499992 45.527796314599982 37.450463365100006 42.754263712400018 35.370313913399997 C41.922203931699983 34.815607392900006 41.228820781100012 34.122224242399994 40.674114260699980 33.428841091799995 C34.711019165799996 27.188392736699996 34.433665905599980 25.385596545200002 38.177934918599988 17.619705258900012 C41.228820781100012 11.517933533899992 41.228820781100012 11.517933533899992 40.119407740200018 7.357634630500002 z" />
<glyph unicode="Y" horiz-adv-x="56" d="M23.396832995299999 3.534279918900000 C20.011161803700020 6.686456545499993 21.528876475800018 8.787907629899991 23.163338430299973 10.889358714400004 C25.381536797199999 13.691293493600000 27.599735164100025 16.493228272799996 29.701186248499994 19.411910334499993 C32.036131897900020 22.564086961100003 31.335648203000005 25.249274457799999 28.533713423800009 27.934461954600010 C26.315515057000027 30.035913039000008 24.564305819900028 32.721100535700003 23.163338430299973 35.406288032500015 C22.112612888099989 37.390991834399983 22.579602018000003 39.375695636399996 25.264789514699999 39.959432048699995 C26.782504186799997 34.472309772800003 26.782504186799997 34.472309772800003 34.487824829700003 28.985187496799995 C35.655297654300000 31.086638581199992 36.706023196499984 33.188089665599989 37.990243303700026 35.056046185100001 C39.157716128400011 36.690508139600013 40.792178082900023 38.091475529200011 42.309892755000021 39.609190201300009 C42.893629167299991 39.142201071499983 43.360618297200006 38.791959224099998 43.944354709499976 38.324970094200012 C37.173012326399999 26.883736412399998 30.401669943300021 15.442502730599983 23.396832995299974 3.534279918900012 z" />
<glyph unicode="Z" horiz-adv-x="56" d="M39.046027933100000 31.529073382000000 C34.586247097800026 26.945409745799992 30.126466262500003 22.361746109499990 25.790568228300003 17.778082473300003 C25.295037024299972 17.158668468400009 25.171154223299993 16.291488861500000 24.551740218500015 15.052660851700011 C24.180091815500020 14.804895249800012 23.932326213500005 14.681012448800004 23.684560611599977 14.433246846900005 C23.436795009600019 14.309364045800010 23.312912208599982 14.061598443900010 23.189029407600003 13.813832841899995 C21.454670193900029 13.566067239999995 19.720310980199997 13.194418837000001 17.862068965499986 12.946653234999985 C18.233717368399994 13.689950041000003 18.481482970400009 14.557129647799997 18.605365771399988 15.424309254599990 C18.853131373400004 15.548192055699985 19.100896975299975 15.795957657600013 19.224779776300011 16.043723259600000 C20.959138989999985 17.406434070300008 22.817381004699996 18.645262080099997 24.303974616400012 20.379621293900016 C28.392107048800028 25.087167731100010 32.232473879199972 30.042479770300019 36.072840709599973 34.873909008499993 C35.825075107600014 35.369440212499995 35.701192306599978 35.741088615400002 35.577309505599999 36.236619819300017 L18.853131373400004 36.236619819300017 C18.729248572400024 36.608268222300012 18.729248572400024 37.103799426100011 18.605365771399988 37.475447829100005 C19.596428179200018 38.218744635000007 20.587490587099978 39.581455445699987 21.578552994900008 39.581455445699987 C27.153279038999983 39.581455445699987 32.851887884099995 39.705338246700023 38.550496729200006 39.085924241800001 C40.656504345799988 38.838158639900001 40.780387146800024 33.387315396800005 39.046027933099992 31.529073382000007 zM22.569615402800000 14.278750447500000 C28.887638252700015 13.039922437700000 35.453426704700007 14.526516049500003 41.895332355599976 13.535453641599986 C43.877457171300023 13.163805238700007 40.780387146800024 11.429446024899988 39.665441938000015 11.553328825899996 C33.223536287000002 12.544391233800013 26.781630636099976 10.933914821099989 20.339724985100020 12.296625631799998 C18.357600169399973 12.668274034700005 21.330787392999980 14.402633248499995 22.569615402800025 14.278750447499988 zM39.169910733999998 11.305563224000000 C38.674379530099998 13.287688039700015 21.454670193900029 12.172742830900006 19.224779776300011 12.172742830900006 C16.747123756699978 12.172742830900006 19.224779776300011 14.154867646599996 20.587490587099978 14.154867646599996 C25.542802626200000 14.154867646599996 30.621997466499977 14.154867646599996 35.577309505599999 14.154867646599996 C37.683317122300025 14.154867646599996 42.019215156600012 15.022047253399990 42.762511962400026 12.296625631799998 C43.010277564500029 10.933914821099989 39.417676336000000 10.066735214200008 39.169910733999984 11.305563223999997 zM41.152035549700003 11.553328825900000 C40.532621544800008 11.057797622000010 39.541559136999979 10.810032020100010 38.674379530099998 10.933914821099989 C36.940020316400023 11.181680422999989 35.081778301700012 11.429446024899988 33.347419087999981 11.677211626900004 C32.480239481100000 11.801094427999999 32.480239481100000 12.420508432800005 32.975770685099974 12.916039636800008 C33.595184689900009 13.411570840699994 34.586247097800026 13.659336442599994 35.453426704700007 13.535453641599986 C37.187785918399982 13.287688039700015 39.046027933099992 13.039922437700000 40.780387146800024 12.792156835700013 C41.647566753600017 12.668274034700005 41.647566753600017 12.048860029899998 41.152035549699974 11.553328825899996 z" />
<glyph unicode="a" horiz-adv-x="56" d="M27.357403651100000 16.590669371200001 C25.257403651099992 14.390669371200005 23.657403651100026 12.390669371200005 21.757403651099992 10.790669371200011 C21.057403651100003 10.190669371199988 19.157403651100026 9.690669371199988 18.757403651099992 10.190669371199988 C17.857403651100014 11.190669371199988 17.157403651100026 12.690669371199988 17.057403651100003 13.990669371199999 C16.957403651099980 15.290669371200011 17.257403651099992 16.890669371200005 17.957403651099980 17.990669371199999 C19.557403651100003 20.690669371199988 21.357403651100014 23.390669371200005 23.557403651100003 25.590669371199994 C24.457403651099980 26.490669371199999 26.757403651099992 26.290669371200011 28.157403651100026 25.890669371200005 C28.857403651100014 25.690669371199988 29.157403651100026 23.890669371200005 29.557403651100003 22.790669371200011 C30.357403651100014 20.290669371200011 31.057403651100003 17.790669371200011 31.657403651100026 15.290669371200011 C31.857403651100014 14.190669371199988 31.657403651100026 13.090669371199994 31.657403651100026 11.890669371200005 C30.557403651100003 12.490669371199999 29.357403651100014 12.890669371200005 28.457403651099980 13.690669371199988 C27.757403651099992 14.390669371200005 27.657403651100026 15.590669371199994 27.357403651100014 16.590669371199994 zM25.957403651100002 20.790669371200000 C25.557403651100003 21.090669371199994 25.257403651099992 21.290669371200011 24.857403651100014 21.590669371199994 C21.957403651099980 19.790669371200011 19.857403651100014 17.590669371199994 19.957403651099980 13.990669371199999 C20.257403651099992 13.790669371200011 20.557403651100003 13.590669371199994 20.957403651099980 13.290669371200011 C22.557403651100003 15.790669371200011 24.257403651099992 18.290669371200011 25.957403651099980 20.790669371200011 z" />
<glyph unicode="b" horiz-adv-x="56" d="M23.280933062900001 19.712981744400000 C23.580933062899987 20.012981744400008 24.280933062899976 21.112981744400003 25.180933062900010 21.312981744399991 C27.080933062899987 21.812981744399991 30.580933062899987 22.512981744400008 30.980933062900021 21.712981744399997 C32.180933062900010 19.512981744400008 32.880933062899999 16.612981744400003 32.480933062900021 14.112981744400003 C31.780933062899976 9.612981744400003 26.280933062899976 6.912981744399985 21.980933062900021 8.112981744400003 C18.780933062899976 9.012981744400008 20.080933062899987 11.912981744399985 19.980933062900021 13.612981744400003 C19.880933062899999 21.112981744400003 20.280933062899976 28.612981744400003 20.580933062899987 36.012981744400008 C20.680933062900010 37.112981744400003 21.680933062900010 38.112981744400003 22.180933062900010 39.212981744399997 C22.580933062899987 38.112981744400003 23.180933062900010 37.012981744400008 23.180933062900010 35.912981744399985 C23.380933062899999 30.412981744399985 23.280933062899976 24.812981744399991 23.280933062899976 19.712981744399997 zM30.180933062899999 19.512981744400001 C24.480933062900021 19.112981744400003 24.980933062900021 14.712981744399997 23.380933062899999 11.712981744399997 C25.480933062900021 11.712981744399997 27.880933062899999 11.812981744399991 28.780933062899976 13.112981744400003 C29.780933062899976 14.612981744400003 29.680933062900010 17.012981744400008 30.180933062900010 19.512981744400008 z" />
<glyph unicode="c" horiz-adv-x="56" d="M31.482352941199998 25.374036511200000 C30.382352941199997 23.674036511200001 29.982352941200020 22.274036511199995 29.182352941200008 21.874036511199989 C25.282352941199974 19.974036511200012 23.282352941199974 18.074036511200006 20.982352941200020 13.274036511199995 C24.682352941200008 12.374036511199989 28.182352941200008 11.474036511200012 32.682352941200008 10.374036511199989 C31.682352941200008 9.474036511200012 30.882352941199997 8.374036511199989 30.082352941199986 8.374036511199989 C27.482352941200020 8.174036511200001 24.582352941199986 6.574036511200006 22.582352941199986 9.674036511200001 C22.482352941200020 9.874036511199989 22.182352941200008 9.974036511200012 21.982352941200020 9.974036511200012 C17.582352941199986 11.574036511200006 16.882352941199997 12.174036511200001 19.382352941199997 16.074036511200006 C21.482352941200020 19.674036511200001 24.882352941199997 22.474036511200012 27.882352941199997 25.374036511199989 C28.282352941199974 25.774036511199995 29.582352941199986 25.374036511199989 31.482352941200020 25.374036511199989 z" />
<glyph unicode="d" horiz-adv-x="56" d="M26.728194726200002 21.900405679500000 C28.428194726199990 26.900405679500011 25.928194726199990 32.100405679500000 28.228194726200002 36.600405679500000 C28.728194726200002 36.600405679500000 29.128194726199979 36.600405679500000 29.628194726199979 36.600405679500000 C29.728194726200002 34.300405679499988 29.928194726199990 32.000405679500005 29.928194726199990 29.700405679499994 C30.028194726200013 23.200405679499994 29.928194726199990 16.800405679499988 30.028194726200013 10.300405679499988 C30.028194726200013 8.000405679500005 30.228194726200002 5.900405679500011 26.728194726200002 6.800405679499988 C25.728194726200002 7.100405679500000 24.328194726200024 5.500405679500005 23.128194726199979 5.600405679500000 C19.828194726200024 5.900405679500011 17.328194726200024 8.700405679499994 17.628194726199979 12.400405679500011 C17.828194726200024 15.300405679499988 19.228194726200002 18.100405679500000 20.328194726200024 20.900405679500011 C20.628194726199979 21.500405679500005 22.128194726199979 21.700405679499994 23.028194726200013 21.800405679499988 C24.428194726199990 22.000405679500005 25.628194726199979 21.900405679500011 26.728194726200002 21.900405679500011 zM26.928194726200001 10.400405679500000 C26.728194726200002 13.200405679499994 26.728194726200002 14.900405679500011 26.328194726200024 16.600405679500000 C26.128194726199979 17.400405679500011 25.228194726200002 18.600405679500000 24.528194726200013 18.700405679499994 C23.628194726199979 18.800405679499988 22.128194726199979 18.400405679500011 21.628194726199979 17.600405679500000 C20.728194726200002 16.300405679499988 20.128194726199979 14.700405679499994 19.928194726199990 13.100405679500000 C19.628194726199979 11.100405679500000 22.728194726200002 7.900405679500011 24.528194726200013 8.400405679500011 C25.628194726199979 8.700405679499994 26.428194726199990 10.000405679500005 26.928194726199990 10.400405679500011 z" />
<glyph unicode="e" horiz-adv-x="56" d="M18.478296145999998 13.674036511200001 C19.278296146000002 8.874036511199989 21.778296146000002 7.574036511200006 26.578296146000014 8.674036511200001 C27.478296145999991 8.874036511199989 28.478296145999991 8.474036511200012 29.378296146000025 8.274036511199995 C28.778296146000002 7.374036511199989 28.278296146000002 6.174036511200001 27.378296146000025 5.774036511199995 C24.678296145999980 4.374036511199989 18.978296145999991 5.174036511200001 17.678296145999980 6.974036511200012 C15.178296145999980 10.274036511199995 15.278296146000002 16.774036511199995 17.878296146000025 19.574036511200006 C19.178296145999980 20.974036511200012 20.178296145999980 22.674036511200001 21.678296145999980 23.774036511199995 C23.178296145999980 24.774036511199995 26.278296146000002 25.874036511199989 26.578296146000014 25.474036511200012 C27.878296146000025 23.574036511200006 29.278296146000002 21.074036511200006 29.178296145999980 18.774036511199995 C29.078296146000014 15.374036511199989 25.678296145999980 13.274036511199995 22.078296146000014 13.374036511199989 C21.078296146000014 13.474036511199984 19.878296146000025 13.574036511200006 18.478296145999991 13.674036511200001 zM24.732454361100000 23.336511156200000 C23.132454361099974 21.236511156200010 19.332454361100019 21.536511156199992 19.732454361099997 17.036511156199992 C22.232454361099997 17.536511156199992 24.632454361099974 17.936511156199998 27.632454361099974 18.436511156199998 C26.332454361100019 20.536511156199992 25.632454361099974 21.836511156200004 24.732454361099997 23.336511156200004 z" />
<glyph unicode="f" horiz-adv-x="56" d="M24.963273106799999 7.173212254800000 C24.563273106800011 10.673212254800006 24.163273106799977 14.073212254800012 23.763273106800000 17.573212254800012 C20.963273106799988 17.373212254799995 18.463273106799988 17.073212254800012 15.863273106800023 16.873212254799995 C15.063273106800011 19.173212254800006 16.163273106799977 20.773212254800001 18.163273106799977 21.373212254799995 C19.863273106800023 21.773212254800001 21.763273106800000 21.273212254800001 23.363273106800023 21.173212254800006 C24.063273106800011 26.873212254799995 24.463273106799988 32.273212254800001 25.363273106800023 37.673212254800006 C25.963273106799988 41.073212254800012 29.863273106800023 44.273212254800001 34.063273106800011 40.873212254799995 C34.763273106800000 40.273212254800001 34.863273106800023 38.973212254799989 35.263273106800000 37.973212254799989 C34.163273106799977 37.873212254799995 32.763273106800000 37.373212254799995 32.063273106800011 37.873212254799995 C29.563273106800011 39.673212254800006 28.163273106799977 38.973212254799989 27.763273106800000 36.173212254800006 C27.063273106800011 31.573212254800012 26.663273106799977 26.873212254799995 26.063273106800011 21.573212254800012 C28.663273106799977 21.673212254800006 30.463273106799988 21.973212254799989 32.163273106799977 21.773212254800001 C33.263273106800000 21.673212254800006 34.263273106800000 20.873212254799995 35.263273106800000 20.373212254799995 C34.363273106800023 19.773212254800001 33.463273106799988 18.573212254800012 32.563273106800011 18.573212254800012 C25.763273106800000 17.973212254799989 25.763273106800000 18.073212254800012 27.463273106799988 10.973212254799989 C28.163273106799977 7.873212254799995 28.163273106799977 7.873212254799995 24.963273106799988 7.173212254800006 z" />
<glyph unicode="g" horiz-adv-x="56" d="M27.994929006100001 10.111764705900001 C25.994929006099994 9.111764705899986 23.794929006100006 7.811764705900003 21.494929006099994 7.211764705900009 C18.994929006099994 6.511764705899992 16.294929006100006 9.311764705900003 16.494929006099994 12.011764705899992 C16.994929006099994 17.711764705900009 21.894929006100028 22.111764705900015 27.694929006099983 21.311764705900003 C29.194929006099983 21.111764705899986 31.394929006100028 18.911764705899998 31.494929006099994 17.611764705899986 C31.694929006099983 10.611764705899986 31.394929006100028 3.611764705899986 30.894929006100028 -3.288235294099991 C30.694929006099983 -5.288235294099991 29.194929006099983 -7.388235294100014 27.794929006100006 -8.888235294100014 C25.994929006099994 -10.788235294099991 23.494929006099994 -10.188235294100025 22.094929006100017 -7.888235294100014 C21.694929006099983 -7.188235294099997 21.194929006099983 -6.588235294100002 20.894929006100028 -5.888235294100014 C20.494929006099994 -4.988235294100008 20.294929006100006 -4.088235294100002 19.994929006099994 -3.188235294099997 C20.994929006099994 -3.388235294100014 22.094929006100017 -3.388235294100014 23.094929006100017 -3.888235294100014 C24.094929006100017 -4.388235294100014 24.994929006099994 -5.188235294099997 25.894929006100028 -5.888235294100014 C26.694929006099983 -4.388235294100014 27.794929006100006 -2.988235294100008 28.194929006099983 -1.388235294100014 C28.694929006099983 0.611764705899986 28.994929006099994 2.811764705900003 28.894929006100028 4.811764705900003 C28.794929006100006 6.911764705899998 28.194929006099983 8.811764705900003 27.994929006099994 10.111764705899986 zM21.987829614599999 16.398580121700000 C23.221095334700010 16.706896551699998 24.454361054800017 17.015212981699989 25.687626774799980 17.323529411799996 M21.525354969600002 15.936105476700000 C21.525354969600016 15.936105476699993 17.602731903500000 10.540567951300005 19.521298174399988 10.540567951300005 C19.521298174399988 10.014323981600000 22.805197953400011 10.078093306299991 23.529411764700001 10.078093306299991 C23.529411764700001 10.078093306299991 26.612576064899997 12.852931176499993 26.612576064899997 12.852941176499996 C26.612576064899997 14.105908979100008 25.841784989900020 15.938783032000003 25.841784989900020 16.861054766699993 C25.841784989900020 17.079067405199993 25.379310344799990 17.323529411799996 25.379310344799990 17.323529411799996 " />
<glyph unicode="h" horiz-adv-x="56" d="M27.974645030400001 19.525557809300000 C25.474645030399984 14.425557809300017 23.074645030400006 9.225557809300000 20.574645030400006 4.125557809300005 C20.174645030399972 4.225557809300000 19.774645030399995 4.325557809299994 19.274645030399995 4.425557809299988 C18.974645030399984 5.925557809299988 18.574645030400006 7.425557809299988 18.574645030400006 8.925557809299988 C18.474645030399984 15.225557809300000 18.374645030400018 21.525557809300011 18.574645030400006 27.825557809299994 C18.774645030399995 31.925557809299988 19.474645030399984 36.025557809299983 20.174645030399972 40.225557809300000 C20.274645030399995 40.825557809299994 21.574645030400006 41.325557809299994 22.274645030399995 41.825557809299994 C22.574645030400006 40.925557809300017 23.374645030400018 39.925557809300017 23.174645030399972 39.125557809300005 C20.874645030400018 30.625557809300005 21.874645030400018 22.025557809300011 21.874645030400018 13.425557809299988 C21.874645030400018 13.125557809300005 22.074645030400006 12.825557809299994 22.274645030399995 12.025557809300011 C24.674645030399972 15.825557809299994 24.274645030399995 21.325557809299994 30.474645030399984 22.625557809300005 C31.074645030400006 20.925557809299988 32.174645030399972 19.025557809300011 32.474645030399984 17.125557809300005 C33.174645030399972 13.325557809299994 33.474645030399984 9.525557809300011 33.774645030399995 5.725557809300000 C33.874645030400018 4.925557809299988 32.774645030399995 4.025557809300011 32.274645030399995 3.225557809300000 C31.674645030399972 4.125557809300005 30.574645030400006 4.925557809299988 30.474645030399984 5.825557809299994 C30.274645030399995 8.825557809299994 30.474645030399984 11.925557809299988 30.274645030399995 14.925557809299988 C30.174645030399972 16.525557809300011 29.574645030400006 18.125557809300005 29.274645030399995 19.625557809300005 C28.774645030399995 19.525557809300011 28.374645030400018 19.525557809300011 27.974645030399984 19.525557809300011 z" />
<glyph unicode="i" horiz-adv-x="56" d="M26.086206896600000 23.919472616600000 C26.586206896600004 22.219472616600001 27.186206896600027 21.219472616600001 27.186206896600027 20.219472616600001 C27.186206896600027 16.219472616600001 27.086206896600004 12.319472616599995 26.886206896600015 8.319472616599995 C26.886206896600015 7.419472616599990 26.186206896600027 6.619472616600007 25.786206896599992 5.819472616599995 C24.986206896599981 6.519472616600012 23.586206896600004 7.319472616599995 23.586206896600004 8.019472616600012 C23.686206896600027 12.519472616600012 24.086206896600004 17.019472616600012 24.586206896600004 21.419472616599990 C24.586206896600004 22.019472616600012 25.186206896600027 22.519472616600012 26.086206896600004 23.919472616599990 zM24.786206896600000 30.419472616600000 C25.686206896600027 31.419472616599990 26.186206896600027 32.119472616600007 26.786206896599992 32.819472616599995 C27.486206896599981 31.919472616599990 28.686206896600027 31.119472616600007 28.886206896600015 30.219472616600001 C28.986206896599981 29.519472616600012 27.686206896600027 28.619472616600007 27.086206896600004 27.819472616599995 C26.386206896600015 28.619472616600007 25.686206896600027 29.319472616599995 24.786206896599992 30.419472616599990 z" />
<glyph unicode="j" horiz-adv-x="17.799999999999997" d="M-24.501014198800004 -6.826166328600000 C-23.901014198800013 -6.926166328600004 -23.801014198799990 -6.926166328600004 -23.701014198800024 -7.026166328599999 C-22.101014198800002 -8.626166328599993 -20.401014198800013 -10.126166328599993 -18.801014198799990 -11.726166328600016 C-18.001014198799979 -9.626166328599993 -16.701014198800024 -7.626166328599993 -16.501014198799979 -5.526166328599999 C-15.801014198799990 1.173833671399990 -15.501014198799979 7.873833671400007 -15.001014198799979 14.573833671399996 C-14.901014198800013 15.473833671400001 -14.001014198799979 16.373833671400007 -13.501014198799979 17.273833671399984 C-13.001014198799979 16.473833671400001 -12.101014198800002 15.673833671399990 -12.101014198800002 14.873833671400007 C-12.801014198799990 6.273833671400013 -13.401014198800013 -2.226166328599987 -14.401014198800013 -10.726166328600016 C-14.801014198799990 -13.926166328600004 -18.001014198799979 -16.626166328599993 -20.201014198800024 -15.626166328599993 C-22.601014198800002 -14.526166328599970 -24.801014198799990 -12.626166328599993 -24.701014198800024 -9.426166328600004 C-24.701014198800024 -8.626166328599993 -24.601014198800002 -7.826166328600010 -24.501014198799979 -6.826166328600010 zM-12.401014198800002 29.073833671399999 C-11.701014198800024 26.773833671399984 -12.401014198800013 25.373833671400007 -14.601014198800002 25.073833671399996 C-15.101014198800002 24.973833671400001 -16.101014198800002 26.073833671399996 -16.101014198800002 26.473833671400001 C-15.801014198799990 28.573833671399996 -14.801014198799990 29.773833671399984 -12.401014198800013 29.073833671399996 z" />
<glyph unicode="k" horiz-adv-x="56" d="M21.721095334699999 36.413793103400003 C24.021095334700021 31.013793103399991 21.121095334699987 25.013793103399991 22.721095334700010 19.313793103400002 C26.521095334700021 21.813793103400002 28.121095334699987 27.113793103399985 33.621095334699987 27.813793103400002 C34.221095334700010 20.813793103400002 26.521095334700021 21.013793103399991 24.521095334700021 15.913793103399996 C25.921095334699999 14.913793103399996 27.621095334699987 13.913793103399996 29.121095334699987 12.713793103400008 C29.921095334699999 12.013793103399991 30.221095334700010 10.913793103399996 30.721095334700010 9.913793103399996 C29.621095334699987 9.613793103400013 28.321095334699976 8.813793103400002 27.421095334699999 9.213793103400008 C25.921095334699999 9.813793103400002 24.621095334699987 11.113793103400013 22.821095334699976 12.513793103399991 C22.621095334699987 10.313793103400002 22.421095334699999 8.413793103399996 22.221095334700010 6.513793103399991 C21.821095334699976 6.313793103400002 21.521095334700021 6.113793103400013 21.121095334699987 5.913793103399996 C20.421095334699999 7.013793103399991 19.121095334699987 8.013793103399991 19.121095334699987 9.113793103400013 C19.121095334699987 17.213793103400008 19.421095334699999 25.213793103400008 19.721095334700010 33.313793103400002 C19.721095334700010 34.413793103399996 20.221095334700010 35.413793103399996 20.521095334700021 36.513793103399991 C21.021095334700021 36.413793103399996 21.421095334699999 36.413793103399996 21.721095334700010 36.413793103399996 z" />
<glyph unicode="l" horiz-adv-x="56" d="M25.059634888400002 4.291683570000000 C24.759634888400001 11.091683569999987 24.259634888400001 17.491683569999992 24.259634888400001 23.891683569999998 C24.259634888400001 27.791683570000004 25.059634888400012 31.791683570000004 25.259634888400001 35.691683570000009 C25.359634888400024 37.491683569999992 24.959634888399989 39.391683569999998 24.859634888400024 41.291683570000004 C24.859634888400024 43.491683569999992 25.759634888400001 44.391683569999998 28.159634888399978 43.091683569999987 C27.859634888400024 35.991683569999992 27.459634888399989 28.691683570000009 27.059634888400012 21.491683569999992 C27.059634888400012 20.591683569999987 26.959634888399989 19.591683569999987 26.959634888399989 18.691683570000009 C27.159634888399978 13.991683569999992 29.559634888400012 9.091683569999987 25.059634888400012 4.291683570000004 z" />
<glyph unicode="m" horiz-adv-x="56" d="M20.115821500999999 16.515821501000001 C19.115821501000028 13.015821501000005 18.215821500999994 9.415821501000011 17.215821500999994 5.915821501000011 C16.815821501000016 5.915821501000011 16.415821500999982 6.015821501000005 16.015821501000005 6.015821501000005 C15.815821501000016 10.815821500999988 15.515821501000005 15.515821501000005 15.415821500999982 20.315821500999988 C15.415821500999982 20.715821500999994 16.215821500999994 21.115821500999999 16.715821500999994 21.515821501000005 C17.315821501000016 20.715821500999994 18.015821501000005 19.915821501000011 18.615821501000028 19.115821500999999 C19.815821501000016 20.015821501000005 21.215821500999994 21.115821500999999 22.615821501000028 22.215821500999994 C23.315821501000016 20.715821500999994 24.015821501000005 19.115821500999999 24.715821500999994 17.615821500999999 C25.015821501000005 17.615821500999999 25.415821500999982 17.615821500999999 25.715821500999994 17.515821501000005 C26.315821501000016 18.915821501000011 26.715821500999994 20.415821501000011 27.515821501000005 21.715821500999994 C27.915821500999982 22.415821501000011 28.815821501000016 23.315821500999988 29.615821501000028 23.415821501000011 C30.615821501000028 23.515821501000005 32.215821500999994 23.015821501000005 32.515821501000005 22.315821500999988 C34.815821501000016 16.715821500999994 35.615821501000028 10.815821500999988 34.915821500999982 4.715821500999994 C34.915821500999982 4.415821501000011 34.515821501000005 4.115821500999999 34.015821501000005 3.415821501000011 C30.315821501000016 8.415821501000011 33.615821501000028 15.015821501000005 29.615821501000028 20.915821501000011 C28.215821500999994 16.815821500999988 27.015821501000005 13.415821501000011 25.815821501000016 10.015821501000005 C25.415821500999982 9.015821501000005 24.915821500999982 8.015821501000005 24.415821500999982 7.015821501000005 C23.915821500999982 8.115821500999999 23.215821500999994 9.115821500999999 22.915821500999982 10.215821500999994 C22.415821500999982 12.315821500999988 22.015821501000005 14.515821501000005 21.615821501000028 16.615821500999999 C21.115821501000028 16.615821500999999 20.615821501000028 16.515821501000005 20.115821501000028 16.515821501000005 z" />
<glyph unicode="n" horiz-adv-x="52" d="M18.707505071000000 19.932251521300000 C20.307505070999980 22.232251521299986 21.207505071000014 24.032251521299997 22.607505070999991 25.432251521300003 C23.707505071000014 26.532251521299997 25.407505071000003 27.632251521299992 26.907505071000003 27.732251521299986 C27.907505071000003 27.832251521300009 29.907505071000003 26.532251521299997 30.107505070999991 25.532251521299997 C30.707505071000014 22.232251521299986 30.807505070999980 18.732251521299986 30.907505071000003 15.332251521300009 C30.907505071000003 13.532251521299997 30.407505071000003 11.632251521299992 30.307505070999980 9.732251521299986 C30.207505071000014 8.032251521299997 30.407505071000003 6.332251521300009 30.507505071000026 3.732251521299986 C27.207505071000014 5.932251521300003 28.107505070999991 8.632251521299992 28.007505071000026 11.032251521299997 C27.907505071000003 15.532251521299997 27.807505070999980 19.932251521300003 27.707505071000014 24.432251521300003 C27.207505071000014 24.632251521299992 26.607505070999991 24.832251521300009 26.107505070999991 25.032251521299997 C24.907505071000003 23.432251521300003 23.407505071000003 21.932251521300003 22.407505071000003 20.132251521299992 C20.607505070999991 16.932251521300003 18.107505070999991 14.032251521299997 18.807505070999980 9.932251521300003 C18.907505071000003 9.132251521299992 17.807505070999980 8.032251521299997 17.307505070999980 7.132251521299992 C16.907505071000003 8.132251521299992 16.307505070999980 9.032251521299997 16.207505071000014 10.032251521299997 C15.807505070999980 13.532251521299997 15.707505071000014 16.932251521300003 15.407505071000003 20.432251521300003 C15.307505070999980 21.332251521300009 14.907505071000003 22.332251521300009 15.207505071000014 23.132251521299992 C15.507505071000026 23.932251521300003 16.307505070999980 24.632251521299992 16.907505071000003 25.432251521300003 C17.507505071000026 24.732251521299986 18.207505071000014 24.232251521299986 18.507505071000026 23.432251521300003 C18.807505070999980 22.632251521299992 18.607505070999991 21.632251521299992 18.707505071000014 19.932251521300003 z" />
<glyph unicode="o" horiz-adv-x="14.458823529411781" d="M12.437931034511781 16.103245436100000 C12.337931034511804 11.703245436099991 8.337931034511804 5.803245436100013 4.837931034511804 4.803245436100013 C2.937931034511770 4.203245436099991 -0.662068965488196 6.503245436100002 -1.062068965488230 8.603245436099996 C-2.462068965488207 15.503245436100002 0.537931034511793 21.703245436099991 6.737931034511782 24.603245436099996 C7.437931034511770 24.903245436100008 8.837931034511804 24.903245436100008 9.137931034511759 24.503245436100002 C10.737931034511782 22.003245436100002 12.037931034511793 19.303245436099985 13.437931034511770 16.603245436099996 C13.037931034511793 16.403245436100008 12.737931034511782 16.303245436099985 12.437931034511770 16.103245436099996 zM3.800608519311780 9.461460446200000 C3.800608519311801 9.461460446199993 6.871679525611775 12.082150101400003 8.733671399611787 12.082150101400003 C8.733671399611787 14.343137254900000 8.733681399611761 18.865111561899994 8.733671399611787 18.865111561899994 C7.286626482911778 18.865111561899994 4.417248450411797 18.402643987900007 4.417241379311783 18.402636916799992 C2.396092385711803 16.381487923300000 0.717444219111805 16.730622428599986 0.717444219111805 13.007099391499992 C0.717444219111805 11.557327221599991 3.183975659211775 9.109358327499990 3.183975659211775 9.769776876300000 C3.389519945911765 9.667004732900011 3.646450304211761 9.538539553800007 3.800608519311801 9.461460446199993 z" />
<glyph unicode="p" horiz-adv-x="54" d="M16.832454361099998 23.394929006100000 C19.432454361099985 23.694929006100011 21.532454361100008 23.894929006100000 23.632454361099974 24.194929006100011 C28.132454361099974 24.894929006100000 29.532454361100008 23.994929006099994 30.332454361100019 19.594929006099989 C31.032454361100008 16.494929006099994 29.032454361100008 11.394929006100000 26.532454361100008 9.694929006100011 C24.032454361100008 8.094929006099989 21.432454361099985 6.694929006100011 18.932454361099985 5.194929006100011 C18.932454361099985 -1.405070993900011 19.332454361100019 -8.105070993900000 17.232454361099997 -14.605070993899972 C16.832454361100019 -1.705070993899994 15.032454361100008 11.094929006099989 16.832454361100019 23.394929006100000 zM18.332454361099998 9.194929006100001 C24.832454361100019 11.394929006100000 25.732454361099997 12.294929006100006 27.032454361100008 16.794929006100006 C27.532454361100008 18.494929006099994 28.432454361099985 20.894929006100000 26.032454361100008 20.994929006099994 C23.732454361099997 20.994929006099994 20.332454361100019 19.994929006099994 19.432454361099985 18.394929006100000 C18.132454361099974 15.994929006099994 18.632454361099974 12.594929006099989 18.332454361100019 9.194929006100011 z" />
<glyph unicode="q" horiz-adv-x="15.341176470588234" d="M-14.038945233311766 9.107505071000000 C-14.538945233311754 9.007505070999997 -15.238945233311743 8.707505071000014 -15.938945233311788 8.507505070999997 C-17.938945233311788 8.107505070999991 -21.338945233311765 6.907505071000003 -21.738945233311743 7.607505070999991 C-22.938945233311788 9.407505071000003 -23.438945233311788 12.107505070999991 -23.138945233311777 14.407505071000003 C-22.638945233311777 18.007505070999997 -20.738945233311743 20.907505071000003 -16.538945233311754 21.407505071000003 C-14.338945233311765 21.707505071000014 -12.138945233311777 22.407505071000003 -9.238945233311743 23.107505070999991 C-9.538945233311754 18.007505070999997 -9.838945233311765 13.107505070999991 -10.038945233311754 8.107505070999991 C-10.238945233311743 2.307505071000008 -10.238945233311743 -3.592494928999997 -10.438945233311788 -9.392494929000009 C-10.438945233311788 -9.692494929000020 -10.338945233311765 -10.092494928999997 -10.538945233311754 -10.392494929000009 C-11.138945233311777 -11.592494928999997 -11.738945233311743 -13.792494928999986 -12.338945233311765 -13.792494928999986 C-14.638945233311777 -13.792494928999986 -14.138945233311777 -11.792494928999986 -14.138945233311777 -10.192494929000020 C-14.038945233311754 -3.692494928999992 -14.038945233311754 2.607505070999991 -14.038945233311754 9.107505070999991 zM-20.138945233311766 10.286612576100000 C-17.738945233311743 11.786612576099998 -15.638945233311777 12.886612576099992 -13.838945233311765 14.486612576100015 C-13.138945233311777 15.186612576100003 -13.138945233311777 16.986612576100015 -13.338945233311765 18.186612576100003 C-13.438945233311788 18.586612576100009 -15.338945233311765 18.986612576100015 -16.238945233311743 18.786612576099998 C-20.138945233311777 17.886612576099992 -21.338945233311765 15.586612576100009 -20.138945233311777 10.286612576099998 z" />
<glyph unicode="r" horiz-adv-x="59" d="M27.802839756600001 19.778296145999999 C31.002839756599997 20.278296146000002 34.102839756600019 20.778296146000002 37.702839756599985 21.278296146000002 C37.302839756600008 18.978296145999991 37.102839756600019 17.778296146000002 36.802839756600008 16.578296146000014 C31.602839756600019 18.178296146000008 29.002839756599997 16.278296146000002 28.202839756599985 11.078296146000014 C27.902839756599974 8.978296145999991 27.202839756599985 6.978296145999991 26.702839756599985 4.978296145999991 C26.202839756599985 4.978296145999991 25.702839756599985 4.978296145999991 25.202839756599985 4.878296145999997 C24.802839756600008 6.378296145999997 24.202839756599985 7.878296145999997 24.202839756599985 9.378296145999997 C24.202839756599985 13.178296146000008 24.202839756599985 16.878296145999997 24.402839756599974 20.678296146000008 C24.502839756599997 21.778296146000002 25.502839756599997 22.778296146000002 26.102839756600019 23.878296145999997 C26.602839756600019 22.778296146000002 27.202839756599985 21.678296146000008 27.702839756599985 20.578296146000014 C27.902839756599974 20.078296146000014 27.902839756599974 19.578296146000014 27.802839756600008 19.778296146000002 z" />
<glyph unicode="s" horiz-adv-x="56" d="M20.119878296099998 18.798985801200001 C23.719878296099978 17.698985801199996 26.519878296099989 17.498985801200007 28.619878296100012 16.198985801199996 C31.719878296099978 14.198985801199996 32.919878296100023 8.698985801199996 31.419878296100023 6.298985801199990 C29.819878296100001 3.898985801200013 23.719878296099978 2.598985801200001 20.719878296099978 4.098985801200001 C19.819878296100001 4.498985801200007 19.019878296099989 5.198985801199996 17.419878296100023 6.298985801199990 C18.719878296099978 6.498985801200007 19.319878296100001 6.698985801199996 19.919878296100023 6.698985801199996 C21.719878296099978 6.698985801199996 23.519878296099989 6.398985801200013 25.319878296100001 6.498985801200007 C27.219878296099978 6.598985801200001 29.419878296100023 7.498985801200007 28.819878296100001 9.798985801199990 C28.319878296100001 11.398985801200013 26.619878296100012 12.998985801200007 25.019878296099989 13.998985801200007 C23.719878296099978 14.798985801199990 21.719878296099978 14.498985801200007 20.119878296100012 14.898985801200013 C17.619878296100012 15.598985801200001 17.519878296099989 21.098985801200001 20.119878296100012 23.298985801199990 C21.719878296099978 24.598985801200001 23.519878296099989 25.598985801200001 25.419878296100023 26.398985801200013 C26.119878296100012 26.698985801199996 27.119878296100012 25.998985801200007 28.019878296099989 25.698985801199996 C27.619878296100012 24.898985801200013 27.419878296100023 23.698985801199996 26.819878296100001 23.198985801199996 C25.819878296100001 22.498985801200007 24.419878296100023 22.398985801200013 23.319878296100001 21.798985801199990 C22.319878296100001 21.098985801200001 21.519878296099989 20.098985801200001 20.119878296100012 18.798985801199990 z" />
<glyph unicode="t" horiz-adv-x="47.647058823529413" d="M17.218794920800001 15.719977175700000 C15.518794920800019 14.519977175700006 14.318794920799974 14.819977175699989 13.318794920799974 16.519977175700006 C13.018794920800019 17.119977175700001 12.918794920799996 18.119977175700001 13.118794920799985 18.719977175699995 C13.318794920799974 19.119977175700001 14.218794920800008 19.519977175700006 14.818794920799974 19.619977175700001 C16.418794920799996 19.619977175700001 17.918794920799996 19.619977175700001 19.518794920800019 19.619977175700001 C20.218794920800008 19.619977175700001 20.918794920799996 20.119977175700001 21.118794920799985 20.819977175699989 C21.418794920799996 22.319977175699989 21.718794920800008 23.519977175700006 22.118794920799985 24.519977175700006 C22.618794920799985 25.819977175699989 24.618794920799985 25.619977175700001 25.018794920800019 24.319977175699989 C25.118794920799985 24.219977175699995 25.118794920799985 24.219977175699995 25.118794920799985 24.119977175700001 C25.218794920800008 23.819977175699989 25.218794920800008 23.519977175700006 25.218794920800008 23.219977175699995 C25.218794920800008 22.619977175700001 25.618794920799985 22.019977175700006 26.218794920800008 21.719977175699995 C26.418794920799996 21.519977175700006 26.718794920800008 21.419977175700012 27.018794920800019 21.319977175699989 C28.018794920800019 20.919977175700012 28.318794920799974 19.719977175699995 27.618794920799985 18.919977175700012 C27.218794920800008 18.319977175699989 26.718794920800008 17.719977175699995 26.218794920800008 17.119977175700001 C25.518794920800019 16.219977175699995 24.618794920799985 15.319977175699989 24.518794920800019 14.319977175699989 C24.318794920799974 11.319977175699989 24.218794920800008 8.319977175699989 24.118794920799985 5.319977175699989 C24.018794920800019 5.319977175699989 23.918794920799996 5.319977175699989 23.718794920800008 5.319977175699989 C23.118794920799985 5.319977175699989 22.618794920799985 5.219977175699995 22.118794920799985 5.119977175700001 C21.918794920799996 6.019977175700006 21.718794920800008 6.919977175700012 21.218794920800008 7.919977175700012 C20.418794920799996 9.519977175700006 21.018794920800019 11.819977175699989 20.918794920799996 13.819977175699989 C20.718794920800008 16.319977175699989 19.418794920799996 17.319977175699989 17.218794920800008 15.719977175699995 zM25.118794920799999 19.719977175699999 C25.118794920799985 20.519977175700006 25.818794920799974 21.219977175699995 26.618794920799985 21.219977175699995 C27.018794920800019 21.219977175699995 27.418794920799996 21.219977175699995 27.818794920799974 21.219977175699995 C28.618794920799985 21.219977175699995 29.318794920799974 20.519977175700006 29.318794920799974 19.719977175699995 C29.318794920799974 18.919977175700012 28.618794920799985 18.219977175699995 27.818794920799974 18.219977175699995 C27.418794920799996 18.219977175699995 27.018794920800019 18.219977175699995 26.618794920799985 18.219977175699995 C25.718794920800008 18.219977175699995 25.118794920799985 18.919977175700012 25.118794920799985 19.719977175699995 zM30.418794920800000 18.519977175699999 C32.318794920799974 18.519977175700006 32.318794920799974 21.519977175700006 30.418794920799996 21.519977175700006 C28.518794920800019 21.519977175700006 28.518794920800019 18.519977175700006 30.418794920799996 18.519977175700006 zM26.218794920800001 17.719977175699999 C28.118794920799985 17.719977175699995 28.118794920799985 20.719977175699995 26.218794920800008 20.719977175699995 C24.318794920799974 20.719977175699995 24.318794920799974 17.719977175699995 26.218794920800008 17.719977175699995 zM30.918794920800000 19.519977175699999 C30.918794920799996 18.719977175699995 30.218794920800008 17.919977175700012 29.418794920799996 18.019977175700006 C28.518794920800019 18.019977175700006 27.618794920799985 17.919977175700012 26.818794920799974 17.519977175700006 C25.118794920799985 16.619977175700001 23.618794920799985 19.219977175699995 25.318794920799974 20.119977175700001 C26.618794920799985 20.819977175699989 28.018794920800019 21.119977175700001 29.418794920799996 21.019977175700006 C30.218794920800008 21.019977175700006 30.918794920799996 20.419977175700012 30.918794920799996 19.519977175700006 zM17.218794920800001 15.719977175700000 C15.518794920800019 14.519977175700006 14.318794920799974 14.819977175699989 13.318794920799974 16.519977175700006 C13.018794920800019 17.119977175700001 12.918794920799996 18.119977175700001 13.118794920799985 18.719977175699995 C13.318794920799974 19.119977175700001 14.218794920800008 19.519977175700006 14.818794920799974 19.619977175700001 C16.418794920799996 19.619977175700001 17.918794920799996 19.619977175700001 19.518794920800019 19.619977175700001 C20.218794920800008 19.619977175700001 20.918794920799996 20.119977175700001 21.118794920799985 20.819977175699989 C21.418794920799996 22.319977175699989 21.718794920800008 23.519977175700006 22.118794920799985 24.519977175700006 C22.618794920799985 25.819977175699989 24.618794920799985 25.619977175700001 25.018794920800019 24.319977175699989 C25.118794920799985 24.219977175699995 25.118794920799985 24.219977175699995 25.118794920799985 24.119977175700001 C25.218794920800008 23.819977175699989 25.218794920800008 23.519977175700006 25.218794920800008 23.219977175699995 C25.218794920800008 22.619977175700001 25.618794920799985 22.019977175700006 26.218794920800008 21.719977175699995 C26.418794920799996 21.519977175700006 26.718794920800008 21.419977175700012 27.018794920800019 21.319977175699989 C28.018794920800019 20.919977175700012 28.318794920799974 19.719977175699995 27.618794920799985 18.919977175700012 C27.218794920800008 18.319977175699989 26.718794920800008 17.719977175699995 26.218794920800008 17.119977175700001 C25.518794920800019 16.219977175699995 24.618794920799985 15.319977175699989 24.518794920800019 14.319977175699989 C24.318794920799974 11.319977175699989 24.218794920800008 8.319977175699989 24.118794920799985 5.319977175699989 C24.018794920800019 5.319977175699989 23.918794920799996 5.319977175699989 23.718794920800008 5.319977175699989 C23.118794920799985 5.319977175699989 22.618794920799985 5.219977175699995 22.118794920799985 5.119977175700001 C21.918794920799996 6.019977175700006 21.718794920800008 6.919977175700012 21.218794920800008 7.919977175700012 C20.418794920799996 9.519977175700006 21.018794920800019 11.819977175699989 20.918794920799996 13.819977175699989 C20.718794920800008 16.319977175699989 19.418794920799996 17.319977175699989 17.218794920800008 15.719977175699995 zM25.118794920799999 19.719977175699999 C25.118794920799985 20.519977175700006 25.818794920799974 21.219977175699995 26.618794920799985 21.219977175699995 C27.018794920800019 21.219977175699995 27.418794920799996 21.219977175699995 27.818794920799974 21.219977175699995 C28.618794920799985 21.219977175699995 29.318794920799974 20.519977175700006 29.318794920799974 19.719977175699995 C29.318794920799974 18.919977175700012 28.618794920799985 18.219977175699995 27.818794920799974 18.219977175699995 C27.418794920799996 18.219977175699995 27.018794920800019 18.219977175699995 26.618794920799985 18.219977175699995 C25.718794920800008 18.219977175699995 25.118794920799985 18.919977175700012 25.118794920799985 19.719977175699995 zM25.794048470500002 17.749186100599999 C27.694048470499979 17.749186100600014 27.694048470499979 20.749186100600014 25.794048470500002 20.749186100600014 C23.894048470500024 20.749186100600014 23.894048470500024 17.749186100600014 25.794048470500002 17.749186100600014 zM26.218794920800001 17.719977175699999 C28.118794920799985 17.719977175699995 28.118794920799985 20.719977175699995 26.218794920800008 20.719977175699995 C24.318794920799974 20.719977175699995 24.318794920799974 17.719977175699995 26.218794920800008 17.719977175699995 zM30.918794920800000 19.519977175699999 C30.918794920799996 18.719977175699995 30.218794920800008 17.919977175700012 29.418794920799996 18.019977175700006 C28.518794920800019 18.019977175700006 27.618794920799985 17.919977175700012 26.818794920799974 17.519977175700006 C25.118794920799985 16.619977175700001 23.618794920799985 19.219977175699995 25.318794920799974 20.119977175700001 C26.618794920799985 20.819977175699989 28.018794920800019 21.119977175700001 29.418794920799996 21.019977175700006 C30.218794920800008 21.019977175700006 30.918794920799996 20.419977175700012 30.918794920799996 19.519977175700006 z" />
<glyph unicode="u" horiz-adv-x="56" d="M29.407302231199999 11.686612576100000 C28.607302231199981 11.286612576099998 28.507302231200015 11.286612576099998 28.407302231199992 11.186612576100003 C27.107302231199981 8.786612576099998 25.807302231200026 5.486612576099986 22.607302231199981 6.386612576099992 C19.607302231199981 7.186612576100003 18.707302231200003 10.286612576099998 18.807302231200026 13.386612576099992 C18.907302231199992 15.686612576100003 18.707302231200003 18.086612576100009 19.007302231200015 20.386612576099992 C19.207302231200003 21.486612576100015 20.207302231200003 22.486612576100015 21.107302231199981 24.086612576100009 C23.807302231200026 18.986612576100015 19.507302231200015 13.786612576099998 23.607302231199981 9.786612576099998 C28.607302231199981 12.886612576099992 25.607302231199981 20.286612576099998 30.707302231200003 24.186612576100003 C31.007302231200015 22.486612576100015 31.207302231200003 21.586612576100009 31.307302231200026 20.786612576099998 C32.007302231200015 15.986612576100015 32.807302231200026 11.186612576100003 33.407302231199992 6.386612576099992 C33.507302231200015 5.386612576099992 32.707302231200003 4.186612576100003 32.407302231199992 3.186612576100003 C31.607302231199981 4.086612576100009 30.407302231199992 4.886612576099992 30.107302231199981 5.986612576099986 C29.507302231200015 7.686612576100003 29.607302231199981 9.586612576100009 29.407302231199992 11.686612576100003 z" />
<glyph unicode="v" horiz-adv-x="56" d="M32.986409736299997 21.486612576100001 C30.786409736300016 17.186612576100003 27.586409736300027 13.286612576099998 27.486409736300004 8.086612576100009 C27.486409736300004 7.386612576099992 26.386409736299981 6.386612576099992 25.586409736300027 5.986612576099986 C25.286409736300016 5.786612576099998 23.986409736300004 6.786612576099998 23.786409736300016 7.486612576099986 C22.986409736300004 10.586612576100009 22.486409736300004 13.786612576099998 21.786409736300016 16.886612576099992 C21.286409736300016 19.186612576100003 20.686409736299993 21.386612576099992 19.886409736299981 23.586612576100009 C20.486409736300004 23.686612576100003 21.086409736300027 23.886612576099992 21.586409736300027 24.186612576100003 C21.986409736300004 23.986612576100015 22.486409736300004 23.886612576099992 22.986409736300004 23.786612576099998 C23.886409736299981 20.286612576099998 24.886409736299981 16.886612576099992 25.686409736299993 13.686612576100003 C27.286409736300016 16.886612576099992 29.086409736300027 20.486612576100015 30.886409736299981 24.186612576100003 C31.286409736300016 23.786612576099998 31.786409736300016 23.486612576100015 32.386409736299981 23.286612576099998 C32.486409736300004 22.586612576100009 32.686409736299993 21.986612576100015 32.986409736300004 21.486612576100015 z" />
<glyph unicode="w" horiz-adv-x="57" d="M33.657606490900001 23.640770791100000 C32.357606490899968 17.840770791099999 31.057606490900014 11.840770791099999 29.657606490899980 5.340770791099999 C26.457606490899991 8.740770791100005 24.157606490899980 11.340770791099999 21.357606490900025 14.340770791099999 C20.557606490900014 11.440770791099993 19.957606490899991 9.040770791099987 19.257606490900002 6.140770791100010 C14.357606490900025 8.940770791099993 14.857606490900025 13.940770791099993 13.557606490900014 17.940770791099993 C12.957606490899991 19.640770791100010 12.857606490900025 21.940770791099993 15.857606490900025 22.840770791099999 C16.457606490899991 20.040770791099987 16.957606490899991 17.340770791099999 17.557606490900014 14.240770791100005 C18.557606490900014 15.540770791099987 19.257606490900002 16.340770791099999 19.757606490900002 17.140770791100010 C21.657606490899980 20.140770791100010 22.457606490899991 20.140770791100010 24.457606490899991 17.140770791100010 C25.457606490899991 15.640770791100010 26.557606490900014 14.140770791100010 27.657606490899980 12.640770791100010 C30.957606490899991 18.540770791099987 28.357606490900025 19.040770791099987 32.757606490900002 24.340770791099999 C32.857606490900025 24.340770791099999 32.857606490900025 24.240770791100005 32.957606490899991 24.240770791100005 C32.957606490899991 24.240770791100005 33.057606490900014 24.140770791100010 33.057606490900014 24.140770791100010 C33.257606490900002 23.940770791099993 33.457606490899991 23.740770791100005 33.657606490899980 23.640770791100010 z" />
<glyph unicode="x" horiz-adv-x="56" d="M25.119878296100001 12.682352941200000 C22.819878296100001 10.082352941200014 20.819878296100001 7.882352941199997 18.919878296100023 5.682352941200008 C18.319878296100001 5.882352941199997 17.919878296100023 6.082352941199986 17.419878296100023 6.282352941200003 C17.919878296100023 7.582352941199986 18.219878296099978 8.882352941199997 19.019878296099989 9.982352941199991 C21.219878296099978 12.882352941199997 25.419878296100023 15.082352941199986 24.719878296099978 19.182352941200008 C24.519878296099989 20.582352941199986 24.119878296100012 21.882352941199997 23.819878296100001 23.282352941200003 C23.719878296099978 23.982352941199991 23.619878296100012 24.882352941199997 23.719878296099978 25.582352941199986 C23.719878296099978 25.682352941200008 25.019878296099989 25.882352941199997 25.119878296100012 25.782352941200003 C25.519878296099989 25.182352941200008 25.819878296100001 24.482352941199991 26.019878296099989 23.782352941200003 C26.319878296100001 22.482352941199991 26.519878296099989 21.182352941200008 26.819878296100001 19.782352941200003 C28.019878296099989 20.582352941199986 29.119878296100012 21.282352941200003 30.219878296099978 21.982352941199991 C30.519878296099989 21.882352941199997 30.919878296100023 21.782352941200003 31.219878296099978 21.782352941200003 C31.019878296099989 20.682352941200008 31.419878296100023 19.082352941199986 30.619878296100012 18.582352941199986 C27.419878296100023 16.282352941200003 27.219878296099978 13.682352941200008 28.619878296100012 10.582352941199986 C29.119878296100012 9.582352941199986 30.119878296100012 8.082352941199986 27.819878296100001 7.682352941200008 C27.419878296100023 7.582352941199986 26.519878296099989 9.282352941200003 25.919878296100023 10.182352941200008 C25.619878296100012 10.882352941199997 25.519878296099989 11.482352941199991 25.119878296100012 12.682352941200008 z" />
<glyph unicode="y" horiz-adv-x="56" d="M21.024137930999999 -22.021501014199998 C18.324137930999996 -18.021501014199998 16.324137930999996 -14.221501014199987 17.124137931000007 -9.521501014199998 C17.424137931000018 -9.421501014200004 17.724137930999973 -9.321501014200010 18.024137930999984 -9.221501014199987 C19.024137930999984 -11.821501014200010 20.024137930999984 -14.421501014199976 21.124137931000007 -17.121501014200021 C25.524137930999984 -12.821501014200010 27.324137930999996 0.578498985799996 24.924137931000018 9.278498985800013 C23.924137931000018 8.078498985799996 23.224137930999973 6.978498985800002 22.324137930999996 6.078498985799996 C20.624137931000007 4.178498985799990 19.024137930999984 4.278498985800013 17.624137931000007 6.478498985800002 C15.224137930999973 10.178498985799990 15.024137930999984 15.678498985799990 17.524137930999984 20.178498985799990 C20.724137930999973 16.678498985799990 15.724137930999973 11.378498985800007 20.224137930999973 8.478498985800002 C23.024137930999984 10.478498985800002 24.824137930999996 13.078498985799996 25.224137930999973 16.678498985799990 C25.324137930999996 17.378498985800007 26.424137931000018 17.878498985800007 27.124137931000007 18.478498985800002 C27.624137931000007 17.778498985800013 28.524137930999984 17.178498985799990 28.524137930999984 16.478498985800002 C28.524137930999984 7.278498985800013 30.124137931000007 -1.921501014200004 27.724137930999973 -11.021501014199998 C26.524137930999984 -15.121501014200021 25.224137930999973 -19.321501014200010 21.024137930999984 -22.021501014199998 z" />
<glyph unicode="z" horiz-adv-x="56" d="M22.461663286000000 11.811561866100000 C26.161663286000021 12.411561866099987 29.861663286000010 13.111561866100004 33.461663285999975 13.711561866099998 C34.461663285999975 13.811561866099993 35.461663285999975 13.511561866100010 36.461663285999975 13.311561866099993 C35.761663285999987 12.211561866099998 35.361663286000010 10.711561866099998 34.461663285999975 10.211561866099998 C32.861663286000010 9.511561866100010 30.861663286000010 9.611561866100004 29.061663285999998 9.111561866100004 C24.761663285999987 7.911561866099987 20.461663285999975 6.711561866099998 15.861663286000010 5.311561866099993 C14.661663286000021 8.111561866100004 17.061663285999998 10.711561866099998 18.661663286000021 13.311561866099993 C20.261663285999987 16.011561866100010 22.261663285999987 18.411561866099987 24.461663285999975 21.411561866099987 C21.161663286000021 21.011561866100010 18.661663286000021 20.711561866099998 15.261663285999987 20.311561866099993 C15.761663285999987 21.811561866099993 15.961663285999975 23.311561866099993 16.361663286000010 23.411561866099987 C20.561663285999998 24.111561866100004 24.761663285999987 24.611561866100004 28.861663286000010 25.111561866100004 C29.261663285999987 25.211561866099998 29.861663286000010 24.611561866100004 30.861663286000010 24.011561866100010 C27.761663285999987 20.211561866099998 24.861663286000010 16.511561866100010 21.961663285999975 12.911561866099987 C22.161663286000021 12.511561866100010 22.261663285999987 12.211561866099998 22.461663285999975 11.811561866099993 z" />
<glyph unicode="" horiz-adv-x="56" d="M17.541582150099998 33.200405679500001 C17.641582150100021 33.600405679500000 17.741582150099987 34.700405679499994 17.841582150100010 35.700405679499994 C22.341582150100010 36.000405679500005 26.641582150100021 36.500405679500005 30.941582150099975 36.600405679500000 C31.741582150099987 36.600405679500000 32.641582150100021 35.500405679500005 33.441582150099975 34.900405679500011 C32.541582150099998 34.300405679499988 31.641582150100021 33.300405679499988 30.741582150099987 33.200405679499994 C26.441582150099975 33.100405679500000 22.141582150100021 33.200405679499994 17.541582150099998 33.200405679499994 z" />
<glyph unicode="" horiz-adv-x="56" d="" />
<glyph unicode="" horiz-adv-x="56" d="M19.274645030400002 60.080824021900000 C20.074645030400006 58.180824021900008 20.674645030399972 56.680824021900008 21.374645030400018 55.280824021900003 C22.274645030399995 53.580824021900014 23.374645030400018 51.980824021899991 24.174645030399972 50.180824021900008 C24.474645030399984 49.480824021899991 24.874645030400018 48.180824021900008 24.474645030399984 47.880824021899997 C23.874645030400018 47.380824021899997 22.774645030399995 47.080824021900014 21.974645030399984 47.380824021899997 C19.574645030400006 48.280824021900003 17.274645030399995 56.780824021900003 19.274645030399995 60.080824021900014 zM25.547870182600001 60.920986293699997 C27.247870182600025 57.820986293700003 29.047870182599979 54.820986293700003 30.547870182599979 51.620986293700014 C30.847870182599991 50.920986293699997 29.947870182600013 49.720986293700008 29.547870182599979 48.720986293700008 C28.847870182599991 49.420986293699997 28.047870182599979 49.920986293699997 27.447870182600013 50.720986293700008 C26.447870182600013 52.220986293700008 25.547870182599979 53.820986293700003 24.547870182599979 55.320986293700003 C23.347870182599991 57.220986293700008 22.647870182600002 58.920986293699997 25.547870182599979 60.920986293699997 z" />
<glyph unicode="" horiz-adv-x="56" d="M19.967545638899999 48.984407133399998 C21.867545638900026 52.884407133400003 23.767545638900003 56.884407133400003 25.767545638900003 60.684407133399986 C25.967545638899992 61.084407133399992 27.467545638899992 61.184407133399986 27.867545638900026 60.884407133400003 C28.367545638900026 60.384407133400003 28.767545638900003 59.184407133399986 28.567545638900015 58.584407133399992 C26.967545638899992 55.584407133399992 25.167545638899981 52.684407133399986 23.267545638900003 49.784407133400009 C22.767545638900003 49.084407133399992 21.967545638899992 48.584407133399992 21.367545638900026 47.984407133399998 C20.867545638900026 48.384407133400003 20.367545638900026 48.684407133399986 19.967545638899992 48.984407133399998 zM24.967545638899999 45.684407133400001 C25.067545638900015 46.784407133400009 24.867545638900026 48.084407133399992 25.367545638900026 48.784407133400009 C26.967545638899992 51.084407133399992 28.667545638899981 53.084407133399992 30.467545638899992 54.984407133399998 C30.867545638900026 55.384407133400003 32.367545638900026 55.484407133399998 32.467545638899992 55.284407133400009 C32.867545638900026 54.584407133399992 33.167545638899981 53.384407133400003 32.867545638900026 52.884407133400003 C30.767545638900003 50.184407133399986 28.567545638900015 47.584407133399992 26.367545638900026 44.984407133399998 C25.967545638899992 45.284407133400009 25.467545638899992 45.484407133399998 24.967545638899992 45.684407133399986 z" />
</font>
</svg>
